<svg width="16" height="16" viewBox="0 0 16 16" fill="none" xmlns="http://www.w3.org/2000/svg">
<g clip-path="url(#clip0_578_37167)">
<path d="M11.2131 2.74439C11.4755 2.48206 11.6964 2.3716 11.8759 2.41302C12.0554 2.42683 12.2832 2.5718 12.5593 2.84794C12.8354 3.12407 12.9873 3.35879 13.0149 3.55208C13.0425 3.71777 12.9252 3.93177 12.6629 4.1941L9.18353 7.67342L12.87 11.3598C13.1323 11.6222 13.2496 11.85 13.222 12.0433C13.1944 12.2366 13.0425 12.4713 12.7664 12.7474C12.4765 13.0374 12.2348 13.1962 12.0415 13.2238C11.8482 13.2514 11.6204 13.134 11.3581 12.8717L7.67168 9.18527L4.21307 12.6439C3.95074 12.9062 3.72983 13.0305 3.55034 13.0167C3.35705 12.9891 3.12233 12.8372 2.8462 12.561C2.57006 12.2849 2.42509 12.0571 2.41128 11.8776C2.38367 11.6843 2.50102 11.4565 2.76335 11.1942L6.22197 7.73555L2.74264 4.25623C2.48031 3.9939 2.36296 3.76609 2.39057 3.5728C2.41818 3.3795 2.57696 3.13788 2.86691 2.84794C3.14304 2.5718 3.37776 2.41992 3.57105 2.39231C3.76435 2.3647 3.99216 2.48205 4.25449 2.74438L7.73381 6.22371L11.2131 2.74439Z" fill="white"/>
</g>
<defs>
<clipPath id="clip0_578_37167">
<rect width="16" height="16" fill="white"/>
</clipPath>
</defs>
</svg>
