<svg width="200" height="186" viewBox="0 0 200 186" fill="none" xmlns="http://www.w3.org/2000/svg">
<path d="M103 18C97.6667 17.6667 86.6 17 85 17L79 16.5V7.5L74.5 1.5L67.5 4L65.5 15.5L45.5 8L23.5 7.5L7 13C7 13 5 14.5 4.5 16C4 17.5 4.5 20 4.5 20L25 28.5L16 36.5L7 50L0.5 62L3.5 65L19.5 64L34.5 56L43.5 50L41 66.5L37.5 71.5L29.5 85L27.5 104.5L34 122L49 127.5L62.5 126.5L61.5 132L59.5 148L62.5 163L71 172L64 168.5L51.5 165.5L43.5 167L38.5 175L42.5 182L68 184L80 182V169.5L87.5 139.5H92L112 134.5L119.5 149.5L120.5 167.5L125.5 172.5L136 167.5L154.5 156L158.5 151.5L156.5 146.5L148.5 144L139 147.5L131.5 156L136 145.5L134 136.5L128 124L129 120.5L136 110L139 103.5L141.5 89L143.5 83.5L153 84.5L165 79.5L170 76L175.5 66.5L178.5 63L182.5 57.5L187.5 51.5L194.5 48L198 43L196.5 40.5L188 43L191.5 34L190 32.5L180.5 40.5L181.5 31L180 29L178 30L174.5 36.5L171.5 42.5L168 37H164C163 37 163.5 41 164 44.5C164.5 48 165.5 53.5 165 56C164.5 58.5 159.5 66.5 159 67C158.5 67.5 150 69 149 69C148.2 69 144 67.6667 142 67L137 50.5L120 27.5L103 18Z" fill="#FF9966"/>
<path d="M40.7939 9.61569C40.5821 9.5832 40.3665 9.5832 40.1547 9.61569C39.6365 9.79708 39.2478 9.32204 38.7166 9.40841C38.2041 9.42329 37.6918 9.37256 37.1922 9.25732C36.4897 9.18246 35.7857 9.1176 35.0803 9.0629C34.9637 9.0629 34.8428 9.13206 34.7219 9.12774C34.3937 9.12774 34.1994 8.59651 33.7157 8.97655C33.4609 9.17952 32.9383 9.06289 32.5367 9.05857C32.0487 9.05857 31.5606 9.02407 31.0726 8.99816C31.0122 8.99816 30.9431 8.95063 30.8999 8.9679C29.9671 9.42136 28.9695 8.89878 28.028 9.16222C27.9719 9.16222 27.8942 9.26595 27.8769 9.253C27.2075 8.71317 26.659 9.33501 26.0544 9.4257C25.2883 9.53297 24.5171 9.59927 23.7439 9.62434C23.3015 9.68203 22.8669 9.78922 22.4483 9.94391C21.4551 10.1944 20.4315 10.3283 19.4253 10.514C18.7732 10.6349 18.1297 10.7644 17.4733 10.894C17.3567 10.9199 17.2487 10.9933 17.1321 11.0236C16.8257 11.0509 16.5195 10.9682 16.2684 10.7903C16.3418 11.3086 15.897 11.1791 15.6422 11.2698C15.3226 11.3864 14.9901 11.4554 14.6618 11.5504C14.3336 11.6454 14.04 11.7535 13.7247 11.8312C12.658 12.099 11.5654 12.3278 10.5246 12.6214C9.88113 12.7985 9.27652 13.1095 8.63304 13.2736C7.85741 13.4625 7.07158 13.6067 6.27941 13.7054C5.96846 13.7443 5.72662 13.5672 5.84754 13.1829C5.91232 12.967 6.00301 12.751 6.27941 12.9626C6.71127 13.2693 6.71123 12.9627 6.78033 12.656C6.80624 12.5222 7.00925 12.3667 6.97902 12.2847C6.71127 11.6369 7.12583 11.4597 7.6052 11.3172C7.63609 11.3118 7.66554 11.3002 7.69161 11.2827C8.74535 10.2679 10.2828 10.324 11.4704 9.66757C11.9436 9.38285 12.446 9.1497 12.969 8.97222C13.7506 8.74334 14.5625 8.61379 15.3658 8.44968C16.5169 8.26372 17.6409 7.93739 18.7127 7.47799C19.1143 7.33575 19.5322 7.2444 19.9565 7.20597C21.861 6.86048 23.7655 6.5063 25.6743 6.18673C26.0242 6.13058 26.4042 6.24722 26.7626 6.22131C27.1551 6.17567 27.5445 6.10645 27.9287 6.01402C28.0496 6.01402 28.1749 5.91029 28.2871 5.92757C29.0515 6.03553 29.8202 5.72036 30.5328 5.79809C31.5304 5.91038 32.4978 5.72895 33.4738 5.75919C34.4498 5.78942 35.3654 5.75913 36.3111 5.81528C36.6412 5.82385 36.9683 5.87916 37.2828 5.97944C38.41 6.35516 39.5847 6.12193 40.7377 6.28172C41.2129 6.41513 41.7124 6.43736 42.1974 6.34657C42.2581 6.3294 42.3225 6.3294 42.3832 6.34657C43.2469 6.61432 44.1365 6.66177 44.9743 6.93816C45.5293 7.12816 46.1165 7.20598 46.7018 7.16706C47.1437 7.17179 47.5774 7.28764 47.9629 7.50393C48.5629 7.78636 49.2072 7.96312 49.8673 8.02647C50.8183 8.09623 51.7524 8.31483 52.6356 8.67426C53.2497 8.85983 53.8802 8.9856 54.5185 9.04993C54.7033 9.06183 54.8838 9.1103 55.0497 9.19248C56.2133 9.89037 57.4539 10.4513 58.7465 10.8638C58.8616 10.9082 58.9671 10.9741 59.0574 11.0582C59.6577 11.6369 60.448 11.7837 61.1865 12.0558C61.6636 12.1708 62.1072 12.3956 62.4821 12.7122C62.8319 13.1139 63.4149 12.9929 63.7086 13.4507C63.7937 13.5091 63.8922 13.5448 63.995 13.5547C64.0977 13.5645 64.2013 13.548 64.2959 13.5068C64.4341 13.36 64.5464 12.9886 64.4557 12.859C63.9331 12.0946 64.4168 11.2481 64.2095 10.4665C64.175 10.3455 64.3132 10.1814 64.3434 10.0346C64.4689 9.57284 64.5485 9.0998 64.5809 8.62239C64.5809 7.67661 65.1035 6.92522 65.3928 6.09173C65.4231 6.00104 65.5872 5.95787 65.6908 5.89741C66.0017 5.72035 66.2695 5.53028 66.1227 5.0941C66.0968 5.02068 66.1961 4.86957 66.2781 4.80911C66.5614 4.54141 66.7623 4.19824 66.8569 3.82012C66.9488 3.61348 67.0727 3.42255 67.2239 3.25436C67.9881 2.36304 68.9069 1.61699 69.9361 1.05192C70.2784 0.853988 70.6549 0.722079 71.0459 0.663178C71.7844 0.529301 72.5013 0.296095 73.2312 0.123349C73.5059 0.0173253 73.8022 -0.0211862 74.0949 0.0110606C75.2005 0.352233 76.3967 0.442996 77.3727 1.16421C77.7438 1.39341 78.0256 1.74216 78.1717 2.15309C78.3088 2.46662 78.4922 2.75778 78.7158 3.01681C79.0473 3.4297 79.2487 3.93176 79.2945 4.45927C79.3053 4.64008 79.3538 4.8166 79.437 4.97749C79.7547 5.63489 79.9326 6.35107 79.9596 7.08071C80.0373 7.94444 80.0762 8.83401 80.1625 9.71069C80.2605 10.5348 80.2764 11.3666 80.21 12.1939C80.1237 13.1613 80.1755 14.1373 80.1453 15.109C80.1453 15.489 80.2921 15.4977 80.5771 15.4242C80.9701 15.3335 81.3804 15.3249 81.7691 15.2342C82.1577 15.1435 82.5248 15.0053 82.8962 14.8844C83.0344 14.8369 83.2029 14.6901 83.2936 14.7333C84.2048 15.1652 85.0901 14.6426 85.9884 14.6771C86.8867 14.7117 87.7677 14.5907 88.6573 14.5692C89.2446 14.5692 89.832 14.6254 90.415 14.6254C91.7106 14.6254 93.0062 14.5864 94.3017 14.5735C94.4868 14.5764 94.6709 14.6011 94.8502 14.647C95.7017 14.9033 96.5668 15.1123 97.4414 15.2731C98.5794 15.3657 99.6958 15.6367 100.749 16.0764C100.805 16.1068 100.869 16.1175 100.931 16.1066C102.175 15.6445 102.999 16.6853 104.032 16.9703C104.386 17.0653 104.723 17.2382 105.072 17.3548C106.56 17.7826 107.988 18.3963 109.322 19.1815C109.567 19.3135 109.821 19.4275 110.082 19.5226C111.119 19.9977 112.155 20.4727 113.187 20.9564C113.295 21.0172 113.39 21.0978 113.468 21.194C113.914 21.7072 114.477 22.1056 115.109 22.3557C115.536 22.5048 115.908 22.7805 116.176 23.146C116.461 23.5563 117.095 23.729 117.583 24.0097C117.938 24.1997 118.318 24.3466 118.659 24.5539C118.901 24.6772 119.105 24.8656 119.246 25.098C119.479 25.5313 119.846 25.878 120.291 26.087C120.864 26.337 121.353 26.7443 121.703 27.2617C121.781 27.4085 121.98 27.4906 122.135 27.6072C122.714 28.065 123.336 28.4924 123.586 29.2395C123.625 29.374 123.701 29.495 123.804 29.5888C123.908 29.6827 124.036 29.7457 124.174 29.7708C125.003 29.9608 125.469 30.587 125.901 31.2348C126.103 31.4998 126.324 31.7495 126.562 31.9819C126.687 32.1158 126.873 32.2065 126.968 32.3534C127.576 33.1965 128.244 33.9947 128.967 34.7416C129.628 35.5276 130.233 36.361 130.855 37.1816C131.079 37.4752 131.286 37.7861 131.481 38.0971C131.664 38.3054 131.802 38.5496 131.887 38.814C131.952 39.4186 132.353 39.8116 132.66 40.2607C133.092 40.8653 133.562 41.4224 134.012 41.9881C134.177 42.1744 134.308 42.3878 134.4 42.6188C134.613 43.2956 134.924 43.9374 135.324 44.5232C135.67 45.0717 136.011 45.6288 136.3 46.2075C136.511 46.679 136.696 47.1621 136.853 47.6542C136.877 47.7753 136.919 47.8919 136.978 47.9998C137.877 48.9974 138.119 50.2929 138.589 51.4891C138.746 51.8191 138.925 52.1381 139.125 52.4436C139.154 52.4983 139.191 52.5491 139.233 52.5947C139.574 52.9273 139.233 53.3894 139.414 53.7046C139.596 54.0199 140.079 54.1883 140.14 54.6807C140.179 54.9786 140.39 55.255 140.036 55.5098C139.989 55.5444 140.036 55.7905 140.084 55.864C140.723 56.5463 140.857 57.4446 141.137 58.2738C141.239 58.6326 141.297 59.0023 141.31 59.375C141.355 59.7749 141.504 60.1562 141.742 60.4806C142.075 60.9127 142.259 61.4419 142.264 61.9878C142.317 62.7603 142.482 63.521 142.753 64.2464C142.821 64.4324 142.936 64.5975 143.088 64.7255C143.239 64.8534 143.421 64.9398 143.616 64.9762C144.234 65.1576 144.912 65.3088 145.266 65.9264C145.266 65.9523 145.3 65.9955 145.322 65.9955C146.359 66.0646 146.937 66.9499 147.771 67.386C148.604 67.8222 149.364 67.7013 150.181 67.6149C150.444 67.5955 150.708 67.5955 150.971 67.6149C151.027 67.6149 151.105 67.697 151.135 67.6797C152.184 67.0794 153.402 67.6236 154.482 67.1528C155.562 66.6821 156.805 66.4187 157.682 65.4254C158.114 64.9417 158.788 64.6998 159.202 64.1298C159.686 63.4647 160.278 62.8818 160.804 62.2469C160.973 62.063 161.097 61.8429 161.167 61.6034C161.31 60.8563 161.793 60.2732 162.078 59.6039C162.417 58.7167 162.705 57.8112 162.942 56.8917C163.076 56.4253 163.05 55.8898 163.275 55.4839C163.496 55.0798 163.574 54.6123 163.495 54.1581C163.471 54.0065 163.471 53.852 163.495 53.7003C163.732 52.3356 163.391 51.0098 163.063 49.7272C162.866 48.9047 162.74 48.0666 162.687 47.2224C162.614 46.3587 162.424 45.5381 162.281 44.6959C162.234 44.4152 162.173 44.1345 162.139 43.8538C162.139 43.6768 162.204 43.4652 162.139 43.3226C161.685 42.3682 161.767 41.3706 161.819 40.3687C161.819 40.2434 161.72 40.1182 161.677 39.9887C161.626 39.8868 161.599 39.7744 161.599 39.6604C161.824 38.6758 162.031 37.6782 162.32 36.7194C162.466 36.2946 162.724 35.9172 163.067 35.6268C163.41 35.3365 163.825 35.144 164.268 35.0697C165.461 34.778 166.718 34.9125 167.822 35.4498C167.903 35.4957 167.973 35.5574 168.029 35.6311C168.461 36.1278 168.893 36.6417 169.36 37.121C170.073 37.8868 170.691 38.7367 171.199 39.6518C171.294 39.7681 171.408 39.8674 171.536 39.9454C171.571 39.8332 171.601 39.7166 171.64 39.6C172.007 38.5247 172.365 37.4406 172.754 36.3782C172.897 35.9896 173.13 35.6312 173.311 35.2555C173.835 34.1758 174.356 33.0947 174.874 32.0122C174.948 31.861 174.995 31.7012 175.06 31.5457C175.125 31.3903 175.177 31.0922 175.319 30.967C176.101 30.2717 176.58 29.3432 177.232 28.5529C177.414 28.2712 177.652 28.0295 177.93 27.8424C178.209 27.6553 178.522 27.5268 178.852 27.4646C179.386 27.3454 179.909 27.1821 180.415 26.9766C180.612 26.911 180.822 26.9006 181.024 26.9464C181.814 27.1796 182.631 27.6071 182.972 28.2722C183.352 29.015 183.935 29.788 183.732 30.777C183.697 31.237 183.697 31.6989 183.732 32.1589C183.659 33.2392 183.404 34.2994 182.976 35.2943C182.912 35.4338 182.858 35.5782 182.816 35.7261C182.756 35.9939 182.721 36.2703 182.678 36.5381C182.851 36.3567 183.011 36.158 183.201 35.9939C183.49 35.7348 183.81 35.4973 184.108 35.2425C185.468 34.0851 186.815 32.9148 188.184 31.7876C188.614 31.4217 189.07 31.0882 189.549 30.79C190.072 30.4704 191.32 30.708 191.851 31.1701C192.003 31.327 192.168 31.4714 192.343 31.6019C192.684 31.8056 192.946 32.1174 193.089 32.4877C193.231 32.8579 193.245 33.2653 193.129 33.6446C192.872 34.8864 192.548 36.1133 192.158 37.3198C191.916 37.8884 191.615 38.4298 191.259 38.9349C191.124 39.1023 191.007 39.2832 190.91 39.4748C190.865 39.7036 190.85 39.9374 190.866 40.17C191.067 40.1631 191.266 40.1386 191.462 40.0966C192.429 39.7327 193.422 39.444 194.434 39.2329C195.396 39.1519 196.365 39.1896 197.318 39.3452C197.674 39.4135 198.002 39.5829 198.264 39.8332C198.674 40.1982 199.052 40.5969 199.396 41.0251C200.19 41.9752 200.104 43.0722 199.694 44.0957C199.289 45.1865 198.714 46.2066 197.992 47.1187C197.81 47.3524 197.591 47.555 197.344 47.719C196.602 48.2227 195.824 48.6716 195.017 49.0621C193.57 49.6797 192.076 50.1892 190.599 50.7377C190.435 50.7938 189.934 50.945 189.895 50.9666C189.624 51.1429 189.334 51.2878 189.031 51.3985C188.204 51.6924 187.439 52.1392 186.777 52.7157C186.038 53.2555 185.503 53.8644 185.524 54.849C185.524 55.4925 185.472 56.1446 185.434 56.7751C185.426 57.0175 185.39 57.2582 185.326 57.4921C185.269 57.6778 185.114 57.8289 185.041 58.0103C184.794 58.6236 184.583 59.2498 184.324 59.8544C184.193 60.127 184.034 60.3847 183.849 60.6231C183.585 60.9945 183.304 61.353 183.024 61.7071C182.938 61.838 182.826 61.9498 182.696 62.0353C181.888 62.4369 181.171 63.007 180.307 63.305C180.222 63.3409 180.134 63.3712 180.044 63.3956C179.383 63.5252 178.537 63.2575 178.316 62.8084C177.98 62.1649 178.498 61.7675 178.83 61.3616C179.217 60.9202 179.626 60.4993 180.057 60.1006C181.108 59.1281 181.801 57.8307 182.026 56.4168C182.156 55.4278 182.734 54.6505 183.019 53.7436C183.111 53.548 183.262 53.3862 183.451 53.2814C184.885 52.4177 186.042 51.1998 187.338 50.1375C187.995 49.525 188.684 48.9484 189.402 48.41C189.975 48.1114 190.579 47.8781 191.203 47.7147C191.528 47.6222 191.845 47.5068 192.153 47.3692C193.417 46.7256 194.581 45.9022 195.608 44.9248C195.902 44.5714 196.156 44.1861 196.364 43.7761C196.636 43.3443 196.364 42.947 196.144 42.6015C196.079 42.5021 195.829 42.4892 195.673 42.5021C195.211 42.5453 194.753 42.6576 194.291 42.6748C193.664 42.6807 193.057 42.8932 192.564 43.2794C192.204 43.5706 191.757 43.7333 191.294 43.7415C190.937 43.8018 190.589 43.9108 190.262 44.0654C189.876 44.2143 189.482 44.3426 189.083 44.4498C188.362 44.6183 187.632 44.7306 186.923 44.8817C186.589 44.9548 186.24 44.9085 185.936 44.7507C185.632 44.5929 185.393 44.3336 185.261 44.018C185.153 43.7545 185.148 43.5385 185.446 43.4003C185.52 43.3701 185.624 43.327 185.645 43.2622C186.237 41.7766 187.243 40.5113 187.887 39.0602C188.377 37.8902 188.955 36.7584 189.614 35.6744C189.706 35.5126 189.767 35.3356 189.795 35.1518C189.843 34.8797 189.934 34.5083 189.61 34.4262C189.48 34.4323 189.353 34.4717 189.243 34.5405C189.133 34.6093 189.042 34.7053 188.979 34.8193C188.772 35.385 188.245 35.5275 187.869 35.8687C187.619 36.1019 187.135 36.076 187.083 36.6288C187.083 36.9181 186.625 37.1729 186.375 37.4449C186.077 37.8337 185.738 38.1899 185.364 38.5074C184.762 38.929 184.263 39.4811 183.905 40.1226C183.598 40.6538 183.27 41.1719 182.924 41.6729C182.652 42.1012 182.288 42.4629 181.857 42.7313C181.427 42.9996 180.941 43.1678 180.437 43.2233C179.452 43.3097 177.988 42.4115 178.247 40.9993C178.325 40.5674 178.316 40.0966 178.373 39.6475C178.396 39.3514 178.463 39.0603 178.571 38.7838C178.903 38.119 179.108 37.3986 179.176 36.659C179.174 36.5071 179.214 36.3576 179.292 36.2272C179.871 35.5578 179.785 34.6983 179.962 33.9166C180.139 33.135 180.294 32.2799 180.394 31.4507C180.395 31.3339 180.371 31.2181 180.324 31.1114C180.276 31.0048 180.206 30.9098 180.117 30.8332C180.027 30.7598 179.685 30.8807 179.547 31.0102C179.007 31.55 178.502 32.1244 177.997 32.7031C177.941 32.7679 177.997 32.9363 177.997 33.0443C177.815 33.6834 177.781 34.4003 177.064 34.7501C176.991 34.7847 176.887 34.9359 176.9 34.9489C177.366 35.493 176.697 35.6701 176.563 36.0155C176.339 36.5856 176.131 37.1513 175.868 37.7171C175.207 39.2847 174.542 40.8567 173.864 42.4157C173.743 42.6299 173.598 42.8299 173.432 43.0117C173.082 43.4868 173.048 43.6811 173.432 44.1648C174.316 45.3704 174.87 46.7862 175.039 48.2718C175.138 49.0966 175.367 49.9043 175.414 50.7119C175.496 52.0895 175.229 53.424 174.209 54.4907C174.161 54.5573 174.099 54.6126 174.027 54.6529C173.955 54.6932 173.875 54.7175 173.793 54.7241C173.711 54.7307 173.629 54.7194 173.552 54.691C173.474 54.6626 173.404 54.6178 173.346 54.5597C173.103 54.3923 172.916 54.1557 172.81 53.8807C172.704 53.6057 172.683 53.3051 172.75 53.0179C172.772 52.9409 172.778 52.8601 172.768 52.7806C172.757 52.7011 172.731 52.6247 172.689 52.5559C172.384 51.9224 172.236 51.2246 172.257 50.5218C172.233 49.791 172.119 49.066 171.921 48.3624C171.864 48.1336 171.692 47.9566 171.804 47.6888C171.811 47.6449 171.809 47.5998 171.796 47.5571C171.783 47.5144 171.761 47.4752 171.73 47.4426C171.299 47.0108 170.867 46.6178 170.914 45.9268C170.914 45.8577 170.759 45.767 170.664 45.6936C170.044 45.2385 169.569 44.6128 169.299 43.8927C168.862 42.7771 168.361 41.687 167.801 40.6278C167.671 40.3687 167.369 40.196 167.161 39.9757C166.73 39.5007 166.336 39.004 165.909 38.5332C165.853 38.4584 165.777 38.4 165.691 38.3642C165.604 38.3284 165.51 38.3165 165.417 38.3297C165.325 38.343 165.237 38.3809 165.164 38.4395C165.091 38.4981 165.035 38.5752 165.002 38.6628C164.867 38.9344 164.776 39.2261 164.734 39.5265C164.688 39.9572 164.688 40.3915 164.734 40.8221C164.89 42.4157 165.015 44.0136 165.274 45.5726C165.385 46.369 165.666 47.1321 166.099 47.8097C166.768 48.7641 166.604 49.8999 167.019 50.8932C166.764 52.4738 167.347 54.0761 166.82 55.674C166.655 56.3186 166.444 56.9507 166.19 57.5655C165.975 58.0936 165.803 58.638 165.676 59.1936C165.391 60.0573 165.127 60.96 164.812 61.8194C164.572 62.3751 164.283 62.9083 163.948 63.4129C163.46 64.1989 162.946 64.9719 162.42 65.732C162.252 65.9547 162.057 66.1563 161.841 66.3323C161.28 66.7985 160.765 67.3177 160.303 67.8827C159.82 68.509 159.008 68.8933 158.261 69.2863C157.606 69.64 156.914 69.9181 156.196 70.1154C155.111 70.4569 153.994 70.6856 152.862 70.7978C151.342 70.9015 149.839 70.8453 148.311 70.8453C147.758 70.8049 147.215 70.6871 146.695 70.4954C145.75 70.2104 144.994 69.5325 144.078 69.1697C143.949 69.1179 143.811 69.0919 143.677 69.0531C143.677 69.1697 143.677 69.2862 143.677 69.4028C143.72 70.1024 143.763 70.8021 143.815 71.5017C143.845 71.899 143.897 72.3007 143.944 72.698C143.975 72.9744 144.035 73.2464 144.048 73.5228C144.061 73.7992 144.152 74.2311 143.996 74.3865C143.754 74.637 144.368 74.8961 143.923 75.0386C143.901 75.0386 143.884 75.1553 143.923 75.1942C144.424 76.114 144.419 76.114 144.389 77.0943C144.311 77.7646 144.405 78.4438 144.661 79.068C144.886 79.5473 144.752 80.2038 144.743 80.7954C144.743 81.0373 144.618 81.2704 144.597 81.5166C144.597 81.59 144.778 81.7585 144.787 81.7541C145.313 81.4043 145.776 81.9442 146.324 81.8535C146.872 81.7628 147.464 82.0176 148.03 82.1601C148.549 82.3496 149.084 82.4941 149.628 82.5919C151.355 82.7042 153.057 83.3563 154.81 82.5919C155.31 82.4459 155.827 82.3662 156.348 82.3545C157.254 82.2046 158.142 81.9629 158.999 81.6332C160.377 81.1452 161.625 80.4241 162.955 79.867C163.78 79.5063 164.516 78.9715 165.114 78.2992C165.261 78.1438 165.404 77.9062 165.576 77.8674C166.311 77.7335 166.738 77.2325 167.166 76.6927C167.375 76.4415 167.619 76.2218 167.891 76.0406C168.962 75.3151 169.619 74.2829 170.292 73.2465C170.75 72.5468 171.273 71.8947 171.718 71.1908C172.21 70.4177 172.65 69.6102 173.117 68.8155C173.505 68.2976 173.825 67.7315 174.067 67.1313C174.303 66.5656 174.619 66.0363 175.004 65.5593C175.058 65.4818 175.129 65.4184 175.213 65.3747C175.296 65.3309 175.389 65.3081 175.483 65.3081C175.578 65.3081 175.67 65.3309 175.754 65.3747C175.837 65.4184 175.909 65.4818 175.963 65.5593C176.343 66.1207 176.645 66.6865 176.317 67.4466C176.089 68.1159 175.913 68.8017 175.79 69.4979C175.779 69.6144 175.741 69.7267 175.68 69.8262C175.618 69.9258 175.535 70.01 175.436 70.0722C175.225 70.2511 175.074 70.491 175.004 70.7589C174.702 71.6226 174.572 72.5641 173.821 73.2205C173.726 73.3469 173.665 73.4956 173.644 73.6524C173.364 74.496 172.873 75.2541 172.219 75.8549C172.048 75.9893 171.912 76.1625 171.821 76.3602C171.519 77.4614 170.651 78.0444 169.826 78.7008C169.394 79.0334 168.902 79.3184 168.703 79.8928C168.651 80.0396 168.371 80.0958 168.224 80.2253C167.641 80.759 166.96 81.1754 166.22 81.4519C165.862 81.6307 165.552 81.891 165.313 82.2119C164.644 82.9375 163.719 83.2095 162.882 83.6155C162.307 83.8919 161.668 84.0171 161.232 84.5353C161.171 84.6066 161.092 84.6603 161.003 84.6908C160.298 84.9579 159.576 85.1814 158.844 85.3602C157.233 85.6712 155.631 86.0209 154.028 86.3621C152.746 86.712 151.386 86.6486 150.142 86.1807C149.283 85.8307 148.355 85.6829 147.43 85.7489C146.752 85.8007 146.052 85.4811 145.357 85.3473C144.545 85.1875 144.199 85.3473 144.165 86.1203C144.096 87.7484 143.698 89.3334 143.577 90.9528C143.527 91.8407 143.338 92.7151 143.016 93.544C142.891 93.8679 143.016 94.2868 142.921 94.628C142.64 95.5522 142.787 96.5886 142.157 97.4135C142.273 98.2772 141.82 98.9596 141.591 99.7197C141.297 100.678 140.986 101.637 140.68 102.592C140.68 102.652 140.61 102.712 140.619 102.764C140.775 104.06 139.799 104.889 139.38 105.947C139.285 106.198 139.112 106.496 139.168 106.716C139.206 106.895 139.201 107.08 139.153 107.257C139.105 107.434 139.015 107.596 138.892 107.731C138.449 108.463 138.099 109.248 137.851 110.067C137.752 110.413 137.606 110.744 137.419 111.052C136.557 112.093 135.883 113.277 135.428 114.55C135.255 115.072 134.763 115.487 134.439 115.966C134.152 116.287 133.941 116.668 133.822 117.081C133.757 117.763 133.303 118.186 132.958 118.657C131.995 119.952 130.941 121.214 129.935 122.488C129.689 122.798 129.784 123.498 130.043 123.895C130.786 125.044 131.844 125.986 132.275 127.35C132.375 127.657 132.677 127.89 132.846 128.184C133.148 128.711 133.429 129.25 133.709 129.79C133.778 129.924 133.77 130.118 133.865 130.222C134.832 131.293 134.888 132.783 135.592 133.975C135.852 134.467 135.985 135.016 135.981 135.573C136.011 136.519 136.452 137.326 136.698 138.194C136.975 138.943 137.121 139.733 137.13 140.531C137.104 141.062 137.466 141.593 137.484 142.189C137.444 143.193 137.286 144.189 137.013 145.156C136.96 145.339 136.845 145.498 136.687 145.604C136.529 145.711 136.339 145.759 136.149 145.739C135.917 145.738 135.69 145.67 135.496 145.543C135.302 145.416 135.15 145.235 135.057 145.022C134.724 143.904 134.193 142.863 134.128 141.641C134.007 140.284 133.67 138.956 133.131 137.706C132.935 137.196 132.79 136.668 132.699 136.13C132.463 134.914 132.025 133.746 131.403 132.675C131.101 132.14 130.831 131.588 130.596 131.021C130.135 129.909 129.537 128.858 128.816 127.894C128.315 127.203 127.892 126.461 127.434 125.735C127.347 125.539 127.232 125.355 127.093 125.191C126.661 124.833 126.173 124.535 126.117 123.895C125.374 123.39 124.934 122.626 124.433 121.909C124.243 121.641 124.001 121.395 123.824 121.131C123.729 121.01 123.686 120.821 123.565 120.751C122.269 119.97 121.483 118.592 120.201 117.797C119.892 117.609 119.655 117.324 119.525 116.986C119.396 116.649 119.381 116.278 119.484 115.932C119.511 115.757 119.576 115.59 119.672 115.442C119.769 115.293 119.896 115.167 120.045 115.072C120.193 114.976 120.361 114.912 120.536 114.886C120.711 114.859 120.889 114.87 121.06 114.917C121.215 114.943 121.362 114.99 121.518 115.003C121.925 115.015 122.323 115.13 122.674 115.337C123.025 115.543 123.318 115.836 123.526 116.187C123.611 116.353 123.734 116.499 123.883 116.611C124.033 116.724 124.206 116.802 124.39 116.839C124.618 116.89 124.829 117.003 124.998 117.165C125.168 117.327 125.29 117.532 125.353 117.759C125.475 118.074 125.679 118.352 125.944 118.562C126.238 118.817 126.454 119.162 126.735 119.426C126.914 119.59 127.122 119.72 127.348 119.81C127.68 119.952 127.75 119.62 127.896 119.447C128.708 118.497 129.525 117.551 130.31 116.588C130.521 116.319 130.683 116.015 130.79 115.69C131.043 114.83 131.543 114.062 132.228 113.483C132.417 113.325 132.553 113.113 132.617 112.874C132.893 111.803 133.632 110.987 134.141 110.046C134.197 109.942 134.323 109.834 134.31 109.748C134.171 108.78 134.815 108.119 135.229 107.381C135.507 106.777 135.75 106.159 135.959 105.528C136.352 104.604 136.508 103.546 137.285 102.807C137.078 102.021 137.717 101.469 137.851 100.769C137.938 100.409 138.055 100.056 138.201 99.7154C138.231 99.629 138.304 99.521 138.278 99.4605C137.847 98.5968 138.55 97.9231 138.827 97.2235C139.198 96.3755 139.427 95.4725 139.505 94.5503C139.505 94.2782 139.604 94.0061 139.643 93.734C139.707 93.3724 139.752 93.0077 139.777 92.6414C139.764 92.3117 139.823 91.9832 139.95 91.6783C140.062 91.3316 140.097 90.9647 140.053 90.603C140.041 90.0509 140.134 89.5014 140.325 88.9835C140.514 88.2705 140.625 87.5393 140.658 86.8026C140.688 86.5564 140.628 86.3016 140.658 86.0598C140.74 85.5761 140.913 85.1011 140.952 84.6131C140.99 84.1251 140.826 83.7494 140.865 83.3175C140.904 82.8857 140.485 82.6611 140.762 82.2163C140.93 81.9485 140.809 81.508 140.831 81.1453C140.891 80.7507 140.925 80.3524 140.93 79.9533C140.809 78.4418 141.064 76.9303 140.68 75.4101C140.617 75.0587 140.617 74.6991 140.68 74.3477C140.832 73.1588 140.751 71.9515 140.442 70.7935C140.358 70.4679 140.254 70.1476 140.131 69.8347C140.025 69.6461 139.962 69.4367 139.946 69.2211C139.929 69.0056 139.96 68.7891 140.036 68.5866C140.107 68.4122 140.107 68.2169 140.036 68.0425C139.531 67.0449 139.678 65.935 139.475 64.8855C139.475 64.7948 139.509 64.6869 139.475 64.6092C138.926 63.3697 139.103 61.9144 138.322 60.7224C138.157 60.4644 138.07 60.1646 138.071 59.8587C138.096 59.1821 137.909 58.5147 137.536 57.9499C137.425 57.7622 137.345 57.5581 137.298 57.3452C137.082 56.5463 136.866 55.743 136.659 54.9397C136.611 54.7286 136.524 54.5281 136.404 54.3481C135.971 53.7053 135.66 52.9879 135.489 52.232C135.38 51.9547 135.235 51.6933 135.057 51.4547C134.927 51.2474 134.711 51.0573 134.668 50.8327C134.43 49.6062 133.528 48.6173 133.459 47.339C133.448 47.2458 133.417 47.1562 133.367 47.0763C133.318 46.9965 133.252 46.9285 133.174 46.8769C132.673 46.635 132.53 46.1427 132.31 45.7195C131.338 43.992 130.22 42.3553 129.188 40.6667C129.048 40.4662 128.88 40.286 128.691 40.1312C128.195 39.7628 127.848 39.2276 127.715 38.624C127.696 38.5497 127.662 38.48 127.615 38.4192C127.568 38.3583 127.51 38.3075 127.443 38.2699C126.938 38.0064 126.739 37.5357 126.467 37.0822C126.117 36.5844 125.719 36.1216 125.279 35.7003C125.158 35.5621 124.925 35.48 124.878 35.3332C124.623 34.5515 123.811 34.2276 123.457 33.5453C123.103 32.863 122.317 32.5908 121.932 31.9733C121.315 30.9843 120.261 30.4617 119.536 29.6023C119.499 29.5521 119.45 29.512 119.393 29.4857C118.369 29.0755 117.735 28.1901 116.905 27.525C116.57 27.256 116.207 27.0244 115.822 26.8341C114.903 26.3454 114.062 25.724 113.325 24.9901C113.013 24.743 112.684 24.5179 112.341 24.3163C112 24.0874 111.477 24.1264 111.317 23.6211C111.317 23.5909 111.179 23.5779 111.11 23.5779C110.781 23.5973 110.451 23.547 110.143 23.4302C109.835 23.3133 109.555 23.1325 109.322 22.8998C108.752 22.3298 107.97 22.1052 107.232 21.8202C106.933 21.721 106.644 21.5953 106.368 21.4445C105.805 21.0156 105.133 20.751 104.429 20.6801C104.256 20.6801 104.079 20.4814 103.915 20.3519C103.689 20.1385 103.421 19.9742 103.128 19.8694C102.835 19.7646 102.524 19.7215 102.214 19.7429C101.342 19.8516 100.46 19.6465 99.726 19.1642C99.4142 19.0245 99.0815 18.9369 98.7413 18.9051C98.4736 18.8533 98.2317 18.8057 98.4174 18.443C98.3492 18.4022 98.2768 18.3689 98.2015 18.3436C97.9208 18.7323 97.6055 18.6546 97.2168 18.4992C96.8908 18.4029 96.5545 18.3464 96.2149 18.3308L94.4875 18.1062C93.5244 17.9766 92.5872 17.7002 91.594 18.1062C91.1621 18.2703 90.5488 18.4127 90.1904 17.7995C90.161 17.7676 90.1247 17.743 90.0843 17.7273C90.0439 17.7115 90.0004 17.7052 89.9572 17.7088C88.951 17.8988 87.9361 17.6743 86.9039 17.9507C86.0402 18.1839 85.0469 18.5509 84.0838 18.1234C83.4447 18.3091 82.7365 18.1926 82.1621 18.646C81.9703 18.7797 81.75 18.8669 81.5186 18.9008C80.5426 19.0951 79.5234 18.9871 78.5776 19.4146C78.0588 19.601 77.5259 19.7454 76.984 19.8465C76.4572 19.989 76.021 20.3691 75.4077 20.3043C75.1832 20.3043 74.9414 20.5808 74.6866 20.6887C74.2755 20.889 73.8399 21.0342 73.391 21.1206C73.1908 21.1108 72.9919 21.1569 72.8164 21.2538C72.641 21.3506 72.496 21.4945 72.3977 21.6691C72.2508 21.9627 72.0176 21.9714 71.7067 21.98C71.484 21.957 71.2591 21.9887 71.0514 22.0722C70.8437 22.1558 70.6595 22.2886 70.5147 22.4593C70.2211 22.835 69.651 22.9819 69.1846 23.2367C68.6224 23.4758 68.0973 23.7943 67.6255 24.1824C67.3794 24.4459 67.0641 24.122 66.8828 24.4934C66.7705 24.7266 66.3645 24.8173 66.0925 24.9771L65.2287 25.491C65.2002 25.5013 65.1727 25.5144 65.1467 25.5299C64.4168 26.182 63.687 26.8255 62.9528 27.4862C62.7356 27.6916 62.5048 27.882 62.2618 28.0562C61.8861 28.3067 61.3981 28.4277 61.2772 28.9502C61.2469 29.0625 61.0397 29.123 60.9231 29.218C60.5793 29.4827 60.2546 29.7714 59.9514 30.0818C59.8592 30.2244 59.7304 30.3396 59.5785 30.4156C59.4265 30.4915 59.2571 30.5254 59.0877 30.5136C58.9083 30.5241 58.7371 30.5922 58.5996 30.7079C58.331 30.951 58.0421 31.1706 57.7359 31.3644C57.3732 31.5285 57.4466 31.8999 57.2349 32.1245C56.8031 32.5909 56.3453 33.0572 55.9394 33.5625C54.674 35.1993 53.3136 36.7713 52.2728 38.5721C52.1174 38.8356 51.9014 39.0645 51.733 39.3236C51.5041 39.6777 51.3011 40.0534 51.0636 40.4076C50.8261 40.7617 50.6317 41.051 50.4072 41.3663C50.3726 41.4181 50.3035 41.457 50.2905 41.5088C50.161 42.1048 50.0531 42.7138 49.3491 42.9383C49.3494 43.0166 49.3686 43.0937 49.4053 43.1629C49.6169 43.4609 49.3318 43.6724 49.2843 43.9229C49.2239 44.2381 49.0987 44.4498 48.7229 44.2511C48.63 44.3162 48.5592 44.4082 48.5199 44.5146C48.1838 45.8606 47.6971 47.1644 47.0689 48.4014C46.7752 48.9887 46.2829 49.4724 46.1836 50.1677C46.1404 50.47 45.9979 50.7593 45.959 51.0659C45.9568 51.2965 45.9029 51.5238 45.8013 51.7308C45.6996 51.9378 45.5528 52.1194 45.3717 52.2622C45.2464 52.3529 45.2119 52.5775 45.1428 52.7416C44.7455 53.6787 44.7109 54.7497 44.0976 55.6048C44.0352 55.7148 44.0167 55.8445 44.0458 55.9676C44.2272 56.8313 43.8126 57.5309 43.614 58.2953C43.6013 58.3452 43.5777 58.3917 43.5448 58.4313C43.512 58.4709 43.4707 58.5026 43.424 58.5242C43.3615 58.5297 43.3016 58.5518 43.2505 58.5881C43.1993 58.6244 43.1587 58.6735 43.1328 58.7306C43.1069 58.7877 43.0966 58.8507 43.103 58.913C43.1094 58.9754 43.1322 59.035 43.1691 59.0856C43.6528 59.7766 43.2944 60.4546 43.1691 61.1197C43.0587 61.5033 42.9142 61.8762 42.7373 62.2339C42.5953 62.5008 42.5142 62.7958 42.4998 63.0977C42.5948 63.8621 42.3141 64.5487 42.1629 65.257C42.0959 65.5212 42.0583 65.792 42.0506 66.0645C42.083 66.7945 41.991 67.5247 41.7785 68.2238C41.6584 68.7914 41.6062 69.3713 41.6231 69.9513C41.5713 70.9575 41.5583 71.9681 41.4978 72.9743C41.4374 73.9806 41.4288 75.0387 41.4244 76.0752C41.4244 77.5219 41.826 78.9384 41.6058 80.3938C41.5065 81.0589 41.7872 81.7887 41.9081 82.484C42.085 83.2778 42.1719 84.0891 42.1672 84.9024C42.1554 85.3984 42.2181 85.8933 42.353 86.3707C42.6558 87.6159 42.8009 88.8941 42.7848 90.1755C42.7772 90.2658 42.7875 90.3569 42.815 90.4433C43.4715 91.9764 43.7263 93.626 44.1668 95.2239C44.3827 96.0056 44.5295 96.8478 45.1471 97.4654C45.2637 98.761 46.2743 99.698 46.4427 100.963C46.5299 101.69 46.7144 102.402 46.9912 103.08C47.423 104.185 47.816 105.317 48.5934 106.284C48.9549 106.843 49.245 107.445 49.4571 108.076C49.7767 108.776 49.889 108.854 50.5454 108.819C52.031 108.746 53.5166 108.702 54.9935 108.569C56.3453 108.443 57.6884 108.21 59.0315 108.02C59.1541 108 59.2743 107.966 59.3899 107.921C60.4653 107.532 61.5492 107.169 62.6159 106.746C64.5291 105.986 66.5848 105.606 68.4202 104.621C68.8446 104.475 69.2772 104.354 69.7158 104.259C70.2902 104.038 70.8343 103.749 71.4 103.494C71.5669 103.411 71.7441 103.35 71.9269 103.313C72.6073 103.146 73.2503 102.853 73.8228 102.449C75.053 101.746 76.3563 101.18 77.7096 100.76C78.6597 100.471 79.6011 100.169 80.5339 99.8277C80.6464 99.7754 80.7656 99.7391 80.8881 99.7197C82.6156 99.5858 84.248 98.938 85.9452 98.64C86.6289 98.5297 87.3217 98.4863 88.0138 98.5105C88.5452 98.4578 89.0539 98.2689 89.4908 97.962C89.9029 97.6874 90.2864 97.372 90.6352 97.0205C90.9721 96.7596 91.3501 96.5567 91.7537 96.4202C92.3845 96.1003 92.9844 95.723 93.546 95.2931C93.7706 95.1463 93.6885 95.0124 93.546 94.8396C93.0364 94.2005 92.5138 93.5699 92.0518 92.8962C91.6588 92.3175 91.3435 91.6784 90.9894 91.0695C90.6353 90.4605 90.5575 89.8732 90.0695 89.3679C89.819 89.0113 89.7126 88.5732 89.7715 88.1414C89.7654 87.5291 89.6768 86.9205 89.5081 86.3319C89.4218 85.8811 89.4218 85.418 89.5081 84.9672C89.7413 84.0214 90.1386 83.1145 90.3718 82.1644C90.605 81.2143 91.1103 80.5579 91.4385 79.7417C91.8704 78.6534 92.1597 77.509 92.5398 76.3991C92.7772 75.6903 93.054 74.9954 93.3689 74.3175C93.622 73.8999 93.7702 73.4272 93.8008 72.9398C93.8008 72.1279 94.2802 71.4715 94.7682 70.8712C94.9631 70.647 95.2252 70.4918 95.5155 70.4288C95.8058 70.3658 96.1087 70.3982 96.379 70.5214C97.748 70.9964 99.1041 71.5147 100.451 72.0502C100.762 72.1711 100.948 72.1279 101.039 71.8515C101.161 71.3061 101.43 70.8044 101.816 70.4004C101.877 70.3529 101.881 70.2278 101.89 70.1371C101.937 69.2733 102.468 68.591 102.874 67.8655C103.28 67.1399 103.699 66.3668 104.118 65.624C104.207 65.4261 104.333 65.2471 104.489 65.0971C105.144 64.5928 105.676 63.946 106.044 63.2056C106.077 63.1184 106.134 63.0421 106.208 62.9854C106.934 62.5967 107.478 61.9359 108.195 61.5559C109.015 61.1457 109.858 60.7852 110.721 60.4762C111.04 60.3757 111.372 60.3248 111.706 60.3251C112.815 60.2174 113.935 60.2961 115.018 60.5583C116.439 60.9469 117.562 61.7545 118.706 62.6139C119.05 62.9564 119.341 63.348 119.57 63.7757C119.926 64.2831 120.234 64.8223 120.49 65.3866C120.598 65.6081 120.65 65.8528 120.641 66.0991C120.64 66.7769 120.591 67.4537 120.494 68.1245C120.283 69.1364 120.149 70.1629 120.093 71.1951C120.095 71.2253 120.095 71.2556 120.093 71.2858C120.032 71.5276 119.371 71.4844 119.812 71.994C119.959 72.1624 119.877 72.6116 119.773 72.888C119.488 73.6567 119.574 74.5118 119.121 75.2503C118.814 75.8131 118.553 76.3994 118.339 77.0036C118.188 77.375 118.654 77.7464 119.229 77.7205C119.515 77.7237 119.796 77.7896 120.054 77.9134C120.311 78.0373 120.538 78.2162 120.719 78.4375C120.81 78.5757 121.151 78.7225 120.818 78.96C120.883 79.0334 120.943 79.1759 121.008 79.1759C121.218 79.1708 121.427 79.1419 121.63 79.0896C122.602 78.8521 123.357 79.5214 123.064 80.4931C122.852 81.1798 122.77 81.9355 122.174 82.4883C121.898 82.8099 121.691 83.1847 121.565 83.5896C121.177 84.5224 120.835 85.4725 120.438 86.401C120.253 86.7509 120.04 87.0859 119.803 87.4029C119.268 88.2364 118.715 89.057 118.21 89.9034C118.024 90.2144 117.998 90.6246 117.804 90.9269C117.277 91.7604 116.698 92.5636 116.141 93.3799C116.042 93.5267 115.882 93.6736 115.86 93.8333C115.759 94.2546 115.535 94.6364 115.217 94.9303C114.826 95.4502 114.305 95.8571 113.705 96.1093C112.63 96.5411 111.853 97.4048 110.838 97.9274C109.257 98.7134 107.741 99.7153 105.863 99.6548C105.401 99.6548 105.392 99.7327 105.496 100.264C105.576 100.595 105.591 100.938 105.539 101.274C105.515 101.348 105.506 101.426 105.512 101.503C105.518 101.58 105.54 101.656 105.576 101.724C105.612 101.793 105.661 101.854 105.72 101.904C105.78 101.953 105.849 101.99 105.923 102.013C106.904 102.445 107.862 103.045 108.894 103.265C109.758 103.442 110.281 104.056 111.054 104.272C111.29 104.348 111.494 104.5 111.637 104.703C112.017 105.279 112.368 105.855 112.691 106.431C113.217 107.403 112.833 108.227 112.194 108.979C111.622 109.59 110.915 110.058 110.13 110.348C110.019 110.41 109.892 110.433 109.767 110.413C108.834 110.084 107.802 110.244 106.895 109.761C106.346 109.492 105.779 109.262 105.198 109.074C105.085 109.035 104.926 109.108 104.766 109.134C104.801 109.238 104.848 109.338 104.904 109.432C105.045 109.636 105.212 109.82 105.401 109.981C106.428 110.728 106.86 111.894 107.43 112.939C107.782 113.631 108.002 114.382 108.078 115.154C108.116 115.651 107.974 116.145 107.677 116.545C106.86 117.577 105.863 118.333 104.403 118.026C103.88 117.918 103.816 117.996 103.889 118.519C103.889 118.674 103.963 118.821 103.997 118.951C104.429 120.769 103.63 122.28 102.74 123.731C102.518 124.032 102.233 124.28 101.905 124.458C101.576 124.636 101.213 124.741 100.84 124.763C99.6936 124.971 98.5246 125.026 97.3636 124.927C97.0268 124.893 96.5992 125.001 96.4999 124.444C96.4999 124.362 95.9774 124.254 95.796 124.345C95.7103 124.406 95.6076 124.439 95.5023 124.439C95.397 124.439 95.2943 124.406 95.2086 124.345C94.8718 124.133 94.5566 123.878 94.2024 123.697C93.6953 123.455 93.2866 123.046 93.045 122.539C93.0214 122.456 92.9783 122.381 92.9194 122.318C92.8604 122.255 92.7873 122.207 92.7062 122.179C92.625 122.15 92.5382 122.141 92.4529 122.153C92.3676 122.164 92.2863 122.196 92.2159 122.246C91.789 122.423 91.3761 122.632 90.9807 122.872C90.7455 123.064 90.5664 123.316 90.4625 123.602C90.0306 124.681 89.6203 125.761 89.1669 126.854C89.0589 127.104 89.128 127.186 89.3051 127.285C89.4878 127.391 89.6783 127.482 89.8751 127.558C90.3416 127.713 90.8123 127.847 91.2787 127.989C91.7738 128.14 92.261 128.316 92.7384 128.516C93.3105 128.754 93.8598 129.043 94.3795 129.38C94.9452 129.764 95.0921 131.151 94.6256 131.669C94.3795 131.945 93.9563 132.058 93.6756 132.308C93.2826 132.662 92.9543 132.442 92.5786 132.308C90.7389 131.639 88.8905 131.012 87.0465 130.33C86.498 130.131 85.9668 129.898 85.4183 129.674C84.9858 129.506 84.5447 129.362 84.0968 129.242C83.6076 129.176 83.1468 128.974 82.7667 128.659C82.5099 128.481 82.2134 128.368 81.903 128.331C80.988 128.143 80.1371 127.722 79.4327 127.108C79.1537 126.832 78.9551 126.485 78.8585 126.105C78.7618 125.725 78.7708 125.325 78.8842 124.949C78.9466 124.783 79.0489 124.635 79.1822 124.517C79.5454 124.227 79.9893 124.057 80.4532 124.029C80.917 124.001 81.3781 124.117 81.7734 124.362C82.2983 124.685 82.8436 124.973 83.4058 125.225C83.8809 125.446 84.3775 125.623 84.8655 125.809C85.0988 125.899 85.3708 126.003 85.5177 125.701C85.807 125.1 86.0877 124.491 86.3339 123.874C86.5801 123.256 86.511 123.092 85.7941 122.984C85.6429 122.963 85.4831 122.984 85.3276 122.984C84.4584 122.963 83.611 122.708 82.8747 122.246C82.5195 121.964 82.0976 121.778 81.6497 121.707C81.2018 121.636 80.7431 121.682 80.318 121.84C79.9956 121.934 79.6558 121.953 79.3248 121.896C78.927 121.833 78.5205 121.856 78.132 121.961C77.7434 122.067 77.3816 122.254 77.0704 122.509C76.5213 122.975 75.8209 123.224 75.1011 123.209C74.9214 123.193 74.7405 123.217 74.571 123.279C74.4016 123.341 74.2479 123.439 74.1208 123.567C73.8263 123.878 73.4854 124.142 73.1102 124.349C72.3588 124.699 71.7714 125.381 70.8775 125.441C70.7575 125.472 70.6426 125.52 70.5363 125.584C69.1155 126.193 67.699 126.806 66.2738 127.406C66.0475 127.505 65.8096 127.575 65.5656 127.614C64.8487 127.726 64.8185 127.713 64.7364 128.374C64.4859 130.296 63.8727 132.122 63.3587 133.988C63.263 134.426 63.1894 134.868 63.1385 135.314C62.8707 136.951 62.5943 138.583 62.3439 140.224C62.2619 140.619 62.2619 141.026 62.3439 141.42C62.477 142.022 62.4652 142.647 62.3093 143.243C62.1792 143.856 62.1355 144.484 62.1798 145.108C62.2675 146.451 62.2517 147.798 62.1323 149.138C62.0804 149.868 61.8645 150.585 62.0977 151.297C61.5752 151.979 62.1236 152.636 62.1452 153.305C62.1679 153.881 62.1578 154.458 62.115 155.033C62.0454 155.609 62.1366 156.194 62.3784 156.721C62.4652 156.921 62.5149 157.134 62.5253 157.352C62.675 158.944 62.8189 160.538 62.9571 162.133C62.964 162.35 62.9452 162.567 62.901 162.78C62.8276 163.294 62.7282 163.368 62.1884 163.294C61.925 163.255 61.5665 163.294 61.4283 163.13C61.0388 162.699 60.7143 162.213 60.4653 161.688C60.1393 160.921 59.8666 160.134 59.649 159.33C59.4547 158.656 59.3338 157.956 59.2172 157.261C59.0686 156.57 58.9604 155.87 58.8933 155.167C58.858 154.494 58.8768 153.819 58.9494 153.15C59.0437 152.609 58.9588 152.053 58.7076 151.565C58.604 151.392 58.6385 151.133 58.5737 150.939C58.3923 150.39 58.6212 149.872 58.6428 149.345C58.6644 148.818 58.3448 148.378 58.5737 147.825C58.6515 147.5 58.6515 147.161 58.5737 146.836C58.3837 145.26 58.9581 143.731 58.8415 142.163C58.6986 140.872 58.8462 139.564 59.2733 138.337C59.2971 138.246 59.2971 138.151 59.2733 138.061C59.0013 136.666 59.4677 135.37 59.8348 134.066C59.9643 133.634 59.8348 133.055 60.2666 132.697C60.2666 132.675 60.2666 132.546 60.2148 132.481C60.075 132.259 60.0155 131.996 60.0462 131.736C60.0768 131.476 60.1958 131.234 60.3832 131.051C60.4437 130.982 60.5387 130.905 60.5473 130.827C60.5819 130.231 60.5473 129.613 61.0829 129.19C60.9749 129.082 60.8799 128.909 60.7503 128.879C60.15 128.737 59.6145 129.06 59.066 129.203C58.4055 129.374 57.7302 129.481 57.0492 129.523C56.2287 129.57 55.4168 129.838 54.6006 129.838C53.0847 129.838 51.5775 130.27 50.0531 129.868C48.6452 129.484 47.1984 129.233 45.769 128.918C45.6492 128.891 45.5322 128.853 45.4192 128.806C44.8575 128.541 44.2615 128.356 43.6485 128.257C43.0146 128.143 42.3997 127.941 41.8217 127.657C41.1415 127.369 40.4858 127.027 39.8611 126.633C39.2169 126.189 38.5225 125.822 37.7925 125.541C37.0611 125.217 36.3907 124.77 35.8102 124.219C35.2704 123.762 34.7305 123.317 34.1778 122.876C33.2017 122.103 32.148 121.343 31.5866 120.138C31.5234 119.935 31.4089 119.752 31.254 119.607C30.7955 119.291 30.4218 118.867 30.1657 118.372C29.79 117.715 29.3971 117.076 29.0127 116.407C28.2613 115.111 27.933 113.643 27.2852 112.317C26.6072 110.883 26.5295 109.342 26.0501 107.886C25.6939 106.77 25.5217 105.603 25.5405 104.431C25.5405 103.999 25.7564 103.598 25.4109 103.136C25.195 102.838 25.3677 102.242 25.4109 101.784C25.48 100.661 25.3116 99.5426 25.5448 98.4111C25.778 97.2797 25.791 96.0834 25.9119 94.9173C25.9421 94.615 26.0198 94.3171 26.063 94.0148C26.1062 93.7125 26.1235 93.4879 26.1624 93.2245C26.1764 92.828 26.2462 92.4355 26.3697 92.0584C26.8836 91.0177 27.2334 89.9725 26.9354 88.7979C26.9376 88.6475 26.9746 88.4997 27.0434 88.366C27.3543 87.3554 27.661 86.3449 27.9849 85.3429C28.1148 84.7968 28.4051 84.302 28.8183 83.9221C28.9926 83.7464 29.1279 83.536 29.2157 83.3046C29.9671 81.711 30.7013 80.1131 31.4484 78.5195C31.85 77.6558 32.243 76.792 32.6749 75.9283C33.0117 75.2719 33.3875 74.6327 33.7675 73.9979C34.3062 72.9913 34.9092 72.0205 35.5727 71.0915C36.1859 70.3141 36.7301 69.4245 37.7838 69.066C38.4316 68.8458 38.7944 67.9691 38.6475 67.1917C38.5023 66.6504 38.5341 66.0769 38.7382 65.5549C38.8638 65.1151 38.9449 64.6637 38.9801 64.2076C39.1205 63.7754 39.2146 63.3295 39.2608 62.8774C39.2219 61.4307 39.6927 60.0875 40.0166 58.7185C40.4139 57.0386 40.9278 55.3889 41.3726 53.7176C41.4417 53.4542 41.7656 53.1259 41.3726 52.9013C40.9796 52.6768 40.8069 53.0612 40.5909 53.2598C40.3542 53.5005 40.1362 53.759 39.9388 54.0329C39.7102 54.3923 39.4516 54.7318 39.1658 55.0477C38.2721 55.8935 37.3336 56.6907 36.3544 57.4359C35.2445 58.2392 34.316 59.3232 32.9426 59.7551C32.7003 59.8864 32.4704 60.0396 32.256 60.2129C31.8814 60.4864 31.462 60.6924 31.0165 60.8217C30.4082 60.9374 29.8399 61.2081 29.3668 61.6078C29.0536 61.9085 28.635 62.0743 28.2008 62.0698C27.9676 62.0698 27.7128 62.2771 27.4666 62.3937C27.2204 62.5606 26.9492 62.6874 26.6633 62.7694C26.3481 62.804 26.076 62.7305 25.9897 63.1624C25.9897 63.2747 25.6959 63.3784 25.5232 63.4172C24.5935 63.6501 23.704 64.0214 22.8845 64.5185C22.6673 64.6413 22.4252 64.7136 22.1763 64.7301C21.8844 64.7042 21.5903 64.7378 21.3119 64.8291C21.0335 64.9205 20.7766 65.0675 20.5568 65.2613C20.4618 65.3563 20.2674 65.3434 20.1249 65.3779C19.5635 65.5118 18.9891 65.6111 18.4406 65.7882C17.7799 65.9998 17.1192 65.7882 16.4627 65.8832C16.0133 65.9086 15.5669 65.9721 15.1283 66.0732C14.286 66.2849 13.4282 66.4293 12.563 66.505C12.2875 66.5155 12.0128 66.47 11.7554 66.3712C11.4419 66.2488 11.1038 66.2025 10.7689 66.2363C10.4341 66.2701 10.112 66.3829 9.82931 66.5655C9.72566 66.6346 9.60474 66.7296 9.50109 66.721C7.94638 66.6087 6.39166 66.4878 4.84559 66.3453C4.70739 66.3453 4.56488 66.1509 4.46555 66.0171C4.36622 65.8832 4.26689 65.8313 4.03369 65.9782C3.7357 66.1811 3.39455 65.9781 3.2434 65.6327C3.2095 65.5642 3.19158 65.4889 3.19099 65.4125C3.19041 65.3361 3.20718 65.2604 3.24002 65.1914C3.27287 65.1224 3.32094 65.0618 3.38062 65.0141C3.4403 64.9663 3.51004 64.9327 3.58458 64.9158C4.08596 64.7679 4.59667 64.6539 5.11334 64.5746C6.54281 64.3457 7.98092 64.1427 9.43198 63.9311C9.91998 63.862 10.4166 63.8664 10.896 63.7844C11.3754 63.7023 11.9498 63.5166 12.4853 63.4129C13.6254 63.184 14.7655 62.9811 15.9099 62.7694C16.5816 62.6985 17.24 62.5342 17.8663 62.2814C18.4501 62.081 19.0517 61.9364 19.6628 61.8495C20.2367 61.746 20.7962 61.575 21.3298 61.34C21.7594 61.0747 22.2675 60.9664 22.7679 61.0334C22.8816 61.0456 22.9966 61.029 23.1023 60.9853C23.2079 60.9415 23.3008 60.8719 23.3725 60.7828C23.8206 60.4389 24.3077 60.149 24.8236 59.9191C24.8797 59.8889 24.9445 59.8846 24.9963 59.8544C25.4936 59.4995 26.0262 59.197 26.5856 58.9517C27.1508 58.8007 27.6876 58.5586 28.1749 58.2349C28.7252 57.8393 29.3427 57.5467 29.9973 57.3712C30.861 57.125 31.6557 56.7795 32.1566 55.9719C32.2745 55.8361 32.4223 55.7297 32.5885 55.661C33.1542 55.3501 33.7286 55.0563 34.2944 54.7368C34.5535 54.5899 34.8515 54.456 34.8817 54.076C34.8817 53.9767 35.0113 53.8687 35.102 53.7953C36.5876 52.6509 37.8054 51.2041 39.2478 50.0208C39.6797 49.6538 40.1763 49.3255 40.5952 48.9282C41.5422 47.9533 42.552 47.0416 43.6183 46.1988C44.0533 45.8343 44.4203 45.3957 44.7023 44.9032C45.3448 43.9688 45.9359 43 46.4729 42.0011C46.8961 41.0853 47.396 40.207 47.9672 39.3755C48.1486 39.1293 48.2306 38.8183 48.399 38.5549C48.5855 38.2467 48.7918 37.951 49.0166 37.6695C49.3664 37.2376 49.7637 36.8447 50.1049 36.4042C50.7095 35.6311 51.2838 34.8365 51.8669 34.0505L52.2555 33.528C52.5103 33.1825 52.6874 32.6643 53.0372 32.5347C53.3871 32.4051 53.3611 31.7185 53.901 31.9128C53.9295 31.9098 53.9558 31.8958 53.9744 31.8739C54.0694 31.0102 54.8381 30.6907 55.2699 30.0861C55.3479 29.9333 55.4045 29.7705 55.4384 29.6023C55.2613 29.6023 55.0454 29.5462 54.9115 29.6283C54.0132 30.1854 52.8256 30.1033 52.0353 30.9239C51.9705 30.993 51.733 30.8634 51.6034 30.9239C51.0809 31.1657 50.5022 31.2737 50.0444 31.6753C49.5756 32.0577 49.024 32.3254 48.4336 32.457C48.186 32.4967 47.9519 32.596 47.7512 32.7463C47.0948 33.3941 46.2224 33.6403 45.4148 33.9642C44.9092 34.1358 44.434 34.3865 44.007 34.707C43.4791 35.1106 42.8977 35.4391 42.2795 35.683C41.9316 35.7976 41.597 35.9497 41.2819 36.1365C40.85 36.3913 40.4182 36.7022 39.9863 36.957C38.5266 37.7775 37.0928 38.6499 35.5813 39.3668C34.8428 39.7166 34.2857 40.2866 33.5645 40.6192C32.7987 41.036 32.0879 41.5467 31.4484 42.1393C31.2544 42.2913 31.0371 42.4109 30.8049 42.4935C30.3262 42.6443 29.9016 42.9308 29.5827 43.3183C28.9608 44.1129 28.0324 44.4843 27.2205 45.0198C27.0345 45.093 26.8277 45.093 26.6418 45.0198C26.5122 44.981 26.5208 44.8947 26.4431 45.102C26.1414 45.7589 25.6144 46.2859 24.9575 46.5876C24.7365 46.6954 24.5464 46.8573 24.4047 47.0582C23.8229 47.8775 23.0585 48.5503 22.1719 49.0232C21.6841 49.3413 21.2373 49.7185 20.8418 50.1461C20.2199 50.7378 19.5462 51.2862 18.9071 51.8476C18.7865 51.9371 18.6543 52.0097 18.5141 52.0635C18.4018 52.1111 18.2204 52.0938 18.1686 52.1715C17.9718 52.5018 17.6665 52.7535 17.3049 52.884C16.9292 53.0266 16.6657 53.4412 16.3289 53.709C15.992 53.9767 15.6681 54.1667 15.3485 54.4042C15.029 54.6417 14.6792 54.9484 14.3293 55.1989C13.7291 55.6307 13.1287 56.0626 12.5068 56.4599C12.3773 56.5463 12.075 56.5765 12.0232 56.5031C11.9652 56.4248 11.9257 56.3344 11.9078 56.2387C11.8898 56.1429 11.8938 56.0443 11.9195 55.9503C12.2477 55.3716 12.6278 54.8232 13.0078 54.2747C13.466 53.5576 13.9664 52.8683 14.5064 52.2104C15.0462 51.6058 15.4695 50.8327 16.372 50.6254C16.6959 50.552 16.7737 49.9517 17.2833 50.1935C17.3437 50.2238 17.564 50.0338 17.3264 49.8826C16.8687 49.5889 17.0932 49.4508 17.4301 49.2478C17.8692 48.9435 18.2707 48.5884 18.6264 48.1897C19.4124 47.4599 20.2372 46.7646 21.0491 46.0607C21.1873 45.9398 21.3816 45.862 21.481 45.7195C22.0401 44.9704 22.7681 44.3637 23.6058 43.9488C23.9864 43.7125 24.3202 43.408 24.5904 43.0506C25.0223 42.5281 25.7176 42.2171 26.3179 41.8371C26.3481 41.8155 26.5122 42.0011 26.6115 42.1004C26.6738 42.1685 26.7315 42.2407 26.7843 42.3164C26.8294 42.2537 26.863 42.1835 26.8836 42.1091C26.9656 41.0208 27.7084 40.481 28.5462 39.9498C29.2745 39.5461 29.9335 39.0285 30.4983 38.4166C30.7315 38.1446 31.0813 37.6653 31.7162 37.8466C31.9666 37.9157 32.4546 37.6048 32.636 37.3328C32.9295 36.9766 33.3105 36.7028 33.7416 36.5381C34.4498 36.1624 35.184 35.8471 35.9009 35.4844C36.1198 35.3414 36.3289 35.1841 36.5271 35.0136C36.7147 34.8571 36.9224 34.7264 37.1447 34.625C38.6475 34.111 39.8784 33.122 41.2042 32.3015C41.256 32.2713 41.2949 32.1935 41.3467 32.1849C42.5127 31.9862 43.2426 30.9281 44.3697 30.6604C44.8016 30.5611 45.0737 29.9608 45.6092 30.3797C45.6092 30.3797 45.7085 30.3279 45.7603 30.2934C46.9157 29.5285 48.1302 28.8569 49.3923 28.2851C50.3122 27.8533 51.2407 27.4215 52.1908 27.0717C52.5578 26.9292 52.8558 26.5879 53.2272 26.4757C53.3957 26.4281 53.6937 25.6637 53.901 26.4757C54.2452 26.4235 54.5817 26.3293 54.9029 26.195C55.615 25.7888 56.4239 25.5828 57.2436 25.599C57.4575 25.581 57.6665 25.5255 57.8611 25.4349C58.4096 25.2449 58.9235 24.9511 59.5497 25.2448C59.6824 25.2605 59.8169 25.2462 59.9432 25.2028C60.0696 25.1595 60.1845 25.0883 60.2795 24.9944C60.8143 24.4587 61.4384 24.0203 62.1236 23.6988C62.2721 23.6475 62.4088 23.5667 62.5253 23.4613C63.5747 22.2866 64.9912 21.6561 66.3214 20.8701C66.344 20.8541 66.3656 20.8368 66.3861 20.8182L67.2067 20.1013C66.8439 20.0538 66.4854 19.9761 66.1227 19.9545C64.6111 19.8595 63.0996 19.8509 61.5968 19.6825C60.0939 19.514 58.6083 19.8207 57.114 19.9157C56.2367 20.03 55.3483 20.03 54.471 19.9157C53.4307 19.7072 52.3582 19.719 51.3227 19.9503C50.0703 20.2439 48.7661 20.3 47.5007 20.5505C45.5746 20.9392 43.6557 21.371 41.744 21.8461C40.565 22.1398 39.4206 22.5587 38.2588 22.9171C38.2329 22.9171 38.1898 22.9171 38.1682 22.9171C37.2094 23.526 36.2334 24.1047 35.3092 24.7612C34.8774 25.0635 34.3937 25.0418 33.9705 25.2534C33.1327 25.6853 32.2775 26.0697 31.4613 26.549C30.4508 27.1191 29.302 27.5942 28.5247 28.3931C27.8337 29.0927 26.9225 29.2914 26.2401 29.9219C25.5752 30.5631 24.8523 31.1414 24.0808 31.6494C23.2552 32.1847 22.4932 32.8121 21.8092 33.5194C21.4464 33.8778 21.1485 34.301 20.7986 34.6724C20.5654 34.9143 20.289 35.1043 20.0386 35.3288C19.343 35.8437 18.6968 36.422 18.1081 37.0563C17.3593 37.9962 16.5515 38.8876 15.6897 39.7252C15.4533 39.9711 15.2566 40.2524 15.1067 40.5588C14.6637 41.2909 14.1265 41.9617 13.5088 42.5539C13.1222 43.0916 12.6994 43.6024 12.2434 44.0827C11.1335 45.0458 10.6801 46.4191 9.86816 47.5592C8.87056 48.9542 8.05866 50.47 7.01355 51.8346C6.54009 52.5584 6.10755 53.3081 5.71796 54.0803C5.09608 55.1125 4.45261 56.1317 3.83505 57.1639C3.21748 58.196 2.57835 59.3578 1.91328 60.4288C1.4555 61.163 0.937241 61.8582 0.431962 62.5622C0.375819 62.6356 0.194422 62.7133 0.146917 62.6788C0.100062 62.6428 0.0623547 62.5963 0.0368426 62.543C0.0113304 62.4897 -0.00125261 62.4312 9.83509e-05 62.3722C0.11759 61.6218 0.290793 60.8812 0.518313 60.1567C0.868122 59.2066 1.07977 58.2219 1.41662 57.2762C1.69301 56.4988 1.96941 55.7171 2.28035 54.9657C2.78563 53.8342 3.32545 52.72 3.89119 51.6187C4.11576 51.1869 4.48718 50.8413 4.72471 50.4181C5.05724 49.8308 5.31204 49.2003 5.64026 48.6086C5.80804 48.3254 6.01768 48.0691 6.26212 47.8486C6.40363 47.7524 6.52017 47.624 6.60204 47.4737C6.68391 47.3235 6.72873 47.1559 6.73283 46.9848C6.73283 46.7948 6.8883 46.5919 6.99626 46.4019C7.2381 45.97 7.49295 45.5381 7.74343 45.1278C7.78579 45.0443 7.83337 44.9636 7.88592 44.886C8.05867 44.6701 8.23142 44.4541 8.42575 44.2511C8.62009 44.0481 8.98717 43.8193 8.96126 43.7718C8.77124 43.3874 9.16855 43.2277 9.22901 42.947C9.32781 42.6913 9.47437 42.4568 9.66088 42.256C9.79019 42.0071 9.96109 41.7822 10.1662 41.5909C10.7751 41.159 11.0299 40.4809 11.4618 39.9281C11.9437 39.2966 12.4735 38.7033 13.0467 38.1532C13.3736 37.8256 13.6398 37.4424 13.8327 37.0217C14.2646 36.0932 15.0635 35.4886 15.8236 34.8624C16.3263 34.4567 16.776 33.9896 17.1623 33.4718C17.6032 32.7676 18.2153 32.1867 18.9416 31.7833C19.135 31.6842 19.3056 31.546 19.4426 31.3773C20.1256 30.5345 20.9462 29.8131 21.8697 29.2439C22.2367 29.0236 21.9862 28.8898 21.8005 28.8379C21.2384 28.6441 20.6604 28.4996 20.0731 28.4061C18.8195 28.2222 17.5973 27.8662 16.4412 27.348C15.5774 26.9982 14.7137 26.7737 13.85 26.4066C12.5933 25.8538 11.3797 25.2189 10.1402 24.6359C8.70645 23.9665 7.60088 22.8351 6.30961 21.9713C5.63795 21.4394 5.0294 20.8323 4.49581 20.1619C4.44593 20.0913 4.41166 20.0108 4.39528 19.9259C4.37889 19.841 4.38079 19.7536 4.40081 19.6695C4.40081 19.5874 4.66421 19.5011 4.79377 19.5141C5.13352 19.5492 5.46909 19.6172 5.79572 19.717C6.75014 20.0107 7.69591 20.3345 8.65033 20.6325C8.93968 20.7232 9.24195 20.7707 9.53562 20.8571C9.82166 20.9424 10.1028 21.0433 10.3778 21.1594C10.6661 21.2548 10.9383 21.3932 11.1854 21.5697C11.4488 21.7857 11.9843 21.7382 11.9843 21.7814C11.9843 22.2132 12.3341 22.1312 12.5328 22.2132C12.8049 22.3298 13.1417 22.3039 13.3965 22.4335C13.9622 22.7142 14.4891 23.0769 15.0505 23.3749C15.9798 23.8521 16.9551 24.2341 17.9613 24.515C18.6652 24.7266 19.3303 25.0635 20.0213 25.3226C20.3927 25.4608 20.7814 25.5514 21.1614 25.6767C21.5414 25.8019 21.7401 26.087 22.1504 25.9574C22.2627 25.9229 22.4311 26.0524 22.5822 26.1172C22.7334 26.182 22.8802 26.3461 22.9882 26.3159C23.3013 26.2278 23.6338 26.2363 23.942 26.3404C24.2503 26.4444 24.5199 26.639 24.7156 26.8989C24.7502 26.9377 24.9273 26.8989 25.0136 26.8341C25.3199 26.695 25.6014 26.5068 25.8471 26.277C26.1051 25.9333 26.4772 25.6928 26.8966 25.599C26.9877 25.5886 27.0721 25.5457 27.134 25.478C27.6911 24.5711 28.7233 24.2948 29.5439 23.7938C30.5468 23.1646 31.5818 22.588 32.6446 22.0663C33.625 21.5999 34.6442 21.2026 35.6375 20.7708C36.0693 20.5851 36.4537 20.3389 36.8856 20.2007C37.5852 19.9545 38.3064 19.7688 39.0146 19.5529C39.4465 19.4147 39.8783 19.2635 40.3102 19.121C40.3432 19.1011 40.37 19.0724 40.3875 19.038C40.4051 19.0037 40.4127 18.9651 40.4096 18.9267C40.375 18.8317 40.2584 18.6675 40.2152 18.6805C39.4422 18.8921 38.8289 18.0629 38.0559 18.3436C37.8174 18.3932 37.5736 18.4121 37.3304 18.3998C37.149 18.3998 36.9374 18.5077 36.7862 18.443C35.8966 18.0629 34.9724 18.2616 34.0611 18.2357C32.8347 18.2054 31.6038 18.3523 30.386 18.0759C30.1998 18.0665 30.0146 18.1083 29.8505 18.1969C29.5784 18.3005 29.3322 18.3998 29.0904 18.1234C29.0256 18.05 28.8615 18.0414 28.7406 18.0414C28.0561 18.0846 27.3695 18.0846 26.6849 18.0414C25.8976 17.9523 25.1019 17.9669 24.3183 18.0846C23.6438 18.0862 22.9713 18.0094 22.3145 17.8557C21.9259 17.8453 21.5395 17.7946 21.1614 17.7045C20.7295 17.5533 20.2675 17.9205 19.7751 17.5447C19.4685 17.3115 18.8466 17.5189 18.3716 17.467C18.069 17.4243 17.7764 17.3277 17.5079 17.1819C17.4483 17.1397 17.4005 17.0832 17.3688 17.0175C17.3371 16.9518 17.3225 16.8791 17.3264 16.8063C17.3556 16.7405 17.3996 16.6825 17.4551 16.6367C17.5106 16.591 17.5759 16.5588 17.646 16.5428C18.5961 16.396 19.5462 16.2794 20.4963 16.1455C20.9541 16.0807 21.4076 15.9857 21.8697 15.9339C22.1934 15.8886 22.5219 15.8886 22.8457 15.9339C23.5842 16.0678 24.2967 15.6402 25.0438 15.8734C25.2166 15.9252 25.4757 15.7741 25.6614 15.7093C26.0899 15.5385 26.5613 15.5068 27.0088 15.6187C27.3696 15.6826 27.7406 15.6558 28.0885 15.5408C28.6034 15.4533 29.1276 15.4345 29.6475 15.4848C30.2435 15.4848 30.887 15.7914 31.47 15.3725C31.5304 15.3293 31.647 15.3725 31.742 15.3725L34.1389 15.2818C34.6269 15.2818 35.0804 15.1435 35.5813 15.4242C35.8534 15.5797 36.3241 15.3638 36.7041 15.3509C37.1619 15.3509 37.6197 15.3509 38.0732 15.3509C38.3064 15.3509 38.6778 15.1954 38.7425 15.2861C39.1744 15.8821 39.7099 15.3897 40.1807 15.4588C41.031 15.5293 41.885 15.5438 42.7373 15.502C43.506 15.502 44.292 15.3034 45.0823 15.5798C45.5142 15.7309 46.054 15.5366 46.5334 15.5798C47.2593 15.6548 47.9802 15.7716 48.6927 15.9296C50.2517 16.2621 51.8107 16.1455 53.3784 16.0505C53.5574 16.009 53.7435 16.009 53.9225 16.0505C54.9245 16.4824 55.9566 16.3053 56.9974 16.3053C57.8266 16.3053 58.6774 16.275 59.5109 16.7371C60.0723 17.0524 60.8798 17.0049 61.5751 16.9876C61.9064 16.9565 62.2406 16.9888 62.5598 17.0826C62.9996 17.2201 63.4483 17.3268 63.9029 17.4022C64.0867 17.4196 64.2718 17.4196 64.4557 17.4022C64.3436 17.2448 64.2147 17.1 64.0713 16.9703C63.9171 16.8848 63.7513 16.8223 63.579 16.7847C63.3242 16.6983 63.0003 16.6896 62.8232 16.5212C62.3223 16.0461 61.6788 15.9597 61.0958 15.7481C60.8817 15.7107 60.6739 15.6439 60.4782 15.5495C59.3036 14.6858 57.9216 14.2324 56.6476 13.563C56.0887 13.2065 55.4513 12.9915 54.7906 12.9367C54.1817 12.9367 53.5857 12.5049 52.9768 12.3148C52.2469 12.073 51.5862 11.5721 50.7483 11.7189C50.7181 11.7257 50.6867 11.7261 50.6562 11.7202C50.6257 11.7142 50.5968 11.702 50.5713 11.6843C49.7594 10.9329 48.5977 11.3 47.7123 10.8206C47.017 10.4276 46.2095 10.5529 45.4969 10.3283C43.8558 9.83601 42.327 9.76685 40.7939 9.61569ZM37.9954 74.365C38.0559 74.0411 38.1077 73.8036 38.138 73.5617C38.138 73.4969 38.0861 73.4192 38.0602 73.3501C38.0127 73.389 37.9436 73.4149 37.922 73.4624C37.5874 74.159 37.1975 74.8276 36.756 75.4619C36.1039 76.4724 35.5727 77.5607 34.981 78.6102C34.7349 79.042 34.7262 79.6466 34.1821 79.9058C34.1821 80.5967 33.4177 80.994 33.504 81.7196C33.5057 81.846 33.4646 81.9692 33.3875 82.0694C32.7181 82.959 32.5928 84.069 32.1609 85.0536C31.7291 86.0383 31.3663 87.0488 30.9733 88.0507C30.5782 88.9012 30.2757 89.7916 30.0707 90.7067C29.9007 91.765 29.6554 92.8099 29.3366 93.8333C29.1096 94.6329 28.9919 95.4595 28.9868 96.2906C29.0128 97.28 28.9535 98.2698 28.8097 99.2489C28.4599 100.86 28.9695 102.462 28.719 104.06C28.7173 104.121 28.7261 104.183 28.7449 104.241C29.0386 105.727 29.3409 107.208 29.6087 108.698C29.7066 109.526 29.9789 110.324 30.4076 111.039C30.5289 111.286 30.6133 111.549 30.6581 111.821C30.7488 112.114 30.8179 112.416 30.9345 112.684C31.3535 113.75 31.8925 114.764 32.541 115.707C33.5213 117.076 34.3246 118.583 35.6677 119.672C35.8056 119.796 35.934 119.93 36.052 120.073C36.5164 120.656 37.1071 121.126 37.7795 121.447C38.029 121.567 38.259 121.724 38.4619 121.913C39.0578 122.401 39.6365 122.902 40.2282 123.39C40.2967 123.452 40.3865 123.484 40.4786 123.481C41.2819 123.174 41.8865 123.731 42.435 124.077C43.0069 124.397 43.6541 124.558 44.3093 124.543C44.9802 124.541 45.6474 124.643 46.2872 124.845C47.22 125.23 48.2133 125.403 49.1418 125.796C49.5162 125.951 49.9156 126.037 50.3208 126.05C52.2858 126.094 54.2551 126.102 56.2201 126.115C56.4052 126.092 56.5876 126.05 56.7642 125.99C57.1961 125.903 57.628 125.83 58.0598 125.735C59.2302 125.48 60.4178 125.342 61.5147 124.763C62.3476 124.37 63.2314 124.096 64.1404 123.947C65.3119 123.729 66.4342 123.3 67.4528 122.682C67.6386 122.577 67.8398 122.503 68.0488 122.462C69.0982 122.215 70.1563 122 71.2014 121.736C72.9335 121.293 74.5699 120.536 76.0296 119.503C76.7292 118.931 77.609 118.625 78.5129 118.64C78.693 118.683 78.8828 118.655 79.0434 118.563C79.204 118.471 79.3232 118.32 79.3766 118.143C79.4076 118.046 79.4588 117.957 79.5269 117.881C79.595 117.806 79.6783 117.746 79.7714 117.705C79.8646 117.664 79.9653 117.643 80.067 117.644C80.1687 117.646 80.2689 117.668 80.3612 117.711C81.2249 117.957 82.1405 118.052 82.9265 118.437C83.8091 118.871 84.7438 119.19 85.7077 119.387C86.9533 119.71 88.2504 119.786 89.5254 119.611C90.3891 119.451 91.0455 118.864 91.892 118.696C92.3819 118.607 92.8421 118.398 93.2307 118.087C93.4687 117.889 93.745 117.743 94.0424 117.657C94.3397 117.572 94.6516 117.549 94.9582 117.59C95.1497 117.591 95.3377 117.643 95.5032 117.739C95.6688 117.835 95.8063 117.973 95.9019 118.139C95.9976 118.305 96.0481 118.493 96.0484 118.685C96.0488 118.877 95.999 119.065 95.904 119.231C95.792 119.487 95.6372 119.722 95.4462 119.927C95.3796 119.98 95.3251 120.046 95.2865 120.122C95.2478 120.198 95.2259 120.282 95.2222 120.367C95.2186 120.452 95.2332 120.537 95.2651 120.616C95.297 120.695 95.3455 120.766 95.4073 120.825C95.6669 121.226 96.0137 121.564 96.4219 121.813C96.8302 122.062 97.2894 122.216 97.7653 122.263C98.2619 122.297 98.7586 122.306 99.2509 122.371C100.02 122.466 100.287 122.297 100.547 121.507C100.653 121.039 100.811 120.584 101.017 120.151C101.093 120.06 101.135 119.944 101.135 119.825C101.135 119.706 101.093 119.59 101.017 119.499C100.534 118.86 100.071 118.203 99.5359 117.599C99.0004 116.994 98.4563 116.588 97.9078 116.092C97.3593 115.595 97.152 115.051 96.6122 114.628C96.0724 114.204 96.0292 113.06 96.4222 112.468C96.5811 112.242 96.808 112.073 97.0698 111.986C97.3317 111.898 97.6147 111.896 97.8776 111.98C98.4045 112.127 98.6334 112.589 98.9789 112.926C99.6655 113.591 100.547 114.027 101.086 114.874C101.33 115.156 101.659 115.351 102.023 115.431C102.648 115.616 103.288 115.739 103.937 115.798C104.238 115.769 104.527 115.667 104.779 115.5C104.823 115.462 104.857 115.415 104.88 115.362C104.902 115.309 104.912 115.251 104.908 115.193C104.801 114.364 104.452 113.585 103.906 112.952C103.552 112.52 103.254 111.885 102.516 111.833C102.393 111.81 102.276 111.762 102.172 111.692C102.068 111.622 101.979 111.532 101.911 111.427C101.479 110.741 100.797 110.512 100.149 110.179C99.6871 109.938 99.2855 109.614 98.8104 109.359C98.4822 109.187 98.1448 109.032 97.7998 108.897C97.26 108.668 96.7029 108.465 96.1847 108.201C95.9599 108.089 95.7762 107.909 95.6592 107.687C95.5422 107.464 95.4979 107.211 95.5325 106.962C95.5878 106.749 95.7099 106.559 95.881 106.421C96.052 106.283 96.2629 106.203 96.4827 106.193C96.7174 106.113 96.9645 106.075 97.2125 106.081C98.2101 106.275 99.225 106.344 100.171 106.841C100.82 107.24 101.568 107.451 102.33 107.45C103.401 107.325 104.325 107.748 105.323 107.882C106.113 107.968 106.873 108.314 107.659 108.422C108.007 108.491 108.366 108.485 108.712 108.405C109.057 108.324 109.382 108.171 109.663 107.955C110.095 107.558 110.095 107.42 109.689 106.979C108.999 106.268 108.176 105.699 107.266 105.304C106.424 104.932 105.539 104.621 104.727 104.202C104.408 104.039 104.066 103.925 103.712 103.866C102.594 103.675 101.479 103.434 100.356 103.308C98.724 103.101 97.2255 102.358 95.5671 102.203C94.7752 102.077 93.9639 102.178 93.2264 102.492C92.9513 102.632 92.6451 102.699 92.3368 102.687C90.8685 102.544 89.4044 102.311 87.9361 102.199C86.9898 102.106 86.0359 102.126 85.0944 102.259C83.8982 102.462 82.7364 102.89 81.5531 103.183C80.6942 103.385 79.8557 103.665 79.0484 104.021C78.0767 104.453 77.0661 104.824 76.0728 105.222C75.8022 105.286 75.5459 105.4 75.3171 105.558C74.7254 106.15 73.9524 106.224 73.2096 106.422C72.8813 106.504 72.5618 106.621 72.2292 106.69C70.7998 106.984 69.759 108.245 68.2302 108.288C68.2043 108.288 68.174 108.318 68.1481 108.331C66.9648 108.854 65.7945 109.411 64.5939 109.89C63.8597 110.184 63.0305 110.231 62.3525 110.693C62.3093 110.728 62.2316 110.693 62.1711 110.719C61.4801 110.827 60.7892 110.948 60.0939 111.039C59.663 111.088 59.2491 111.236 58.8846 111.471C58.5535 111.633 58.1944 111.731 57.8266 111.76C57.4638 111.816 57.0924 111.803 56.7253 111.838C55.7499 111.986 54.7663 112.076 53.78 112.105C52.6917 112.071 51.6207 112.265 50.5669 112.33C49.8073 112.406 49.0421 112.406 48.2824 112.33C47.0689 112.162 45.8683 111.898 44.6677 111.63C44.427 111.572 44.1926 111.489 43.9681 111.384C43.0094 110.952 42.055 110.495 41.1049 110.033C40.8976 109.933 40.6341 109.795 40.5607 109.601C40.2961 109.073 39.9186 108.61 39.4551 108.245C39.1996 108.026 38.9847 107.765 38.8203 107.472C38.2497 106.266 37.8694 104.98 37.6931 103.658C37.6523 103.444 37.6523 103.224 37.6931 103.01C37.7622 102.795 37.9133 102.509 38.0904 102.449C38.2048 102.443 38.319 102.465 38.4229 102.513C38.5268 102.561 38.6173 102.634 38.6864 102.725C39.0664 103.321 39.3644 103.969 39.7358 104.574C40.0209 105.032 39.8697 105.869 40.7896 105.813C40.9018 105.813 41.0401 105.986 41.1437 106.103C41.8217 106.863 42.7589 107.208 43.6313 107.644C43.8515 107.757 44.0156 107.666 43.9465 107.403C43.8299 106.971 43.6442 106.539 43.5492 106.107C43.3635 105.265 43.2166 104.418 43.0655 103.572C42.8843 102.354 42.5953 101.154 42.2018 99.9874C41.8001 98.8991 41.3899 97.8281 40.9926 96.7311C40.9485 96.5833 40.9195 96.4314 40.9062 96.2778C40.7464 95.1851 40.2584 94.1788 40.1763 93.056C40.1202 92.3434 39.7445 91.6568 39.5286 90.9572C39.4711 90.7535 39.4434 90.5426 39.4465 90.331C39.4044 90.0227 39.4294 89.7088 39.5199 89.4111C39.7402 88.9792 39.2781 88.9015 39.2435 88.5776C39.0664 87.0531 38.5309 85.5934 38.5007 84.0171C38.5007 83.2441 38.6043 82.389 38.1984 81.6332C38.1569 81.5154 38.148 81.3887 38.1725 81.2662C38.2881 80.2302 38.2297 79.1821 37.9997 78.1653C37.915 77.7739 37.8773 77.3738 37.8875 76.9734C37.9004 76.0406 37.9609 75.1769 37.9954 74.365ZM104.58 96.4894C105.657 96.4454 106.718 96.2145 107.715 95.807C108.125 95.6651 108.516 95.4752 108.881 95.2412C109.771 94.6452 110.419 93.7254 111.421 93.2676C111.531 93.2082 111.627 93.1258 111.702 93.0258C112.073 92.5939 112.462 92.1318 112.794 91.6524C113.317 90.9053 114.047 90.2921 114.228 89.3204C114.271 89.0829 114.543 88.8885 114.729 88.6812C115.411 87.9514 116.107 87.2648 116.4 86.2283C116.706 85.3851 117.094 84.5736 117.558 83.8055C117.756 83.4255 118.015 83.0799 118.218 82.7042C118.421 82.3285 118.603 81.8621 118.814 81.4519C119.026 81.0416 119.065 80.5622 118.732 80.3592C118.301 80.1406 117.848 79.967 117.381 79.841C117.346 79.841 117.268 79.8928 117.234 79.9403C116.914 80.3722 116.422 80.804 116.322 81.3093C116.189 82.0003 115.722 82.4495 115.398 82.972C114.732 83.9902 114.011 84.972 113.239 85.913C112.957 86.3911 112.61 86.8272 112.207 87.2086C111.408 87.7873 110.514 88.2277 109.672 88.7417C108.518 89.4036 107.268 89.8815 105.966 90.1582C104.844 90.4216 103.721 90.5037 102.693 89.7263C102.058 89.2556 101.358 88.8626 100.702 88.4307C100.523 88.3142 100.365 88.1682 100.236 87.9989C99.6137 87.1351 98.94 86.3276 98.4088 85.4293C97.9594 84.6428 97.7493 83.7423 97.8041 82.8381C97.8041 82.376 97.8949 81.914 97.8949 81.4519C97.9456 80.2135 98.2009 78.992 98.6506 77.8371C98.8925 77.1159 99.3027 76.4466 99.5964 75.7383C99.7362 75.3979 99.8236 75.0383 99.8555 74.6716C99.848 74.572 99.8167 74.4756 99.764 74.3906C99.7114 74.3057 99.6391 74.2346 99.5532 74.1836C98.9443 73.8985 98.3095 73.6567 97.6789 73.4148C97.2082 73.2378 97.1218 73.281 96.9189 73.756C96.5672 74.7845 96.0477 75.7476 95.3814 76.6064C95.2593 76.7865 95.1742 76.989 95.1309 77.2023C94.82 78.1006 94.4486 78.9816 94.224 79.9014C93.9347 81.0631 93.3603 82.1645 93.4337 83.4169C93.4276 83.6618 93.3394 83.8974 93.1832 84.0862C92.9426 84.3852 92.7871 84.7437 92.7331 85.1237C92.6792 85.5038 92.7288 85.8913 92.8766 86.2455C93.3085 87.3251 93.3085 88.556 94.1463 89.4629C94.2024 89.5277 94.2067 89.6399 94.2542 89.722C94.6861 90.4518 94.8502 91.3415 95.5801 91.8813C95.9256 92.1404 96.2495 92.4255 96.5777 92.7062C97.2427 93.272 97.7912 93.9759 98.6333 94.3214C99.1001 94.4771 99.5444 94.6934 99.9548 94.9649C100.56 95.5149 101.309 95.8818 102.114 96.0229C102.883 96.1438 103.665 96.4246 104.58 96.4894ZM78.0637 11.3777C77.9989 10.6004 77.9212 9.65029 77.8434 8.69588C77.8356 8.60751 77.8167 8.52042 77.7873 8.43672C77.3857 7.3441 76.9841 6.24291 76.5651 5.15462C76.4442 4.848 76.2326 4.58024 76.0987 4.29089C75.926 3.90653 75.5459 4.18287 75.3127 4.01444C75.2134 3.94534 75.0838 3.92381 74.9759 3.86335C74.6488 3.66495 74.2832 3.53839 73.9035 3.49222C73.5237 3.44605 73.1385 3.48129 72.7734 3.59555C71.4044 3.9799 70.6788 4.45927 69.9576 5.75486C69.561 6.41578 69.1285 7.05443 68.662 7.66799C68.3637 8.05487 68.1837 8.51988 68.1438 9.00681C68.1435 9.80121 67.9971 10.5887 67.7119 11.3302C67.5852 11.6101 67.549 11.9227 67.6083 12.2242C67.7379 12.8158 68.0402 13.3816 67.7724 14.0121C67.7724 14.0596 67.8286 14.1503 67.8717 14.2108C68.4763 15.0529 69.0896 15.8907 69.6899 16.7328C69.7581 16.8182 69.808 16.9167 69.8367 17.0222C69.9403 17.4973 70.0224 17.9765 70.1304 18.4473C70.1541 18.4859 70.187 18.518 70.2262 18.5406C70.2654 18.5632 70.3097 18.5756 70.355 18.5769C70.9466 18.4084 71.5339 18.2098 72.1256 18.0414C73.6673 17.6095 74.9673 16.5687 76.5738 16.3139C76.7854 16.2837 77.0056 16.1239 77.1913 16.18C77.6664 16.3355 77.7225 16.0893 77.7484 15.7481C77.8219 14.323 77.9341 12.9411 78.0637 11.3777ZM113.179 74.9869C113.075 75.043 112.885 75.0862 112.82 75.1985C112.388 75.9974 111.956 76.8093 111.524 77.6341C111.49 77.7076 111.68 77.997 111.797 78.0142C112.581 78.1998 113.343 78.466 114.072 78.8088C114.772 79.0636 114.772 79.1413 115.247 78.5799C115.359 78.446 115.718 78.4936 115.601 78.1826C115.416 77.7076 115.675 77.3534 115.912 76.9993C116.249 76.5027 116.227 76.3645 115.718 76.0925C115.563 75.9977 115.403 75.9111 115.238 75.8333C114.578 75.5526 113.908 75.2805 113.179 74.9869ZM113.792 81.6721C113.698 81.563 113.589 81.4683 113.468 81.3913C113.092 81.2488 112.703 81.1409 112.323 81.007C111.831 80.83 111.352 80.6183 110.855 80.4672C110.652 80.4024 110.367 80.2599 110.225 80.6184C109.892 81.4476 109.551 82.2724 109.214 83.0973C109.11 83.3478 109.171 83.5291 109.447 83.5896C110.095 83.758 110.743 83.9048 111.391 84.0948C111.543 84.1655 111.716 84.1764 111.876 84.1252C112.036 84.074 112.171 83.9645 112.254 83.8185C112.591 83.3391 113.001 82.9116 113.356 82.4452C113.519 82.192 113.665 81.9279 113.792 81.6548V81.6721ZM115.39 63.8318C115.329 63.7406 115.253 63.6603 115.165 63.5943C114.966 63.4511 114.746 63.3403 114.513 63.2661C113.805 63.1106 113.144 62.6572 112.354 62.8904C112.198 62.9336 111.978 63.02 111.922 63.1366C111.667 63.8319 111.49 64.553 111.226 65.244C111.093 65.6068 111.226 65.7838 111.533 65.8745C112.155 66.0559 112.794 66.1898 113.412 66.3841C113.844 66.5266 114.034 66.328 114.202 65.9782C114.435 65.4815 114.694 64.9936 114.953 64.5099C115.096 64.2939 115.234 64.0909 115.39 63.8318ZM117.376 70.8107C117.376 70.7805 117.376 70.5861 117.29 70.5041C116.993 70.1528 116.623 69.8712 116.206 69.6793C115.295 69.4331 115.243 69.2863 114.858 70.2234C114.569 70.9274 114.301 71.6312 114.034 72.3395C114.008 72.4086 114.034 72.5641 114.072 72.5814C114.582 72.7757 114.807 73.4451 115.463 73.4192C115.865 73.4435 116.262 73.5175 116.646 73.6394C116.91 73.6999 117.078 73.674 117.078 73.3631C117.169 72.5512 117.268 71.7219 117.363 70.8107H117.376ZM112.738 68.8588C112.629 68.7157 112.499 68.5891 112.354 68.483C112.025 68.3102 111.65 68.2239 111.339 68.0295C110.695 67.6236 110.216 67.6624 109.87 68.3232C109.616 68.8838 109.4 69.4609 109.223 70.0506C109.007 70.6466 109.115 70.8884 109.68 71.1346C110.028 71.2491 110.358 71.412 110.661 71.6183C110.89 71.804 111.054 71.7825 111.214 71.6399C111.425 71.4654 111.607 71.2583 111.753 71.0266C112.06 70.5041 112.125 69.8607 112.574 69.3986C112.669 69.2993 112.669 69.1049 112.738 68.8588ZM106.692 75.8074C106.42 76.2047 106.644 76.2004 106.934 76.2609C107.222 76.369 107.503 76.4989 107.772 76.6495C108.086 76.7646 108.408 76.8584 108.735 76.9303C109.141 77.0253 109.421 76.9734 109.547 76.4552C109.691 76.0222 109.903 75.6154 110.177 75.2503C110.609 74.5852 110.453 74.1577 109.711 73.8986C109.452 73.8079 109.21 73.6697 108.959 73.5531C108.139 73.1557 107.957 73.2335 107.599 74.0756C107.49 74.3233 107.344 74.5533 107.167 74.758C107.12 74.8093 107.063 74.8497 106.998 74.8766C106.934 74.9034 106.865 74.916 106.796 74.9134C106.247 74.827 106.243 74.9566 106.58 75.3453C106.653 75.4403 106.644 75.6562 106.683 75.8074H106.692ZM108.355 79.8367C108.234 79.7287 108.13 79.5776 107.992 79.5301C107.301 79.2796 106.604 79.0507 105.902 78.8434C105.82 78.8175 105.621 78.947 105.573 79.0463C105.258 79.7805 104.964 80.5234 104.666 81.2662C104.638 81.3129 104.62 81.3657 104.616 81.4204C104.611 81.4751 104.619 81.5301 104.64 81.581C104.661 81.6319 104.693 81.6771 104.734 81.7132C104.776 81.7493 104.825 81.7752 104.878 81.7887C105.487 82.0219 106.096 82.2595 106.718 82.4452C106.818 82.4684 106.922 82.4675 107.022 82.4427C107.122 82.418 107.215 82.37 107.292 82.3026C107.819 81.59 107.918 80.6831 108.346 79.8367H108.355ZM106.394 73.2465C106.379 72.9727 106.281 72.7098 106.114 72.4925C105.947 72.2752 105.718 72.1135 105.457 72.0286C105.167 71.9292 104.856 71.8818 104.567 71.7738C103.958 71.5493 103.958 71.5362 103.617 72.1192C103.513 72.3056 103.425 72.5008 103.354 72.7023C103.133 73.3069 102.922 73.9072 102.719 74.5204C102.702 74.5959 102.703 74.6741 102.722 74.7491C102.74 74.8241 102.776 74.8937 102.827 74.9523C103.02 75.1069 103.254 75.2029 103.5 75.2287C103.9 75.1778 104.304 75.2629 104.649 75.4705C104.675 75.4921 104.904 75.3496 104.952 75.2459C105.224 74.6672 105.465 74.067 105.737 73.4883C105.772 73.4149 106.005 73.3372 106.048 73.376C106.316 73.6438 106.385 73.5358 106.385 73.2465H106.394ZM100.715 80.0224C100.767 80.2167 100.767 80.4543 100.849 80.4931C101.283 80.6995 101.744 80.8449 102.218 80.925C102.399 80.925 102.693 80.6572 102.818 80.4413C103.168 79.828 103.47 79.1889 103.764 78.5454C103.798 78.4747 103.817 78.3978 103.819 78.3194C103.822 78.241 103.809 78.1628 103.78 78.0898C103.751 78.0169 103.708 77.9507 103.652 77.8953C103.597 77.8399 103.53 77.7966 103.457 77.7681C103.012 77.5542 102.549 77.3766 102.075 77.2369C101.995 77.2388 101.916 77.2608 101.846 77.3008C101.776 77.3407 101.716 77.3974 101.674 77.4658C101.516 77.7962 101.381 78.1366 101.268 78.4849C101.069 79.0075 100.888 79.5257 100.706 80.0224H100.715ZM102.68 86.4053C102.831 86.5824 102.952 86.8631 103.112 86.8891C103.538 86.97 103.937 87.1555 104.273 87.4289C104.649 87.701 104.917 87.6448 105.137 87.2647C105.466 86.7101 105.754 86.1329 106.001 85.5373C106.213 85.0449 106.135 84.9888 105.642 84.7988C105.016 84.557 104.282 84.6562 103.716 84.1984C103.686 84.1725 103.44 84.3064 103.401 84.4101C103.142 85.0363 102.922 85.6668 102.68 86.4053ZM108.113 66.7858C108.091 66.7377 108.065 66.6914 108.035 66.6476C107.95 66.5203 107.833 66.4171 107.696 66.3479C107.56 66.2787 107.408 66.2458 107.255 66.2523C107.102 66.2588 106.953 66.3046 106.822 66.3851C106.692 66.4657 106.585 66.5783 106.511 66.7123L105.18 69.0185C104.93 69.4504 104.96 69.5454 105.396 69.6576C105.725 69.744 106.053 69.8175 106.377 69.9211C106.701 70.0248 106.925 69.9211 107.042 69.541C107.193 69.0142 107.43 68.5132 107.633 67.9993C107.767 67.5847 107.927 67.1874 108.091 66.7728L108.113 66.7858ZM117.765 67.304C117.731 66.4844 117.53 65.6804 117.173 64.9417C117.113 64.8467 117.005 64.7258 116.918 64.7258C116.832 64.7258 116.72 64.8554 116.685 64.9547C116.487 65.5032 116.292 66.0516 116.119 66.6087C115.925 67.2392 115.951 67.2738 116.582 67.6582C116.681 67.723 116.763 67.8223 116.867 67.8827C117.095 68.0123 117.333 68.1288 117.566 68.2498C117.627 67.995 117.691 67.7402 117.748 67.4854C117.751 67.4206 117.75 67.3556 117.743 67.291L117.765 67.304ZM94.4443 99.4562V99.3828C94.5647 99.3884 94.6845 99.4028 94.8027 99.4259C95.1007 99.495 95.3987 99.5685 95.6923 99.6548C96.7029 99.9528 96.9577 99.7672 96.9145 98.7437C96.9145 98.7134 96.9405 98.6703 96.9145 98.6573C96.8498 98.571 96.7807 98.4327 96.7029 98.4241C95.7096 98.2859 94.7336 98.2643 93.8656 98.856C93.6108 99.033 93.6194 99.2576 93.9131 99.3742C94.0777 99.4194 94.2476 99.4426 94.4184 99.4432L94.4443 99.4562ZM101.872 100.894C102.015 100.83 102.304 100.704 102.602 100.553C102.631 100.523 102.651 100.486 102.662 100.446C102.672 100.406 102.673 100.364 102.663 100.324C102.343 99.9744 102.347 99.3569 101.734 99.2446C101.439 99.1668 101.151 99.0672 100.87 98.9466C100.784 99.236 100.693 99.5253 100.611 99.8104C100.382 100.618 100.4 100.644 101.199 100.804C101.341 100.825 101.497 100.834 101.846 100.881L101.872 100.894ZM108.51 85.7143C108.333 85.8007 108.078 85.8396 108.013 85.9778C107.809 86.3203 107.638 86.6819 107.504 87.0574C107.353 87.4547 107.785 87.3598 107.936 87.5152C107.966 87.5498 108.156 87.5152 108.156 87.5152C108.186 86.889 108.795 86.9408 109.132 86.6773C109.323 86.5539 109.523 86.4469 109.732 86.3578C109.544 86.215 109.348 86.0824 109.145 85.9605C108.931 85.8584 108.71 85.7719 108.484 85.7014L108.51 85.7143ZM100.737 84.1337L100.87 84.4965C101.023 84.3618 101.168 84.2175 101.302 84.0647C101.376 83.9826 101.479 83.8271 101.449 83.758C101.358 83.5594 101.246 83.2872 101.073 83.2311C100.81 83.1361 100.758 83.4125 100.737 83.6285C100.702 83.7278 100.711 83.8141 100.711 84.1207L100.737 84.1337ZM109.75 64.0132C109.62 63.9527 109.538 63.8879 109.508 63.9095C109.221 64.0732 108.948 64.2595 108.691 64.4666C108.659 64.5253 108.641 64.5916 108.641 64.6589C108.641 64.7262 108.659 64.7924 108.691 64.8511C108.765 64.9331 109.028 64.9806 109.076 64.9288C109.308 64.6309 109.524 64.321 109.724 64.0003L109.75 64.0132Z" fill="#802A00"/>
<path d="M119.179 167.599C118.972 166.554 119.568 165.647 119.456 164.641C119.343 163.635 119.387 162.659 119.374 161.665C119.374 160.992 119.413 160.318 119.374 159.648C119.305 158.21 119.192 156.777 119.102 155.33C119.102 155.066 119.102 154.799 119.102 154.531C119.102 154.263 119.054 153.922 119.011 153.624C118.907 152.894 118.795 152.164 118.678 151.439C118.653 151.29 118.609 151.145 118.549 151.007C118.506 150.895 118.393 150.795 118.389 150.683C118.329 149.331 117.659 148.092 117.651 146.736C117.651 146.554 117.715 146.403 117.482 146.282C117.353 146.213 117.288 145.98 117.236 145.807C116.758 144.225 116.123 142.694 115.34 141.238C114.589 139.791 113.613 138.474 112.909 137.01C112.879 136.923 112.83 136.844 112.767 136.778C112.704 136.711 112.627 136.66 112.542 136.626C112.456 136.592 112.365 136.576 112.273 136.581C112.181 136.585 112.092 136.61 112.01 136.652C110.957 136.948 109.924 137.313 108.918 137.744C107.938 138.119 106.937 138.437 105.921 138.699C105.057 138.98 104.245 139.308 103.412 139.619C103.352 139.619 103.295 139.683 103.239 139.683C102.511 139.763 101.79 139.893 101.08 140.072C100.406 140.171 99.698 140.232 99.0027 140.305C97.8194 140.431 96.6361 140.603 95.4441 140.677C94.399 140.741 93.3496 140.711 92.3002 140.707C91.5314 140.707 90.7584 140.707 89.9897 140.655C89.0957 140.612 88.7718 140.815 88.5084 141.683C88.4393 141.92 88.4177 142.171 88.3702 142.413C88.3227 142.655 88.3702 142.897 88.2277 143.035C87.6663 143.648 87.6879 144.447 87.4676 145.194C87.2819 145.807 86.7464 146.373 86.7421 146.96C86.7163 147.585 86.5864 148.201 86.3577 148.783C86.0684 149.612 85.8568 150.484 85.494 151.279C85.006 152.423 84.8937 153.654 84.4273 154.794C84.3588 154.993 84.3352 155.203 84.3582 155.412C84.4008 155.844 84.2739 156.276 84.0041 156.617C83.8222 156.83 83.7308 157.106 83.7493 157.386C83.922 157.977 83.6845 158.461 83.5377 158.992C83.3909 159.523 83.4556 160.024 83.3606 160.525C83.2224 161.255 82.9978 161.963 82.851 162.685C82.6782 163.548 82.4667 164.412 82.7301 165.319C82.7508 165.442 82.7388 165.569 82.6955 165.686C82.3907 167.224 82.305 168.797 82.4407 170.359C82.4977 171.302 82.3397 172.245 81.9786 173.118C81.9032 173.282 81.8649 173.46 81.8664 173.641C81.8966 174.31 82.0089 174.975 81.9959 175.64C81.9959 176.893 81.9052 178.145 81.8361 179.393C81.8309 180.442 81.4921 181.461 80.8688 182.304C80.005 183.332 79.029 184.234 77.5823 184.338C76.9008 184.384 76.2559 184.663 75.7555 185.128C75.4696 185.363 75.1147 185.498 74.7449 185.513C73.7294 185.653 72.6977 185.623 71.6917 185.426C71.4714 185.388 71.3375 185.552 71.1993 185.59C70.7375 185.693 70.2624 185.722 69.7914 185.677C68.6427 185.616 67.4983 185.517 66.3365 185.435C66.2718 185.435 66.1595 185.487 66.1509 185.47C65.8572 184.947 65.4383 185.163 65.0064 185.21C64.4074 185.3 63.7998 185.316 63.1969 185.258C61.3068 185.035 59.4031 184.95 57.5006 185.003C56.8988 184.972 56.2991 184.908 55.7041 184.813C54.7021 184.731 53.7002 184.671 52.681 184.602C52.6378 184.602 52.5515 184.571 52.5472 184.602C52.4608 184.817 52.3485 184.964 52.0764 184.93C51.312 184.835 50.5433 184.792 49.7876 184.658C49.4464 184.602 49.1959 184.403 48.7943 184.658C48.5049 184.861 47.9953 184.779 47.5808 184.766C46.2377 184.727 44.9896 184.26 43.694 183.902C42.6701 183.661 41.6846 183.279 40.7659 182.766C40.0137 182.231 39.3393 181.595 38.7621 180.875C37.8422 179.881 37.6608 178.603 37.5053 177.325C37.5053 177.143 37.4536 176.962 37.4276 176.785C37.4017 176.608 37.3499 176.353 37.3369 176.159C37.49 175.136 37.7151 174.126 38.0106 173.136C38.0841 172.967 38.1229 172.786 38.1791 172.613C38.3732 171.836 38.7148 171.102 39.1853 170.454C39.6949 169.849 39.8763 169.024 40.4377 168.424C40.9991 167.824 41.3964 167.236 41.8844 166.653C42.2731 166.187 42.9252 166.221 43.3916 165.889C43.7674 165.625 44.1906 165.418 44.5836 165.176C45.1264 164.793 45.7869 164.612 46.4493 164.667C46.6134 164.688 46.7904 164.567 46.9675 164.537C48.3322 164.291 49.6969 164.023 51.0659 163.825C51.49 163.828 51.9131 163.866 52.3312 163.937C53.6268 163.937 54.9224 163.876 56.218 163.967C57.2616 164.078 58.2982 164.247 59.3231 164.472C59.9646 164.544 60.5971 164.681 61.2103 164.883C62.575 165.457 63.9008 166.135 65.2482 166.757C65.6945 166.999 66.1688 167.187 66.6604 167.314C67.2823 167.439 67.6796 167.867 68.159 168.178C68.6977 168.589 69.2649 168.961 69.8562 169.292C70.72 169.724 71.1518 170.484 71.5362 171.266C71.5905 171.389 71.6109 171.524 71.5954 171.658C71.58 171.791 71.5291 171.918 71.4482 172.026C71.3672 172.133 71.259 172.217 71.1347 172.269C71.0105 172.32 70.8748 172.338 70.7416 172.319C70.3427 172.28 69.9523 172.18 69.5842 172.021C67.7228 171.279 65.8788 170.501 64.0174 169.758C62.7607 169.253 61.4953 168.782 60.23 168.307C60.0594 168.261 59.8841 168.235 59.7075 168.23C59.5563 168.208 59.3447 168.256 59.2756 168.173C58.7444 167.616 58.0836 167.711 57.4229 167.742C57.1808 167.719 56.9427 167.666 56.7146 167.582C56.5429 167.514 56.365 167.464 56.1834 167.431C55.5577 167.439 54.932 167.413 54.3092 167.353C53.3418 167.193 52.3614 167.413 51.3854 167.353C51.1089 167.364 50.8347 167.409 50.5692 167.487C50.3274 167.53 50.0121 167.716 49.8609 167.621C49.2175 167.223 48.6475 167.759 48.0169 167.711C47.2846 167.742 46.571 167.952 45.9396 168.325C45.0146 168.742 44.1444 169.271 43.3485 169.901C42.8734 170.307 42.6661 171.041 42.3725 171.628C42.1911 172.008 42.3724 172.604 41.716 172.695C41.4742 173.386 41.2237 174.077 41.0034 174.772C40.9386 174.975 41.0034 175.204 40.9128 175.412C40.6191 176.102 40.4809 176.767 41.038 177.402C41.1002 177.474 41.1327 177.567 41.1287 177.661C41.0596 178.957 42.0486 179.579 42.8173 180.3C43.2657 180.665 43.8043 180.902 44.3763 180.987C45.0371 181.116 45.6691 181.363 46.2419 181.717C46.447 181.83 46.6854 181.869 46.9157 181.825C47.7362 181.768 48.5654 181.825 49.3902 181.851C49.5716 181.851 49.7875 181.915 49.9301 181.851C50.1559 181.751 50.402 181.705 50.6487 181.717C50.8953 181.729 51.1358 181.798 51.3509 181.92C51.6443 182.002 51.951 182.025 52.2535 181.989C52.6636 181.944 53.076 181.922 53.4886 181.924C53.8859 181.963 54.266 182.14 54.6676 181.954C54.7572 181.928 54.851 181.919 54.944 181.928C55.2938 181.907 55.5702 182.3 56.0193 182.015C56.2482 181.872 56.706 182.105 57.0645 182.149C57.4229 182.192 57.8504 182.239 58.2434 182.261C58.5152 182.319 58.7972 182.309 59.064 182.231C59.729 181.855 60.2861 182.157 60.8778 182.386C61.0333 182.447 61.3572 182.477 61.3744 182.429C61.6249 181.82 62.1 182.127 62.4929 182.118C63.6417 182.097 64.7948 182.006 65.9479 182.075C66.8375 182.127 67.7358 181.881 68.6125 182.2C68.8494 182.262 69.0968 182.272 69.338 182.231C70.1024 182.148 70.8625 182.036 71.6269 181.941C71.7474 181.911 71.8734 181.911 71.9939 181.941C73.1557 182.459 74.1533 181.876 75.1941 181.509C75.524 181.339 75.8778 181.22 76.2435 181.155C76.995 181.134 77.4441 180.564 78.053 180.291C78.1221 180.257 78.2257 180.153 78.2171 180.097C78.0703 179.333 78.6188 178.681 78.5021 177.864C78.3855 177.048 78.6447 176.055 78.7181 175.148C78.7613 174.63 78.7699 174.107 78.7915 173.589C78.8303 172.561 78.8692 171.529 78.9124 170.501C78.9383 169.862 78.8174 169.206 79.1802 168.605C79.2771 168.341 79.2936 168.054 79.2276 167.78C79.0549 166.334 79.3572 164.922 79.5515 163.505C79.7891 161.829 80.0439 160.154 80.4153 158.504C80.588 157.705 80.4369 156.876 80.7738 156.107C80.9911 155.633 81.1702 155.142 81.3093 154.639C81.5684 153.628 81.7757 152.605 82.0046 151.586C82.0293 151.44 82.0625 151.296 82.1039 151.154C82.3328 150.553 82.5962 149.962 82.8035 149.353C83.2354 148.131 83.6068 146.9 84.0041 145.669C83.6586 144.602 84.6519 144.032 84.9283 143.199C85.0206 142.819 85.1359 142.446 85.2737 142.08C85.5113 141.584 85.8136 141.113 86.0986 140.638C86.2282 140.418 86.3404 140.253 85.9259 140.253C85.3231 140.256 84.7293 140.107 84.1984 139.822C83.8534 139.689 83.4883 139.616 83.1187 139.606C82.3803 139.502 81.6418 139.424 80.9033 139.329C80.7808 139.314 80.663 139.273 80.5578 139.208C79.1586 138.267 77.5002 138.086 75.9498 137.589C75.8634 137.563 75.7468 137.589 75.6821 137.533C74.2353 136.406 72.4172 136.095 70.8063 135.335C70.6099 135.241 70.4208 135.133 70.2406 135.011C69.8606 134.76 69.4892 134.488 69.1048 134.233C68.9335 134.106 68.7462 134.001 68.5477 133.922C68.1158 133.78 68.051 133.395 68.0122 133.033C67.9603 132.601 67.3298 132.933 67.3126 132.463C67.3126 132.104 67.1873 131.741 67.1916 131.383C67.1959 131.025 67.3385 130.852 67.6883 131.193C67.8092 131.31 67.9604 131.236 67.9301 130.99C67.8524 130.355 67.956 130.26 68.539 130.191C69.3121 130.105 69.8606 130.528 70.4479 130.925C71.3073 131.597 72.2603 132.14 73.2766 132.536C73.4234 132.584 73.6221 132.575 73.7085 132.67C74.3088 133.283 75.1423 133.322 75.8678 133.607C76.1025 133.683 76.3295 133.782 76.5458 133.901C77.5274 134.468 78.551 134.959 79.6077 135.369C79.9343 135.466 80.2659 135.545 80.601 135.607C81.4863 135.861 82.3673 136.138 83.2483 136.406C83.2742 136.406 83.3044 136.444 83.3304 136.444C84.6691 136.306 85.8784 137.166 87.2474 136.945C87.6792 136.872 88.2061 137.179 88.6941 137.222C89.7954 137.317 90.901 137.36 92.0065 137.421C92.7027 137.526 93.4121 137.505 94.101 137.36C94.2608 137.312 94.4638 137.442 94.6409 137.429C95.0339 137.429 95.4269 137.338 95.8199 137.3C96.0864 137.267 96.3546 137.25 96.6231 137.248C96.8043 137.28 96.9876 137.301 97.1716 137.308C97.6725 137.243 98.1044 136.98 98.6918 137.187C99.1236 137.338 99.7196 137.105 100.233 137.014C100.404 136.952 100.569 136.874 100.726 136.781C100.948 136.67 101.185 136.593 101.43 136.552C102.725 136.462 103.909 135.922 105.161 135.689C106.547 135.369 107.888 134.882 109.156 134.238C110.179 133.754 111.315 133.499 112.226 132.799C112.732 132.424 112.887 132.48 113.315 132.998C113.531 133.262 113.695 133.568 113.919 133.823C114.12 134.095 114.372 134.324 114.662 134.497C114.843 134.581 115.006 134.701 115.14 134.85C115.275 134.998 115.378 135.172 115.444 135.361C115.688 136.033 116.17 136.593 116.8 136.932C116.864 136.958 116.923 136.996 116.972 137.045C117.021 137.094 117.059 137.152 117.085 137.217C117.11 137.281 117.122 137.35 117.12 137.419C117.118 137.488 117.101 137.557 117.072 137.619C117.029 137.74 117.137 137.943 117.236 138.051C117.397 138.241 117.576 138.414 117.771 138.569C117.96 138.709 118.113 138.89 118.221 139.098C118.329 139.306 118.388 139.536 118.393 139.77C118.405 140.298 118.626 140.799 119.007 141.165C119.23 141.457 119.413 141.778 119.551 142.119C119.814 142.715 120.039 143.324 120.285 143.929C120.298 143.956 120.308 143.985 120.315 144.015C120.428 144.461 120.497 144.916 120.522 145.375C120.522 145.846 121.075 146.027 120.954 146.55C120.894 147.006 120.894 147.468 120.954 147.923C120.948 148.102 121.005 148.278 121.114 148.42C121.294 148.59 121.438 148.796 121.535 149.024C121.632 149.252 121.682 149.498 121.68 149.746C121.74 150.61 122.112 151.387 122.03 152.255C122.004 152.635 122.254 153.024 122.31 153.417C122.397 154.047 122.427 154.682 122.474 155.313C122.505 155.744 122.518 156.176 122.552 156.608C122.552 156.729 122.669 156.872 122.634 156.962C122.284 157.826 122.725 158.608 122.777 159.428C122.807 159.86 122.682 160.339 122.686 160.797C122.639 161.978 122.668 163.161 122.772 164.338C122.836 164.918 122.786 165.505 122.626 166.066C122.404 166.847 122.447 167.679 122.747 168.433C123.104 169.211 123.74 169.828 124.53 170.16C125.886 170.838 127.277 170.683 128.663 170.259C129.28 170.102 129.865 169.837 130.391 169.478C130.989 169.117 131.623 168.817 132.282 168.584C132.397 168.546 132.51 168.499 132.619 168.445C133.547 167.793 134.467 167.15 135.391 166.48C135.443 166.442 135.478 166.377 135.53 166.355C137.443 165.673 138.903 164.196 140.738 163.367C140.947 163.24 141.145 163.095 141.33 162.935C141.498 162.814 141.684 162.611 141.861 162.611C142.108 162.594 142.348 162.525 142.565 162.407C142.783 162.289 142.973 162.126 143.122 161.929C143.739 161.238 144.564 160.909 145.329 160.46C146.227 160.021 147.102 159.535 147.95 159.005C148.17 158.841 148.382 158.629 148.581 158.465C148.901 158.145 149.281 157.891 149.699 157.718C150.252 157.597 150.563 156.954 151.167 157.075C151.465 156.409 152.256 156.397 152.696 155.913C152.778 155.822 152.895 155.762 152.981 155.671C153.413 155.239 154.031 155.153 154.406 154.587C154.838 154.061 155.346 153.602 155.914 153.227C156.158 153.018 156.344 152.748 156.453 152.445C156.561 152.142 156.588 151.816 156.531 151.499C156.492 151.067 156.384 150.635 156.371 150.204C156.341 149.072 155.646 148.269 154.964 147.517C154.496 146.978 153.883 146.585 153.197 146.386C152.152 146.144 151.211 145.384 150.014 145.742C149.539 145.881 148.969 145.669 148.46 145.742C147.298 145.911 146.149 146.153 145.005 146.373C144.555 146.476 144.135 146.681 143.778 146.973C143.28 147.287 142.759 147.563 142.219 147.798C141.101 148.385 139.978 148.973 138.864 149.577C138.663 149.717 138.481 149.881 138.32 150.065C138.08 150.349 137.808 150.603 137.508 150.821C136.575 151.322 136 152.16 135.348 152.929C134.562 153.836 133.72 154.699 132.904 155.585C132.757 155.74 132.641 155.93 132.472 156.081C132.296 156.295 132.082 156.475 131.842 156.612C131.617 156.68 131.377 156.669 131.159 156.582C131.103 156.582 131.112 156.237 131.159 156.068C131.291 155.31 131.485 154.563 131.738 153.836C132.076 153.076 132.49 152.353 132.973 151.676C133.466 150.967 134.008 150.291 134.593 149.655C135.288 148.872 136.028 148.13 136.808 147.431C137.395 146.921 137.87 146.196 138.769 146.135C138.811 146.124 138.851 146.103 138.883 146.072C138.916 146.042 138.94 146.005 138.954 145.963C139.032 145.574 139.352 145.531 139.645 145.427C140.307 145.191 140.929 144.854 141.489 144.43C142.404 143.924 143.364 143.506 144.357 143.181C144.7 143.042 145.058 142.945 145.424 142.892C146.508 142.75 147.557 142.305 148.68 142.46C148.926 142.491 149.177 142.46 149.423 142.486C150.472 142.547 151.535 142.547 152.567 142.702C153.182 142.856 153.778 143.08 154.342 143.371C154.774 143.557 155.231 143.803 155.689 143.95C157.162 144.447 158.047 145.557 158.803 146.822C159.172 147.453 159.505 148.105 159.8 148.774C159.952 149.054 160.046 149.361 160.076 149.678C160.107 149.995 160.073 150.315 159.977 150.618C159.916 150.754 159.882 150.901 159.878 151.05C159.925 152.104 159.678 153.151 159.166 154.073C158.844 154.824 158.346 155.486 157.714 156.003C157.065 156.522 156.352 156.958 155.594 157.299C155.03 157.604 154.49 157.952 153.979 158.34C153.154 158.862 152.321 159.372 151.491 159.886C150.852 159.748 150.701 160.417 150.269 160.637C149.853 160.894 149.451 161.172 149.064 161.471C148.784 161.648 148.408 161.713 148.201 161.937C147.769 162.369 147.091 162.369 146.65 162.866C146.27 163.298 145.614 163.505 145.065 163.786C144.517 164.066 143.899 164.304 143.338 164.611C142.392 165.129 141.468 165.69 140.531 166.226C140.288 166.363 140.035 166.481 139.775 166.58C139.082 166.841 138.433 167.205 137.849 167.659C136.868 168.394 135.78 168.981 134.765 169.672C133.617 170.449 132.45 171.214 131.375 172.086C130.513 172.842 129.492 173.394 128.389 173.704C127.285 174.013 126.126 174.071 124.997 173.874C124.189 174.099 123.64 173.498 123.032 173.192C122.286 172.768 121.576 172.282 120.911 171.741C120.687 171.582 120.493 171.383 120.341 171.153C120.004 170.633 119.702 170.092 119.434 169.534C119.262 169.246 119.151 168.925 119.107 168.593C119.063 168.26 119.088 167.922 119.179 167.599V167.599Z" fill="#802A00"/>
<path d="M95.0988 63.2218C95.0729 64.133 94.8829 64.4396 93.9587 64.5432C93.1857 64.6253 92.3824 64.8067 91.6007 64.5432C91.4841 64.5044 91.3546 64.4137 91.2552 64.4396C89.8949 64.7765 88.6079 64.2237 87.2864 64.12C86.6515 64.0725 86.0124 64.0682 85.3776 64.0337C85.1961 64.0547 85.0122 64.031 84.842 63.9646C84.1257 63.5259 83.3355 63.2215 82.51 63.0663C81.6981 62.8763 81.141 62.2544 80.3507 62.1076C80.1825 62.0517 80.0087 62.014 79.8324 61.9953C79.4394 61.9953 79.3358 62.1637 79.4956 62.5308C79.6165 62.8201 79.772 63.0922 79.9275 63.3729C79.9577 63.429 80.0138 63.4766 80.0268 63.5327C80.1639 64.3511 80.5534 65.1061 81.141 65.6921C81.5016 66.1409 81.9674 66.4939 82.497 66.7198C82.633 66.7751 82.7469 66.8739 82.8209 67.0006C82.9325 67.2188 83.1001 67.4032 83.3065 67.5353C83.5129 67.6673 83.7508 67.7422 83.9956 67.7521C84.1828 67.7611 84.3613 67.8343 84.5009 67.9593C85.1271 68.7281 86.1376 68.6158 86.915 69.0304C87.213 69.1858 87.6146 68.8145 88.0119 69.1729C88.1731 69.2523 88.3495 69.296 88.529 69.3012C88.7086 69.3064 88.8872 69.273 89.0527 69.2031C89.368 69.0908 89.4846 69.4147 89.7394 69.3456C89.9251 69.2938 90.1713 69.4277 90.3354 69.3456C90.5917 69.2436 90.8726 69.22 91.1424 69.2776C91.4122 69.3353 91.6589 69.4717 91.8512 69.6695C92.6631 70.3087 92.6631 70.3043 92.0067 71.0298C91.7 71.4163 91.2701 71.6861 90.7888 71.7942C90.2792 71.8893 89.8042 72.1614 89.2989 72.2737C88.8833 72.3386 88.4626 72.3646 88.0421 72.3514C87.5617 72.3254 87.0802 72.3254 86.5997 72.3514C85.9131 72.4334 85.3819 72.075 84.8075 71.8245C84.5786 71.7295 84.3757 71.587 84.1381 71.5092C83.2709 71.2183 82.4371 70.8361 81.6506 70.3691C80.1852 69.4842 78.9168 68.3084 77.9236 66.9142C77.2326 65.9813 76.9217 64.9017 76.3343 63.9473C76.1784 63.7183 76.1095 63.441 76.14 63.1656C76.2998 62.5135 76.0148 61.9435 75.9284 61.3388C75.8534 61.0465 75.8445 60.7411 75.9025 60.4449C76.1832 59.6589 76.2696 58.8167 76.9519 58.1689C77.6343 57.5211 78.4332 57.668 79.1631 57.9012C79.8065 58.1085 80.5407 58.2597 80.9682 58.9118C81.0201 58.9939 81.1971 58.9852 81.3094 59.0327C81.7715 59.2356 82.2379 59.4387 82.6957 59.6503C82.8684 59.7237 83.0196 59.8921 83.188 59.905C84.7945 60.013 86.1808 60.9934 87.8003 61.0409C88.1596 61.0868 88.5238 61.0765 88.88 61.0106C89.1922 60.9186 89.5206 60.8953 89.8426 60.9423C90.1647 60.9893 90.4727 61.1054 90.7456 61.2828C91.0244 61.4707 91.3627 61.5491 91.6957 61.503C92.3199 61.4204 92.9491 61.3829 93.5787 61.3907C93.7953 61.38 94.0103 61.4332 94.1969 61.5438C94.3835 61.6544 94.5334 61.8174 94.6281 62.0126C94.8008 62.4315 95.2456 62.7381 95.0988 63.2218Z" fill="#802A00"/>
<path d="M112.46 34.3554C112.227 35.3573 112.577 36.4284 112.201 37.4303C112.158 37.5141 112.14 37.6085 112.15 37.7023C112.439 38.6006 111.99 39.3996 111.813 40.2331C111.636 41.0666 111.523 41.8741 111.281 42.6601C110.927 43.8046 110.526 44.9361 110.072 46.0416C109.558 47.2854 109.26 48.6328 108.41 49.7168C108.371 51.0124 107.598 52.023 107.226 53.1717C106.951 53.858 106.641 54.5296 106.298 55.1842C106.121 55.616 105.995 56.0479 105.844 56.4538C105.782 56.6853 105.692 56.9086 105.577 57.1189C105.526 57.1841 105.46 57.2362 105.385 57.2707C105.31 57.3053 105.227 57.3213 105.145 57.3175C103.974 57.0886 103.564 56.6309 103.327 55.4001C103.089 54.1693 102.864 53.0335 103.119 51.8242C103.132 51.7109 103.132 51.5964 103.119 51.4831C103.119 51.0296 103.05 50.5762 103.076 50.1271C103.118 49.571 103.189 49.0175 103.288 48.4687C103.361 48.0368 103.538 47.9591 103.923 48.2096C104.022 48.2744 104.078 48.4039 104.177 48.4643C104.228 48.501 104.287 48.5231 104.349 48.5281C104.411 48.5331 104.473 48.5209 104.529 48.4927C104.584 48.4645 104.631 48.4215 104.663 48.3685C104.696 48.3155 104.713 48.2545 104.713 48.1923C104.719 47.95 104.707 47.7075 104.678 47.4668C104.678 47.4236 104.626 47.3804 104.596 47.3372C104.199 47.7691 104.22 47.1429 104.018 47.1127C103.482 47.0392 103.586 46.724 103.689 46.3655C104.156 44.8065 104.523 43.2129 105.093 41.6928C105.559 40.436 105.879 39.1016 106.596 37.9485C106.812 37.5835 106.967 37.1851 107.054 36.7696C107.144 36.3766 107.14 35.9921 107.615 35.8237C107.693 35.7935 107.615 35.4826 107.71 35.3401C108.142 34.58 108.531 33.8199 109.006 33.0857C109.126 32.9039 109.295 32.7595 109.494 32.6686C109.692 32.5778 109.912 32.5443 110.128 32.5719C110.772 32.6031 111.394 32.8124 111.925 33.1764C112.283 33.4485 112.612 33.7853 112.46 34.3554ZM104.929 53.7375L104.812 53.7633L105.045 54.748C105.145 54.4111 105.244 54.0743 105.339 53.7332C105.356 53.6739 105.356 53.6109 105.339 53.5517C105.274 53.3271 105.201 53.1199 105.132 52.8781C105.063 53.1026 104.985 53.3099 104.92 53.556C104.917 53.6166 104.92 53.6775 104.929 53.7375V53.7375Z" fill="#802A00"/>
<path d="M83.3379 50.9588C82.9838 50.8983 82.7376 50.8639 82.4742 50.8163C82.3303 50.7962 82.1927 50.7444 82.0712 50.6648C81.9496 50.5852 81.8472 50.4797 81.7712 50.3559C81.6953 50.2321 81.6477 50.093 81.6319 49.9486C81.616 49.8042 81.6323 49.6581 81.6796 49.5208C81.8091 48.955 81.848 48.372 81.9948 47.7933C82.177 46.9793 82.4269 46.1818 82.7419 45.4094C82.9147 45.0078 82.7981 44.3426 83.489 44.2563C83.489 44.2563 83.5236 44.1656 83.5107 44.1569C83.0788 43.8374 83.5107 43.5179 83.5668 43.2587C83.7909 42.5282 84.0651 41.8138 84.3874 41.1209C84.6767 40.4602 84.8581 40.4084 85.562 40.633C85.8298 40.7194 85.9939 40.6329 85.9939 40.3565C85.9939 40.0801 86.145 39.8297 85.7088 39.8556C85.5854 39.8686 85.4609 39.8686 85.3374 39.8556C85.1647 39.8297 85.0438 39.7693 85.1431 39.5533C85.5318 38.7457 85.9032 37.9295 86.3005 37.1262C86.4128 36.9016 86.4992 36.5476 86.9094 36.7505C86.9353 36.7505 87.121 36.5389 87.1124 36.526C86.6417 35.93 87.2808 35.5759 87.4363 35.144C87.6356 34.6983 87.8895 34.279 88.192 33.8959C88.2859 33.739 88.4221 33.6118 88.5851 33.5288C88.7006 33.4906 88.8047 33.4238 88.8878 33.3347C88.9708 33.2457 89.03 33.1372 89.0601 33.0192C89.1508 32.7126 89.3322 32.4362 89.7511 32.6435C89.7511 32.6435 89.872 32.4146 89.9713 32.3671C90.1107 32.3214 90.2565 32.2981 90.4032 32.298C90.3502 32.1656 90.3055 32.03 90.2693 31.8921C90.2258 31.6951 90.2322 31.4903 90.288 31.2965C90.3439 31.1026 90.4473 30.9258 90.5889 30.7822C91.2194 30.0739 91.8025 29.3225 92.4459 28.6228C92.7957 28.2402 93.1951 27.9061 93.6336 27.6295C93.7974 27.5161 93.9905 27.4523 94.1897 27.4459C94.3889 27.4394 94.5858 27.4905 94.7567 27.593C94.9276 27.6956 95.0653 27.8452 95.1534 28.0241C95.2414 28.2029 95.276 28.4032 95.2531 28.6012C95.0544 30.0566 95.2228 31.5854 94.4714 32.9501C94.3449 33.2666 94.2509 33.595 94.1906 33.9305C94.1564 34.1764 94.0695 34.4121 93.9358 34.6215C93.4349 35.1397 93.4479 35.8436 93.1931 36.4439C92.7612 37.5193 92.1868 38.5514 91.7031 39.6137C91.2712 40.5422 90.658 41.3714 90.2952 42.3345C90.1461 42.6047 89.9832 42.867 89.8072 43.1205C89.5351 43.6647 89.086 44.0749 88.8873 44.7054C88.6329 45.3072 88.2357 45.8379 87.73 46.2515C87.3245 46.6944 86.9803 47.1897 86.7065 47.7241C86.0046 48.7629 85.1632 49.7002 84.206 50.5096C83.9394 50.6997 83.6471 50.851 83.3379 50.9588V50.9588Z" fill="#802A00"/>
<path d="M154.18 150.914C154.027 151.15 153.854 151.373 153.662 151.579C153.619 151.622 153.403 151.501 153.273 151.441C152.694 151.146 152.048 151.011 151.4 151.049C150.752 151.087 150.125 151.297 149.585 151.657C148.835 152.026 148.067 152.356 147.283 152.645C146.389 153.051 145.508 153.479 144.649 153.941C143.996 154.271 143.378 154.666 142.805 155.12C142.019 155.785 141.038 156.226 140.369 156.99C139.605 157.854 138.598 158.381 137.73 159.089C136.72 159.914 135.748 160.79 134.746 161.633C134.245 162.084 133.709 162.496 133.144 162.863C132.742 163.074 132.301 163.199 131.848 163.23C131.74 163.234 131.633 163.213 131.535 163.168C131.437 163.124 131.35 163.057 131.282 162.973C131.214 162.89 131.166 162.791 131.142 162.686C131.118 162.581 131.119 162.472 131.144 162.367C131.219 162.063 131.337 161.773 131.494 161.503C132.254 160.117 133.463 159.102 134.461 157.914C135.136 157.15 135.914 156.483 136.772 155.932C137.588 155.278 138.346 154.556 139.039 153.773C139.266 153.49 139.522 153.233 139.803 153.004C140.999 152.261 142.226 151.57 143.435 150.845C143.833 150.607 144.178 150.279 144.588 150.08C144.999 149.882 145.556 149.648 146.035 149.445C146.557 149.251 147.097 149.107 147.646 149.014C147.706 149.009 147.766 148.996 147.823 148.975C149.119 148.24 150.492 148.444 151.865 148.595C152.621 148.681 153.131 149.165 153.679 149.622C153.934 149.834 153.381 150.111 153.83 150.262C153.994 150.365 154.072 150.707 154.18 150.914Z" fill="#802A00"/>
<path d="M87.3197 77.0754C87.3346 77.2103 87.3175 77.3469 87.2697 77.474C87.2219 77.6011 87.1447 77.7151 87.0446 77.8068C86.9445 77.8985 86.8242 77.9653 86.6934 78.0018C86.5626 78.0383 86.4251 78.0435 86.292 78.0169C84.876 77.8356 83.4706 77.5805 82.0813 77.2525C81.8724 77.2057 81.6853 77.0901 81.5501 76.9243C81.2782 76.5557 81.0343 76.1674 80.8202 75.7626C80.7603 75.6578 80.7229 75.5417 80.7106 75.4216C80.6982 75.3015 80.7112 75.1802 80.7486 75.0655C80.7861 74.9507 80.8471 74.8451 80.9279 74.7554C81.0086 74.6657 81.1074 74.5939 81.2176 74.5447C81.5641 74.3336 81.9791 74.2654 82.3749 74.3547C83.1176 74.5316 83.85 74.7493 84.5688 75.0068C85.182 75.2573 85.8644 75.4041 86.4863 75.7194C86.7516 75.827 86.9756 76.0166 87.1255 76.2606C87.2755 76.5045 87.3435 76.79 87.3197 77.0754Z" fill="#802A00"/>
</svg>
