<svg width="198" height="200" viewBox="0 0 198 200" fill="none" xmlns="http://www.w3.org/2000/svg">
<path d="M84 11L59.5 18L50 23.5L47 10.5L43 6L41 0.5L32.5 13L31 18L39.5 20L46 28L32.5 35.5L17.5 52L8.5 65.5L1.5 92.5L1 107.5C1 107.5 1.5 109 3 109.5C4.5 110 7 108.5 7 108.5L22 98.5L21.5 111L26.5 123.5L29.5 124.5L35.5 114H39L50.5 132L68 149.5L73.5 168.5L70.5 183.5L69.5 193.5L80.5 198.5L94 198L109 196.5L118.5 192L122 192.5L130.5 189L143.5 174.5L148 160L143.5 154L135.5 153.5L125 164L118.5 174L116.5 172.5V167L115.5 145.5L129.5 136.5L137 144L155 150.5L169.5 150L182 145L188.5 136.5L191.5 125L187 116.5L176 111L168 111.5L166 111L155.5 94.5H173.5L175 91.5L195 89V60.5L191 58L176 58.5L172.5 55.5L159.5 56.5L147.5 54.5L137 35.5L130 29C122.667 24.1667 107.9 14.4 107.5 14C107.1 13.6 91.6667 11.8333 84 11Z" fill="#FF9966"/>
<path d="M138.879 151.784L140.959 151.674C141.069 151.674 141.186 151.593 141.266 151.637C142.277 152.216 143.485 152.121 144.547 152.604C145.894 153.204 146.677 154.259 147.519 155.284C148.083 156.001 148.252 157.004 148.779 157.817C149.284 158.513 149.343 159.494 149.533 160.358C149.672 160.966 149.76 161.581 149.811 162.203C149.87 162.547 149.87 162.891 149.811 163.236C149.416 165.637 148.801 167.995 147.959 170.279C147.79 170.909 147.512 171.502 147.146 172.029C146.897 172.366 146.699 172.747 146.611 173.157C146.333 174.211 145.74 175.171 144.927 175.91C144.173 176.796 143.47 177.719 142.826 178.685C142.431 179.081 142.072 179.498 141.735 179.937C140.951 181.072 140.08 182.134 139.099 183.108C139.018 183.21 138.931 183.313 138.85 183.43C137.979 184.755 136.829 185.89 135.482 186.754C133.995 187.713 132.56 188.76 131.191 189.873C130.122 190.774 128.943 191.528 127.655 192.121C127.596 192.151 127.515 192.158 127.486 192.202C126.783 193.132 125.744 193.205 124.711 193.403C123.979 193.615 123.254 193.893 122.58 194.237C121.431 194.699 120.669 194.545 120.003 193.659C119.864 193.425 119.725 193.176 119.637 192.912C119.578 192.78 119.498 192.648 119.439 192.517C119.3 192.612 119.161 192.714 119.044 192.831C118.48 193.395 117.953 193.988 117.389 194.538C116.32 195.548 115.229 196.478 114.079 197.386C113.435 197.935 112.593 198.257 111.751 198.308C111.107 198.382 110.462 198.543 109.869 198.792C108.493 199.275 107.094 199.355 105.718 199.656C104.707 199.875 103.667 199.897 102.657 199.722C102.518 199.7 102.379 199.707 102.262 199.751C100.914 200.234 99.567 199.89 98.2491 199.751C97.18 199.67 96.1183 199.648 95.0786 199.692C94.4342 199.692 93.7899 199.956 93.1456 199.692C92.8673 199.582 92.5305 199.751 92.223 199.751C91.6372 199.751 91.0734 199.722 90.4803 199.707H89.6676L87.9029 199.663C87.2586 199.641 86.585 199.568 85.9406 199.604C84.0076 199.692 82.0672 199.897 80.1049 199.897C78.9261 199.949 77.7179 199.861 76.539 199.641C75.3309 199.363 74.1228 198.967 72.9512 198.572C71.7138 198.147 70.5349 197.54 69.3048 197.02C68.968 196.881 68.6019 196.778 68.6605 196.273C68.6605 196.17 68.4628 195.943 68.4335 195.958C67.7013 196.236 67.9868 195.621 67.899 195.35C67.7891 194.991 67.7013 194.611 67.5622 194.259C67.0569 193.19 66.808 192.011 66.83 190.825C66.8885 189.5 67.1668 188.197 67.7306 186.996C67.9576 186.491 68.0967 185.941 68.126 185.385C68.1553 184.448 68.4042 183.532 68.8801 182.72C69.3268 182.061 69.1877 181.27 69.3268 180.545C69.3854 180.311 69.3854 180.003 69.5245 179.871C70.3665 179.132 70.3372 178.107 70.4251 177.17C70.4837 176.079 70.7033 174.995 71.0987 173.977C71.2671 173.377 71.355 172.762 71.355 172.139C71.4941 171.356 71.582 170.565 71.582 169.767C71.4941 168.734 71.3038 167.709 70.9669 166.714C70.6887 165.981 70.5496 165.191 70.5715 164.4C70.5715 164.048 70.5423 163.704 70.4324 163.375C70.0956 161.617 69.8686 159.816 69.422 158.103C69.0559 156.345 68.331 154.676 67.3205 153.19C66.5883 152.23 65.9733 151.227 65.4095 150.18C65.1532 149.624 64.8237 149.119 64.3697 148.694C63.6668 148.145 63.33 147.325 62.6564 146.754C62.4294 146.549 62.261 146.27 62.0413 146.051C61.8216 145.831 61.5068 145.97 61.5947 145.567C61.0089 145.472 61.2578 144.777 60.8625 144.55C60.6648 144.447 60.4964 144.308 60.3865 144.14C60.2474 143.971 60.1595 143.781 60.1083 143.576C60.0204 143.327 59.7129 143.114 59.4639 142.961C58.6805 142.602 58.0361 141.972 57.67 141.196C57.443 140.625 56.7987 140.222 56.3228 139.739C56.0445 139.497 55.7882 139.219 55.5686 138.912C55.1512 138.187 54.4776 137.63 53.6868 137.345C53.4086 137.228 53.1523 137.022 53.0132 136.752C52.8741 136.422 52.6471 136.122 52.3981 135.873C52.1199 135.631 51.8123 135.448 51.4755 135.331C51.2778 135.294 51.1094 135.199 50.9996 135.053C50.8898 134.906 50.8019 134.723 50.8312 134.533C50.8312 134.247 50.3553 133.962 50.099 133.684C49.85 133.405 49.3668 133.2 49.3961 132.629C49.3961 132.483 49.0007 132.212 48.781 132.197C48.0488 132.146 47.712 131.633 47.3532 131.128C46.7089 130.286 46.2329 129.342 45.3323 128.705C44.7172 128.265 44.0729 127.709 44.0143 126.801C43.9557 126.567 43.8166 126.347 43.6482 126.178C42.4986 124.729 41.7152 123.045 40.8146 121.456C40.3386 120.614 39.9432 119.742 39.6357 118.842C39.1891 117.868 38.6545 116.938 38.0395 116.052C37.8711 115.737 37.6221 115.715 37.3659 115.986C37.1975 116.155 37.029 116.338 36.8899 116.543C36.3261 117.516 35.7696 118.483 35.1766 119.406C34.9496 119.742 34.6713 120.065 34.3931 120.379C33.9172 121.002 33.4705 121.661 32.9067 122.239C32.1745 123.015 31.391 123.74 30.6076 124.458C30.4977 124.56 30.2708 124.538 30.1316 124.568C29.8241 124.612 29.5166 124.641 29.231 124.677C29.1432 124.319 29.1432 123.945 29.231 123.586C29.5385 122.788 29.9047 122.005 30.322 121.251C30.9078 120.313 31.3617 119.303 31.6693 118.241C31.7571 117.809 32.2038 117.443 32.482 117.062C32.6504 116.843 32.958 116.667 33.0165 116.44C33.2435 115.188 34.1368 114.236 34.4736 113.043C34.5029 112.918 34.6128 112.706 34.6713 112.713C35.2351 112.801 34.8983 112.31 35.0374 112.193C35.7111 111.571 35.4035 110.963 35.0374 110.421C33.9464 108.906 33.3534 107.178 32.7383 105.45C32.7383 105.42 32.7383 105.376 32.709 105.354C32.482 105.054 32.2331 104.754 32.0061 104.461C31.8084 104.739 31.64 105.04 31.5302 105.354C31.2812 106.175 31.0835 107.024 30.8272 107.851C30.549 108.847 30.2634 109.85 29.9047 110.817C29.7948 111.102 29.5971 111.337 29.6777 111.673C29.6777 111.776 29.6777 111.878 29.6191 111.981C29.5093 112.596 29.0846 113.079 29.004 112.889C28.8356 112.53 28.7551 112.127 28.8063 111.732C28.8942 111.417 29.2237 111.183 28.7185 110.905C28.4915 110.765 28.6086 110.509 28.8283 110.451C29.3921 110.29 29.275 110.18 28.8576 109.967C28.7697 109.909 28.7185 109.836 28.6599 109.755C28.6013 109.674 28.5794 109.579 28.5501 109.484C28.4402 109.008 28.3817 108.518 28.3817 108.027C28.4402 106.716 28.5208 105.413 28.6086 104.102C28.6086 103.582 28.6672 103.063 28.8063 102.557C29.0333 101.657 29.3921 100.778 29.8461 99.9654C30.0731 99.6579 30.2122 99.2918 30.2634 98.911C30.2927 98.5303 30.2341 98.1422 30.0657 97.798C29.3628 96.2604 29.1432 94.6056 28.7185 92.9948C28.7185 92.863 28.6599 92.7312 28.6086 92.6067C28.5501 92.5408 28.3304 92.4969 28.3011 92.5408C28.0229 92.819 27.7959 93.1192 27.5689 93.4268C27.0637 94.1004 26.6463 94.8033 26.1411 95.455C25.6652 96.1872 25.0721 96.8169 24.3765 97.3148C24.1495 97.4319 23.9811 97.615 23.8712 97.8273C23.7614 98.0397 23.7028 98.2886 23.7321 98.5303C23.7321 100.544 23.7614 102.55 23.7321 104.564C23.7321 105.391 23.593 106.218 23.5051 107.039C23.5051 107.214 23.3953 107.419 23.4466 107.551C24.1202 108.979 23.615 110.582 24.2007 112.025C24.3692 112.472 24.3984 112.962 24.5668 113.409C25.4894 115.957 25.8848 118.644 26.7269 121.214C26.9538 122.02 27.0637 122.854 27.0637 123.689C27.093 124.143 26.8147 124.289 26.4486 124.033C25.775 123.55 24.9622 123.132 24.684 122.225C24.6254 122.129 24.5742 122.049 24.4863 121.983C22.9999 120.335 22.3263 118.256 21.6234 116.235C21.0889 114.719 20.979 113.05 20.7228 111.454C20.5543 110.421 20.4152 109.389 20.2761 108.356C20.2761 108.225 20.1663 108.056 20.2175 107.946C20.752 106.672 20.2761 105.34 20.4445 104.036C20.4738 103.802 20.5836 103.553 20.5836 103.334C20.6422 102.902 20.6422 102.462 20.6422 102.023C20.5836 101.986 20.5543 101.964 20.5031 101.95C20.4445 101.935 20.3933 101.928 20.3347 101.935C20.137 102.023 19.9686 102.147 19.8295 102.301C18.6799 103.539 17.3912 104.652 16.0146 105.625C15.0042 106.482 13.9132 107.222 12.7344 107.844C12.0607 108.166 11.3285 108.4 10.6329 108.671C10.4352 108.723 10.2375 108.781 10.0471 108.869C9.17581 109.382 8.16537 109.242 7.27207 109.528C7.19153 109.543 7.13295 109.543 7.04509 109.528C6.64969 109.528 6.17376 109.601 5.97606 109.096C5.77836 108.671 5.97606 108.254 6.452 107.844C6.95722 107.39 7.54299 107.009 8.16537 106.716C9.14653 106.255 10.0764 105.728 10.9697 105.142C11.0283 105.127 11.0576 105.105 11.0576 105.076C11.8411 104.015 12.9906 103.421 14.0304 102.697C14.2281 102.557 14.3379 102.345 14.5356 102.184C14.8138 101.935 15.0994 101.547 15.4069 101.488C16.3881 101.313 16.6663 100.566 17.1203 99.9068C17.6255 99.2478 18.1893 98.6254 18.7751 98.0397C19.1924 97.593 19.6757 97.1903 20.1223 96.7656C20.2907 96.6192 20.4299 96.4654 20.569 96.3117C20.9863 95.7918 21.4696 95.2793 21.887 94.7374C22.3043 94.1956 22.6997 93.6391 23.0951 93.09C23.2928 92.7312 23.5418 92.3944 23.8273 92.0941C25.1453 90.9739 26.2436 89.6046 27.0564 88.0597C27.3932 87.4959 27.5616 86.8369 27.503 86.1779C27.3346 84.6549 27.3346 83.1173 27.0856 81.6089C26.888 80.2909 26.9758 78.9803 26.888 77.655C26.8587 77.3548 26.8587 77.0399 26.888 76.7397C27.0856 75.9196 27.1149 75.0776 26.9465 74.2575C26.888 74.0525 26.888 73.8402 26.9172 73.6352C26.9465 72.1122 27.0856 70.5892 27.3346 69.0808C27.503 67.9898 27.6128 66.8842 27.6714 65.7786C27.6714 64.8047 27.8398 63.8455 28.1474 62.9303C28.2572 62.6227 28.3743 62.2347 28.0375 62.0882C27.7007 61.9418 27.5616 62.3518 27.3932 62.6008C26.8074 63.4282 26.2436 64.2482 25.7091 65.0903C25.4821 65.4271 25.0648 65.3758 24.8671 65.7786C24.3618 66.6206 23.8273 67.426 23.2416 68.2022C22.9633 68.6195 22.8242 69.176 22.2311 69.3444C22.1432 69.3737 22.0627 69.5494 22.0041 69.6666C21.1914 71.1969 20.4079 72.7272 19.6171 74.2722C19.478 74.7261 19.3096 75.1728 19.1119 75.6121C18.636 76.2784 18.2113 76.996 17.8745 77.7428C17.5376 78.497 17.091 79.1999 16.6956 79.9395C16.1318 81.0451 15.5753 82.1507 15.0701 83.2783C14.6234 84.2888 14.2573 85.3359 13.8327 86.339C13.2689 87.613 12.6831 88.8651 12.09 90.1245C11.9802 90.4027 11.8923 90.703 11.7532 90.9739C11.6653 91.113 11.5262 91.3107 11.4164 91.3107C10.7427 91.2814 10.9404 91.4059 11.3285 91.6475C11.4164 91.6988 11.4164 91.9697 11.3578 92.1015C10.9917 93.0021 10.6036 93.8807 10.2375 94.7813C9.95928 95.4843 9.703 96.2092 9.42477 96.9121C9.28565 97.2562 9.17581 97.7981 8.72184 97.6809C8.18733 97.5345 8.41432 96.9706 8.47289 96.5972C8.86829 94.5617 9.28565 92.5261 9.68104 90.4979C9.84945 89.5753 9.98857 88.6454 10.2448 87.7448C10.5231 86.6612 10.8892 85.6068 11.1967 84.5451C11.3944 84.0618 11.5335 83.5712 11.6141 83.0587C11.8118 81.9091 12.1779 80.7888 12.7051 79.7491C12.932 79.2073 13.1517 78.6581 13.3201 78.0943C13.3494 78.0284 13.3494 77.9625 13.3787 77.8966C13.9645 76.9301 14.5283 75.9563 15.1214 74.9897C15.2605 74.7554 15.4289 74.5431 15.5387 74.2941C16.1025 73.1446 16.6297 71.9877 17.1642 70.8381C17.2521 70.6185 17.3326 70.3915 17.4132 70.1645C17.523 69.8423 17.523 69.3883 17.75 69.1906C18.7311 68.3999 18.8703 67.0819 19.683 66.1813C20.5251 65.2807 21.3085 64.2189 22.0993 63.2085C22.6851 62.447 23.2489 61.6782 23.7834 60.8801C24.457 59.855 25.2112 58.9397 25.8848 57.8707C26.3022 57.1897 27.093 56.7211 27.481 56.0255C28.0156 55.2128 28.799 54.5977 29.7289 54.2902C29.8973 54.2023 30.0365 54.0705 30.1243 53.9168C30.2341 53.7557 30.2927 53.5799 30.322 53.3896C30.5197 52.24 30.9371 51.1344 31.5594 50.1386C31.5594 48.8572 32.5113 47.9346 32.7969 46.7411C33.1923 45.5183 33.7195 44.3468 34.3418 43.2265C34.5908 42.714 35.096 42.3186 35.3523 41.7987C36.2749 39.7412 37.4318 37.8008 38.801 36.0069C39.0792 35.6408 39.1671 35.0917 39.4453 34.7256C40.0604 33.9714 40.734 33.2685 41.3784 32.5582C41.4882 32.463 41.5761 32.3605 41.6566 32.2434C41.6859 32.1628 41.7152 31.9944 41.6859 31.9651C41.5761 31.8846 41.4589 31.8553 41.3198 31.8699C41.0416 31.9725 40.756 32.1116 40.4778 32.28C39.0207 33.2538 37.5343 34.2203 36.0699 35.2308C35.7037 35.4871 35.3669 35.7799 35.0594 36.1094C34.2174 37.0393 33.0092 37.5372 32.1965 38.5038C31.7205 38.9577 31.2153 39.3751 30.6808 39.7412C29.4214 40.7736 28.4329 42.0916 27.1149 43.0727C26.412 43.578 25.8775 44.2443 25.5407 45.0131C25.343 45.3792 25.094 45.716 24.7865 46.0089C23.9152 46.9461 23.0219 47.8541 22.1213 48.7913C21.9529 49.011 21.8137 49.2379 21.6746 49.4796C21.3085 50.1898 20.8619 50.8488 20.3566 51.4565C19.4048 52.3498 18.9508 53.514 18.2772 54.5611C17.7719 55.2933 17.4058 56.0621 16.9299 56.7943C15.8902 58.3686 14.7992 59.8916 13.818 61.4951C12.8076 63.1353 11.907 64.8486 11.1528 66.6206C10.6476 67.8653 10.0032 69.0442 9.41012 70.2743C9.41012 70.3036 9.38083 70.3329 9.38083 70.3622C8.31181 71.8193 8.03357 73.5912 7.41851 75.2167C7.35994 75.3339 7.33065 75.5535 7.2501 75.5682C6.80346 75.6634 6.40806 75.7366 7.02312 76.2052C7.0817 76.2418 6.99383 76.4542 6.96454 76.5786C6.73756 77.4134 6.5179 78.2481 6.29091 79.0828C6.26162 79.2878 6.20305 79.4928 6.1225 79.6905C5.5587 80.7669 5.22188 81.9457 5.11205 83.1612C5.03151 83.8129 4.83381 84.4499 4.60683 85.0649C4.2993 85.9729 4.13089 86.9174 4.10161 87.8693C4.07232 88.0743 4.04303 88.2793 3.96249 88.4697C3.56709 89.5241 3.39868 90.6517 3.48655 91.7793C3.48655 92.0575 3.42797 92.3285 3.31814 92.592C2.95204 94.1883 2.75434 95.8064 2.6738 97.4393C2.59325 98.7499 2.33698 100.061 2.19786 101.364C2.05874 102.433 2.00017 103.502 1.86105 104.564C1.75121 105.537 1.58281 106.504 1.4144 107.449C1.4144 107.544 1.2167 107.617 1.13616 107.698C1.04829 107.602 0.938462 107.507 0.909173 107.397C0.740765 106.365 0.572357 105.332 0.433238 104.3C0.206253 102.931 -0.101275 101.569 0.206253 100.178C-0.240395 99.0574 0.462526 97.9079 0.067133 96.7583C-0.0426983 96.2751 -0.020732 95.7625 0.154998 95.3012C0.26483 95.0523 0.323406 94.7814 0.352695 94.5104C0.352695 94.2395 0.294118 93.9686 0.213575 93.7123C0.154998 93.6318 0.154998 93.5439 0.154998 93.4634C0.184287 93.3828 0.213575 93.295 0.26483 93.2291C0.799342 92.7751 0.491814 92.2186 0.521103 91.6841C0.521103 90.864 0.352695 90.0147 0.887207 89.2605C0.96775 89.0701 0.997039 88.8578 0.945784 88.6601C0.748087 87.3641 1.17277 86.1852 1.59013 85.0137C1.6487 84.8672 1.69996 84.7208 1.69996 84.5744C1.75854 84.1643 1.75854 83.747 1.83908 83.3442C2.00749 82.2899 2.14661 81.2282 2.40288 80.1957C2.65915 79.1633 3.01794 78.1456 3.32546 77.1205C3.55245 76.3956 3.74282 75.6634 3.94052 74.9238C3.96981 74.792 3.96981 74.6163 4.05035 74.5358C4.66541 73.9207 4.58486 73.0787 4.80453 72.3245C5.00222 71.768 5.22188 71.2262 5.47816 70.6917C6.09321 69.2639 6.76685 67.858 7.30136 66.3936C7.49906 65.8445 7.77729 65.3758 8.03357 64.8633C8.5095 63.8309 8.93418 62.7911 9.43941 61.7734C9.68836 61.2535 10.0838 60.8069 10.362 60.2723C11.0063 59.1374 11.5701 57.9659 12.2145 56.8383C12.5513 56.2745 12.9467 55.7473 13.3933 55.264C14.067 54.5684 14.5429 53.7117 14.7699 52.7818C14.7699 52.6574 14.9383 52.5549 15.0188 52.445C16.1684 50.8122 17.3766 49.216 18.4675 47.5539C19.1119 46.58 19.8734 45.6794 20.7154 44.8813C21.0522 44.5738 20.9937 43.988 21.4696 43.7171C21.7771 43.5121 22.0554 43.2631 22.3409 42.9849C22.6485 42.7066 22.9267 42.4064 23.1537 42.0696C23.5491 41.4106 24.1056 40.8615 24.7792 40.4807C25.1453 40.2391 25.4821 39.9389 25.7311 39.5728C27.1589 37.9107 28.7917 36.4463 30.5856 35.2088C32.0427 34.1618 33.4998 33.0415 34.9349 31.9578C35.1326 31.7528 35.3523 31.5917 35.6086 31.4746C36.5604 31.1377 37.461 30.6691 38.2738 30.0834C39.9872 29.1022 41.8104 28.3187 43.7141 27.7549C44.1608 27.6012 44.2193 27.462 43.9704 27.0813C43.7434 26.7005 43.3553 26.2393 43.0478 25.8146C42.7696 25.3899 42.5719 25.0604 42.3449 24.7016C42.0959 24.3428 41.8982 23.9474 41.5907 23.8669C40.9171 23.6838 40.5803 23.1786 40.1336 22.7173C39.211 21.5751 37.8638 20.8502 36.3993 20.6818C35.6159 20.55 34.8251 20.5793 34.0709 20.7697C33.3387 20.9161 32.6138 20.9307 31.8816 20.8136C31.4862 20.7184 31.1274 20.5134 30.8712 20.2132C30.5929 19.913 30.4245 19.5395 30.3659 19.1442C30.3952 18.9538 30.3659 18.7707 30.2854 18.6023C30.1975 18.4339 30.0877 18.2875 29.9193 18.1776C29.4434 17.8189 29.5239 17.277 29.6118 16.7205C30.0072 14.5605 31.0982 12.6934 31.9402 10.7164C31.9695 10.6871 31.9695 10.6578 31.9988 10.6286C32.6724 9.88171 33.2362 9.03235 33.6243 8.10244C33.9318 7.35559 34.4663 6.73321 34.7738 5.95707C35.1107 5.18093 35.7843 4.63909 36.3188 4.01671C36.4286 3.88492 36.597 3.79705 36.6849 3.65793C37.6075 2.20083 39.1232 1.36612 40.3899 0.319057C40.4997 0.22387 40.6169 0.143327 40.7267 0.08475C40.8951 0.0334954 41.1441 -0.0397255 41.2319 0.0261733C41.2612 0.106716 41.3198 0.194581 41.3418 0.282446V0.568008C41.1441 1.63703 40.756 2.6548 40.1336 3.54078C39.8554 3.90688 39.6577 4.30227 39.46 4.71963C39.2623 5.11503 39.0939 5.53971 38.8742 5.91313C37.6661 7.87546 36.5751 9.911 35.2571 11.8294C34.4443 13.162 33.7121 14.5459 33.0385 15.959C32.9506 16.1494 32.8701 16.3398 32.8115 16.5448C32.731 16.845 32.8701 17.0281 33.1483 17.072C33.3167 17.1086 33.4852 17.1233 33.6828 17.1159C34.7226 17.072 35.7623 17.0061 36.7947 16.9695C37.073 16.9402 37.3585 16.9695 37.6075 17.0427C38.6985 17.4674 39.8261 17.7969 40.7487 18.5877C41.8689 19.5176 43.1064 20.2864 44.1974 21.2529C44.871 21.9778 45.5153 22.7539 46.1084 23.574C46.1377 23.6253 46.167 23.7058 46.189 23.7571C46.416 24.0133 46.5844 24.4234 47.0017 24.2403C47.4191 24.0573 47.2287 23.6546 47.1994 23.3324C47.0896 22.7173 47.0017 22.095 47.0017 21.4726C47.031 20.9234 47.1994 20.3816 47.4191 19.891C47.5875 19.5542 47.7266 19.3785 47.3605 19.0343C47.1116 18.7195 46.9651 18.3094 46.9944 17.8921C47.0237 17.3795 46.9358 16.8597 46.7674 16.3764C46.6576 15.8346 46.6283 15.2927 46.6283 14.7436C46.6283 14.3335 46.599 13.9162 46.5404 13.5061C46.2915 12.4225 45.9254 11.3827 45.4202 10.3869C45.3103 10.1746 45.1712 9.97689 45.0028 9.79384C44.1901 8.76875 43.348 7.74366 42.5353 6.70392C42.3961 6.54283 42.279 6.35978 42.2277 6.16941C42.1692 6.02297 42.1399 5.8692 42.1692 5.72276C42.1984 5.57632 42.279 5.4372 42.3668 5.32004C42.4767 5.20289 42.5938 5.11503 42.733 5.06377C42.8721 5.01252 43.0405 4.99787 43.1796 5.01984C43.6555 5.07842 44.1315 5.22486 44.5854 5.45916C45.9034 6.16941 47.053 7.16521 47.9829 8.36604C49.3009 10.3064 50.3406 12.3859 50.3113 14.8681C50.3113 15.6954 50.6481 16.5302 50.8458 17.3649C50.9044 17.6285 50.9337 17.9067 50.9557 18.185C50.8971 19.254 51.2632 20.3157 50.9557 21.392C50.9264 21.5019 50.9557 21.6044 50.985 21.7069C51.0655 22.1389 51.2632 22.2341 51.6293 21.9778C52.7203 21.187 53.76 20.323 54.9096 19.5981C56.8426 18.3827 58.5267 16.7718 60.7746 16.0469C60.8844 15.9883 61.0016 15.9078 61.1114 15.8199C62.012 15.1829 62.876 14.5312 64.0256 14.3116C64.7798 14.1505 65.512 13.8356 66.1563 13.3817C66.6908 13.0082 67.3059 13.0595 67.8111 12.8105C68.763 12.3273 69.9126 12.3712 70.7253 11.5878C70.7839 11.5219 70.8937 11.4193 70.9816 11.4413C72.0506 11.7049 72.9146 11.0972 73.9251 10.9581C74.9062 10.8189 75.946 10.8043 76.8466 10.2771C76.9052 10.2405 76.9857 10.2185 77.0443 10.2258C78.084 10.3943 78.9553 9.87439 79.9072 9.70598C80.244 9.65472 80.5808 9.62543 80.9469 9.61811C82.1844 9.58882 83.4145 9.5815 84.6519 9.55221C84.8203 9.54489 84.9887 9.50096 85.1571 9.44238C85.7722 9.20075 86.3946 8.95912 87.0389 9.36916C87.0682 9.37648 87.1268 9.37648 87.1488 9.36916C87.9322 9.2154 88.723 9.41309 89.4772 9.39845C90.5169 9.41309 91.5567 9.48631 92.5598 9.64008C92.8087 9.68401 93.065 9.70598 93.292 9.70598C94.61 9.55221 95.8767 10.0794 97.1947 9.99154C97.839 10.5627 98.7103 10.0794 99.4645 10.4455C100.167 10.7311 100.892 10.9434 101.654 11.0752C102.298 11.229 102.943 11.3315 103.587 11.4633C103.755 11.4779 103.924 11.5219 104.063 11.5951C105.3 12.4005 106.838 12.1589 108.075 12.9423C109.759 12.979 110.968 14.1871 112.454 14.7143C112.82 14.912 113.208 15.0657 113.603 15.1683C114.446 15.2268 115.031 15.7394 115.683 16.1055C116.13 16.4203 116.554 16.7645 116.942 17.1525C117.052 17.2477 117.169 17.3283 117.279 17.3795C118.626 17.8189 119.857 18.4632 120.984 19.2833C122.163 20.0374 123.481 20.6232 124.352 21.8314C124.521 22.095 125.026 22.1316 125.304 22.3586C126.622 23.3763 127.882 24.482 129.229 25.4485C130.774 26.5614 132.004 28.0039 133.49 29.1974C134.025 29.6953 134.501 30.2518 134.896 30.8595C135.738 31.8919 136.661 32.5363 138.125 32.4118C138.879 32.3459 139.612 32.0969 140.424 32.0969C141.742 32.0969 143.031 31.9871 144.349 31.9139C144.488 31.9139 144.656 31.9139 144.744 31.8333C145.528 31.0645 146.538 31.4087 147.439 31.2549C148.361 31.0572 149.321 31.0572 150.214 31.2549C151.137 31.4672 152.066 31.5331 152.989 31.4526C154.951 31.2915 156.943 31.394 158.905 31.416C160.56 31.416 162.215 31.4526 163.87 31.5478C164.88 31.6137 165.891 31.8333 166.901 31.9725C167.267 32.031 167.655 32.075 168.021 32.0969C169.984 32.236 171.924 32.712 173.747 33.5174C174.311 33.7517 174.926 33.8396 175.512 34.0959C176.156 34.3741 176.8 34.7182 177.364 35.1429C178.206 35.758 178.938 36.4755 179.722 37.1492C179.781 37.1931 179.832 37.2736 179.832 37.3103C179.605 38.0425 180.139 38.4232 180.535 38.8918C180.645 39.1335 180.732 39.4044 180.762 39.6753C180.842 40.078 180.93 40.488 181.04 40.8761C181.179 41.1836 181.238 41.5131 181.208 41.85C181.208 42.1794 181.099 42.5016 180.93 42.7872C180.681 43.1679 180.564 43.6146 180.564 44.0685C180.564 45.2254 180.198 46.148 178.909 46.4922C178.433 46.6972 178.009 47.034 177.701 47.466C177.254 48.0078 176.691 48.4179 176.017 48.6595C175.314 48.9524 174.611 49.2526 173.916 49.5382C173.579 49.6626 173.242 49.7725 172.934 49.8896C172.488 50.058 172.034 50.2264 171.587 50.3729C171.221 50.5413 170.833 50.6658 170.408 50.7463C168.248 50.9952 166.059 51.2076 163.87 51.4346C163.782 51.4346 163.672 51.4492 163.591 51.4858C162.046 52.2766 160.479 52.24 158.847 51.8739C158.481 51.7641 158.114 51.7494 157.756 51.8226C156.408 52.2254 155.061 52.0277 153.743 51.8226C153.209 51.6762 152.652 51.6762 152.118 51.8226C151.612 51.9252 151.107 51.9544 150.602 51.9105C149.76 51.9398 149.452 52.3425 149.679 53.1187C149.738 53.3164 149.819 53.5067 149.906 53.7044C150.155 54.5538 150.382 54.6709 151.224 54.627C152.293 54.5538 153.355 54.5831 154.424 54.5318C155.01 54.4952 155.603 54.422 156.189 54.3122C157.031 54.173 157.873 54.012 158.715 54.3634C158.803 54.4 158.942 54.3268 159.081 54.3122L162.251 53.9387C162.42 53.9387 162.588 53.9241 162.757 53.8875C164.016 53.4408 165.283 53.6458 166.542 53.6678C166.82 53.6825 167.106 53.6385 167.355 53.536C167.999 53.2578 168.761 53.1846 169.456 53.331C170.071 53.3896 170.665 53.3896 171.28 53.331C171.843 53.2944 172.371 53.1772 172.934 53.1406C173.242 53.1113 173.52 53.1406 173.806 53.2431C174.084 53.3383 174.37 53.4921 174.56 53.6971C174.787 53.9021 174.955 54.1511 175.065 54.4293C175.175 54.7075 175.234 55.0078 175.204 55.3006C175.204 56.2379 175.6 56.6552 176.522 56.6845C176.8 56.6845 177.086 56.6552 177.335 56.5966C177.503 56.5674 177.73 56.4136 177.84 56.4795C178.572 56.9188 179.268 56.4136 180 56.4282C180.754 56.3916 181.516 56.3111 182.27 56.1793C182.409 56.1793 182.578 56.1134 182.687 56.1793C183.39 56.5234 184.115 56.3331 184.847 56.2891C187.066 56.1573 189.277 55.9889 191.496 55.9011C192.902 55.8498 194.33 55.901 195.735 55.945C195.962 55.945 196.241 56.2086 196.35 56.4282C196.826 57.2483 197.053 58.1929 196.965 59.1374C196.885 60.741 197.053 62.3152 197.105 63.9041C197.192 65.0317 197.192 66.1739 197.046 67.3015C196.907 68.1143 196.46 68.8319 197.134 69.6007C197.222 69.6812 197.075 69.9375 197.075 70.0839C197.046 70.699 197.075 71.3067 197.163 71.9218C197.302 72.7052 197.273 73.5034 197.105 74.2722C196.965 74.9019 196.965 75.5462 197.105 76.1686C197.163 76.9374 197.163 77.6989 197.134 78.4677C197.134 79.1267 197.244 79.7784 197.273 80.4374V82.0922C197.273 83.8861 197.332 85.68 197.361 87.4739C197.39 87.7155 197.39 87.9645 197.302 88.1915C197.222 88.4258 197.105 88.6381 196.936 88.8138C196.797 89.0042 196.738 89.2312 196.768 89.4655C196.797 90.476 196.402 90.886 195.421 90.8787C194.974 90.8933 194.52 90.9446 194.073 91.0324C193.034 91.2155 191.972 91.4498 190.903 91.6182C190.368 91.6988 189.812 91.6548 189.277 91.6768C188.86 91.6621 188.435 91.7061 188.04 91.8086C187.117 92.1454 186.129 92.2699 185.177 92.1747C184.782 92.1747 184.423 92.2113 184.027 92.2918C183.918 92.3285 183.778 92.3651 183.632 92.387C181.867 92.431 180.125 92.5042 178.36 92.592C177.884 92.592 177.437 92.4017 176.932 92.5628C176.566 92.6799 176.398 92.841 176.427 93.2071V94.1443C176.537 95.2426 176.119 95.8504 175.021 95.9675C174.04 96.0774 173.03 96.1725 172.048 96.275C171.821 96.2897 171.631 96.2897 171.433 96.275C170.73 96.2238 170.028 96.2092 169.354 96.2311C166.63 96.4142 163.936 96.4508 161.219 96.3556C160.377 96.3556 159.506 96.5679 158.664 96.297C158.554 96.2604 158.385 96.3336 158.246 96.3776C157.99 96.4581 157.909 96.6045 158.107 96.8315C159.198 98.2227 160.326 99.5846 161.358 100.998C162.339 102.279 163.438 103.451 164.192 104.879C164.389 105.164 164.609 105.435 164.865 105.669C165.034 105.83 165.202 106.013 165.341 106.218C166.074 107.763 167.333 108.92 168.263 110.304C168.373 110.487 168.541 110.619 168.739 110.692C168.937 110.765 169.134 110.765 169.325 110.692C170.752 110.414 172.217 110.246 173.645 109.982C174.765 109.828 175.914 109.872 177.042 110.099C177.408 110.172 177.796 110.172 178.162 110.099C179.678 109.726 180.967 110.202 182.146 111.066C182.255 111.176 182.395 111.249 182.541 111.293C182.68 111.329 182.848 111.329 182.988 111.278C183.632 111.088 184.225 111.498 184.73 111.827C186.356 112.991 187.871 114.346 189.219 115.847C189.307 115.92 189.358 116.001 189.416 116.096C190.456 118.615 191.833 121.024 192.279 123.762C192.418 124.758 192.448 125.768 192.338 126.764C192.25 128.038 192.001 129.298 191.774 130.557C191.408 132.344 190.874 134.101 190.2 135.807C190.171 135.902 190.141 136.041 190.061 136.085C189.358 136.407 189.358 137.11 189.16 137.703C189.072 137.938 188.962 138.157 188.823 138.348C187.784 139.607 187.029 141.057 185.821 142.192C185.257 142.712 184.84 143.356 184.364 143.92C184.057 144.257 183.749 144.564 183.383 144.835C182.819 145.267 182.233 145.699 181.699 146.19C180.945 146.863 180.103 147.427 179.202 147.859C177.796 148.518 176.508 149.448 174.911 149.675C174.575 149.785 174.267 149.917 173.959 150.07C173.344 150.268 172.7 150.459 172.048 150.605C171.177 150.81 170.306 151.015 169.412 151.139C167.897 151.344 166.381 151.513 164.865 151.674C163.914 151.776 162.932 151.835 161.973 151.908C160.992 151.982 159.982 152.069 158.971 152.113C158.605 152.099 158.239 152.062 157.88 152.003C156.621 151.886 155.383 151.769 154.146 151.674C153.809 151.652 153.443 151.762 153.106 151.725C152.374 151.711 151.649 151.564 150.975 151.293C150.302 151 149.599 150.81 148.874 150.715C147.021 150.378 145.337 149.477 143.544 148.994C142.394 148.687 141.215 148.452 140.234 147.801C138.916 146.937 137.342 146.439 136.251 145.194C135.745 144.755 135.211 144.389 134.596 144.118C133.476 143.561 132.465 142.748 131.704 141.76C131.594 141.628 131.425 141.526 131.286 141.467C130.92 141.335 130.613 141.108 130.364 140.808C130.137 140.508 129.998 140.149 129.946 139.776C129.807 139.087 129.61 139.036 129.046 139.439C128.314 139.922 127.64 140.479 126.915 140.947C125.678 141.804 124.418 142.58 123.1 143.276C122.09 143.744 121.138 144.257 120.179 144.835C119.564 145.135 118.919 145.384 118.246 145.589C117.601 145.868 117.513 146.073 117.631 146.776C117.828 148.072 118.026 149.375 118.246 150.656C118.304 150.993 118.443 151.323 118.495 151.667C118.722 152.655 118.861 153.666 118.912 154.676C118.883 155.467 118.941 156.265 119.051 157.048C119.139 157.663 119.161 158.286 119.139 158.901C119.198 160.248 119.278 161.595 119.249 162.935C119.249 163.968 119.051 165 119 166.033C118.971 166.582 118.971 167.138 119 167.687C119.029 168.171 118.941 168.654 118.692 169.079C118.524 169.525 118.414 170.001 118.385 170.484C118.275 171.239 117.909 171.934 117.345 172.447C117.206 172.564 117.067 172.652 116.898 172.696C116.73 172.74 116.562 172.74 116.393 172.696C116.254 172.652 116.086 172.564 115.976 172.447C115.866 172.33 115.778 172.183 115.727 172.015C115.617 171.583 115.529 171.136 115.5 170.697C115.441 170.36 115.412 170.023 115.39 169.686C115.331 169.313 115.302 168.932 115.302 168.544C115.331 167.299 115.39 166.055 115.441 164.81V164.502C116.086 163.045 115.551 161.632 115.353 160.219C115.185 159.245 115.185 158.242 115.353 157.268C115.493 156.558 115.214 155.767 115.126 155.006C115.068 154.698 115.017 154.39 114.987 154.083C115.046 153.043 114.878 152.003 114.424 151.044C114.314 150.62 114.255 150.18 114.314 149.734C114.314 149.426 114.314 149.119 114.255 148.811C114.145 147.874 114.087 147.932 113.186 147.903C112.037 147.867 111.055 148.386 109.957 148.525C108.302 148.774 106.757 149.441 105.161 149.836C103.704 150.246 102.188 150.422 100.673 150.363C99.772 150.297 99.7208 150.363 99.7208 151.257C99.7208 151.535 99.7501 151.813 99.8013 152.091C99.999 153.175 100.248 154.251 100.416 155.342C100.556 156.477 100.753 157.598 101.002 158.711C101.09 158.864 101.112 159.025 101.141 159.194C101.171 160.717 101.339 162.24 101.617 163.741C101.756 164.656 101.786 165.579 101.895 166.501C101.895 166.574 101.925 166.64 101.925 166.706C101.895 168.398 101.925 170.104 101.815 171.773C101.786 172.776 101.844 173.779 101.983 174.768C102.071 175.449 102.262 176.122 101.895 176.789C101.815 176.906 101.866 177.067 101.837 177.199C101.749 177.623 101.976 177.799 102.371 177.755C102.877 177.697 103.382 177.609 103.916 177.514C104.561 177.411 105.205 177.309 105.849 177.191C106.245 177.118 106.633 176.979 107.058 176.928C107.475 176.869 107.929 176.84 108.376 176.847C109.218 176.847 110.06 176.928 110.872 176.884C111.853 176.803 112.835 176.869 113.787 177.089C114.014 177.126 114.262 177.14 114.519 177.133C114.995 177.111 115.471 177.272 115.866 177.594C116.034 177.719 116.203 177.814 116.43 177.858C117.213 178.129 117.975 178.422 118.451 179.205C118.48 179.256 118.539 179.3 118.59 179.337C118.641 179.373 118.7 179.395 118.758 179.403C119.769 179.476 120.274 180.208 120.75 180.918C121.167 181.438 121.482 182.024 121.702 182.654C121.98 183.825 122.317 185.004 122.039 186.264C121.672 187.867 120.779 189.222 120.157 190.708C120.098 190.869 119.959 191.001 119.908 191.162C119.879 191.352 119.849 191.543 119.849 191.74C119.988 191.675 120.127 191.594 120.267 191.499C120.603 191.235 120.969 191.045 121.387 190.95C121.782 190.855 122.2 190.855 122.595 190.95C122.763 190.964 122.932 190.935 123.1 190.869C123.715 190.664 124.338 190.437 124.953 190.217C125.063 190.196 125.15 190.152 125.26 190.108C126.915 188.951 128.68 187.911 129.976 186.293C130.342 185.832 130.818 185.495 131.382 185.326C131.828 185.151 132.253 184.894 132.59 184.558C133.373 183.891 134.135 183.174 134.889 182.456C135.116 182.236 135.306 181.987 135.453 181.717C136.068 180.787 137.049 180.164 137.473 179.103C137.473 179.073 137.532 179.022 137.561 179.015C138.938 178.575 139.077 176.979 140.168 176.203C141.01 175.625 141.486 174.541 142.101 173.684L143.36 172.022C143.448 171.89 143.609 171.758 143.639 171.605C143.807 170.265 144.73 169.218 145.045 167.944C145.103 167.79 145.154 167.622 145.184 167.46C145.213 166.011 145.718 164.671 146.136 163.316C146.194 163.082 146.194 162.84 146.136 162.606C146.048 162.123 145.887 161.595 145.828 161.09C145.718 159.875 145.264 158.718 144.569 157.737C144.459 157.561 144.342 157.378 144.261 157.188C144.034 156.763 143.697 156.397 143.309 156.104C142.914 155.818 142.467 155.621 141.991 155.518C140.505 155.159 138.96 155.093 137.473 155.328C136.8 155.408 136.156 155.665 135.592 156.075C135.226 156.36 134.72 156.485 134.332 156.77C133.629 157.283 132.956 157.839 132.341 158.432C131.418 159.311 130.518 160.234 129.617 161.171C129.28 161.544 129.002 161.998 128.694 162.401C128.248 162.972 127.794 163.55 127.318 164.107C126.842 164.656 126.197 165.322 125.663 165.937C125.524 166.106 125.436 166.289 125.355 166.479C124.989 167.329 124.484 168.127 123.869 168.83C123.452 169.335 123.115 169.899 122.829 170.492C122.324 171.561 121.372 172.227 120.581 173.04C120.442 173.157 120.186 173.098 119.996 173.164C119.886 173.216 119.798 173.296 119.739 173.399C120.274 174.05 119.403 174.065 119.263 174.409C119.176 174.475 119.066 174.519 118.956 174.534C118.868 174.548 118.758 174.541 118.648 174.504C118.451 174.314 118.231 173.933 118.312 173.735C118.648 172.762 119.095 171.832 119.52 170.887C119.688 170.47 119.857 170.045 120.054 169.635C120.303 169.108 120.589 168.595 120.838 168.075C121.204 167.409 121.541 166.728 121.907 166.062C122.075 165.732 122.324 165.432 122.522 165.088C122.998 164.305 123.474 163.514 123.979 162.723C124.008 162.664 124.008 162.591 124.067 162.533L126.366 159.582C127.149 159.435 127.266 158.645 127.684 158.132C128.101 157.62 128.555 157.246 128.973 156.785C129.309 156.463 129.617 156.082 129.873 155.672C129.983 155.35 130.21 155.064 130.459 154.83C130.708 154.596 131.023 154.42 131.36 154.317C131.865 154.185 132.311 153.9 132.648 153.49C132.846 153.256 133.095 153.073 133.402 152.955C134.471 152.435 135.562 151.996 136.653 151.637C137.386 151.447 138.198 151.601 138.953 151.601L138.843 151.652L138.879 151.784ZM146.311 93.8222V93.9247L150.551 93.5293L152.403 93.3609C152.63 93.3609 152.85 93.3243 152.799 93.0167C152.689 92.1893 152.799 91.3473 153.077 90.5638C153.106 90.432 153.106 90.2856 153.077 90.1538C153.077 89.5314 153.048 88.909 153.077 88.2867C153.157 87.3568 153.077 86.4268 152.799 85.5336C152.74 85.3432 152.689 85.1382 152.718 84.9331C152.718 84.7281 152.777 84.5304 152.886 84.3474C153.026 83.9007 153.084 83.4175 152.974 82.9562C152.806 82.2899 152.747 81.6016 152.777 80.9206C152.886 79.9981 152.886 79.0681 152.777 78.1456C152.638 76.9813 152.579 75.8098 152.638 74.6383C152.667 73.2544 152.528 71.8632 152.579 70.472C152.667 68.5024 152.55 66.5254 152.301 64.5704C152.271 64.2263 152.301 63.8748 152.359 63.538C152.389 63.2598 152.44 62.9888 152.469 62.7106C152.528 61.4658 152.528 60.2138 152.608 58.9763C152.638 58.6029 152.498 58.4638 152.162 58.4125C151.993 58.3686 151.825 58.3539 151.656 58.3466C149.804 58.4491 147.951 58.5297 146.128 58.6688C144.869 58.764 143.631 58.9324 142.394 59.0495C141.83 59.0422 141.303 59.0642 140.768 59.1228C138.916 59.5108 137.034 59.4449 135.182 59.7232C133.805 59.9209 132.377 59.9502 131.001 60.0454C130.049 60.1186 129.119 60.1698 128.196 60.2211C127.801 60.2431 127.413 60.2211 127.047 60.265C126.205 60.3163 125.392 60.4041 124.55 60.4334C123.569 60.4774 122.558 60.47 121.548 60.5066C120.794 60.5433 120.032 60.6458 119.278 60.6751C118.297 60.7117 117.257 60.6751 116.276 60.741C115.712 60.7629 115.185 60.9167 114.651 60.9533C113.391 61.0265 112.154 61.0485 110.916 61.1144C109.994 61.1656 109.064 61.2389 108.141 61.3121C107.724 61.3487 107.724 61.561 107.885 61.8759C108.141 62.2859 108.332 62.7179 108.5 63.1572C108.698 63.6405 108.778 64.153 108.947 64.6509C109.174 65.3319 109.65 66.0202 109.62 66.6865C109.562 67.9825 109.818 69.3224 109.254 70.5672C109.174 70.7576 109.144 70.9699 109.174 71.1823C109.283 72.017 109.005 72.7785 108.808 73.5693C108.581 74.6456 108.332 75.7219 108.105 76.8129C108.017 77.2523 108.134 77.7502 107.995 78.1529C107.49 79.4123 108.163 80.6131 108.083 81.8432C108.112 81.9823 108.17 82.1141 108.28 82.2166C108.866 83.1099 109.401 84.0398 109.877 84.9917C110.777 86.5586 111.81 88.045 112.769 89.5753C112.966 89.8609 113.135 90.1611 113.274 90.4686C113.779 91.6036 114.453 92.6872 114.394 94.0052C115.097 95.4623 114.533 96.9853 114.197 98.3692C113.918 99.6798 113.296 100.881 112.403 101.862C112.095 102.184 111.868 102.645 111.312 102.535C110.748 102.426 110.777 101.847 110.528 101.496C110.44 101.342 110.499 101.012 110.528 100.8C110.726 100.024 110.865 99.2405 110.946 98.4497C111.026 97.2855 110.975 96.114 110.777 94.9571C110.499 93.8148 110.133 92.7019 109.686 91.6182C109.628 91.523 109.576 91.4352 109.488 91.3693C109.042 90.886 108.566 90.4394 108.112 89.9414C107.834 89.6412 107.607 89.2971 107.468 88.9164C107.101 87.7961 106.567 86.7271 105.923 85.7605C105.447 85.1674 105.081 84.5085 104.802 83.7982C104.239 81.9018 103.711 79.9834 104.07 77.9772C104.378 76.359 104.326 74.7115 104.912 73.1006C105.498 71.3946 105.725 69.5714 105.586 67.7702C105.417 66.6865 105.19 65.6101 104.883 64.5631C104.714 63.9407 104.319 63.9114 103.902 64.402C103.645 64.6729 103.396 64.9658 103.169 65.2806C102.694 66.152 102.079 67.0087 101.822 67.9532C101.405 69.5567 101.258 71.2262 100.614 72.7711C100.556 72.9029 100.526 73.0347 100.504 73.1739C100.365 75.0483 100.255 76.9228 100.058 78.7826C100.028 79.6832 99.8013 80.5692 99.384 81.3746C99.0179 81.9164 98.7982 82.5315 98.7689 83.1758C98.6884 83.8934 98.7103 84.6256 98.6591 85.3578C98.6591 85.4677 98.5493 85.5702 98.4907 85.6727C98.4028 85.6068 98.293 85.5555 98.2637 85.4677C98.0147 84.794 97.7585 84.1131 97.5901 83.4101C97.3118 82.0482 97.0848 80.6717 96.8871 79.2951C96.6602 77.406 96.1037 75.5389 96.521 73.6059C96.5503 73.4667 96.5503 73.3276 96.521 73.1885C96.3819 71.6069 96.4625 70.0034 96.7187 68.4365C96.8871 67.5725 96.975 66.6865 96.997 65.8005C96.8871 65.1269 96.6602 64.4752 96.3526 63.8602C96.2941 63.7503 96.2135 63.6478 96.1256 63.5673C96.0378 63.6698 95.9279 63.7577 95.8987 63.8748C95.7302 64.7608 95.452 65.6248 94.998 66.4229C94.7491 66.8036 94.6319 67.2576 94.6319 67.7116C94.7711 69.1614 94.0169 70.3915 93.8485 71.768C93.7093 73.0347 93.4018 74.2868 93.1748 75.5389C93.1456 75.6707 93.065 75.8611 93.1456 75.9196C93.5117 76.2784 93.2554 76.6372 93.1748 76.996C93.1163 77.1937 93.065 77.3987 93.0357 77.6111C93.1163 79.4928 92.6696 81.3819 92.9771 83.271C92.9771 83.3809 92.8893 83.5932 92.838 83.5932C92.5598 83.6152 92.2523 83.5932 91.9667 83.52C91.7983 83.4394 91.6299 83.293 91.5493 83.1026C91.2711 82.656 91.0734 82.18 90.905 81.6821C90.678 80.4447 90.2021 79.2585 90.3192 77.9259C90.3778 77.3621 90.0703 76.7837 89.9824 76.1979C89.9019 75.6121 90.041 75.0556 89.8433 74.5651C89.6163 73.9354 90.0117 73.4521 89.9824 72.8883C89.9824 72.7785 89.9238 72.6833 89.9238 72.5808C89.8945 72.3391 89.8945 72.0975 89.9238 71.8632C90.0337 71.4532 89.9824 71.0212 89.7847 70.6551C89.3893 69.6446 89.0525 68.6268 88.6937 67.6164C88.6351 67.4333 88.4667 67.1331 88.4155 67.1331C88.1885 67.1697 87.9688 67.2869 87.8297 67.4553C87.6906 67.6457 87.5734 67.8653 87.5222 68.0997C87.3538 68.6195 87.2147 69.1687 86.9877 69.6666C86.4019 70.8967 85.8381 72.1195 85.9186 73.5473C85.9186 73.9573 85.6404 74.3893 85.5525 74.814C85.494 75.0703 85.494 75.3266 85.5525 75.5828C85.5818 75.8245 85.6917 76.0661 85.6917 76.2931C85.6038 77.5744 85.721 78.8631 86.0285 80.1152C86.2774 81.0378 86.3653 82.019 86.563 82.9708C86.7021 83.6518 86.9803 84.3034 87.0975 84.9844C87.4636 87.2323 88.108 89.4289 89.0305 91.5084C89.3381 92.182 89.6749 92.8264 90.0703 93.4487C90.7146 94.4445 91.1906 95.5795 92.2303 96.3263C92.5378 96.5606 92.7648 96.8462 92.9625 97.1757C93.5776 98.0983 94.0828 99.0867 94.7271 99.9727C94.9761 100.302 95.1445 100.69 95.2031 101.1C95.2836 101.51 95.2616 101.928 95.1152 102.323C94.9761 102.645 94.8882 102.982 94.8662 103.334C95.0347 104.915 94.4708 106.409 94.2512 107.932C94.1414 108.437 93.9144 108.92 93.6361 109.345C93.0723 110.238 92.3767 111.066 91.8715 111.974C91.6445 112.354 91.1979 112.457 91.088 112.72C90.6707 113.57 90.019 114.295 89.2648 114.844C88.6205 115.261 88.0054 115.73 87.4416 116.235C86.6875 116.997 85.699 117.348 84.8057 117.846C84.359 118.095 83.8538 118.3 83.3486 118.556C82.8727 118.82 82.5066 119.457 81.7743 119.069C81.7158 119.032 81.5474 119.208 81.4375 119.266C80.903 119.552 80.3685 119.801 79.812 119.999C79.1384 120.211 78.4062 120.262 77.7106 120.445C77.015 120.628 76.4219 120.929 75.6897 120.775C75.3236 120.76 74.9868 120.797 74.6499 120.892C74.0642 120.987 73.5004 121.06 72.9073 121.09C72.2337 121.031 71.5307 121.002 70.8571 121.009C69.7368 121.104 68.6092 120.943 67.6061 120.526C66.8739 120.27 66.2003 119.947 65.4754 119.698C64.0695 119.215 62.8394 118.337 61.5727 117.553C60.4524 116.857 59.4127 116.03 58.3437 115.232C58.0361 114.998 57.7799 114.719 57.5602 114.405C57.2234 113.892 56.9451 113.321 56.579 112.838C55.9347 112.04 55.7956 111.058 55.4587 110.165C55.3709 109.792 55.3709 109.396 55.488 109.023C55.488 108.913 55.5466 108.803 55.5979 108.715C55.6784 108.62 55.7663 108.547 55.8468 108.496C55.9567 108.444 56.0738 108.422 56.1836 108.422C56.2935 108.422 56.4106 108.452 56.4912 108.51C56.9085 108.701 57.2746 108.957 57.6114 109.272C58.1752 109.872 58.6512 110.568 59.1857 111.176C59.8593 111.922 60.5915 112.633 61.2871 113.343C62.6637 114.697 63.8938 116.176 65.4095 117.377C66.1417 117.963 66.9544 118.424 67.8258 118.747C68.7264 119.025 69.6197 119.23 70.5496 119.369C70.945 119.449 71.4209 119.603 71.6991 119.449C72.5705 118.996 73.4638 119.31 74.3058 119.12C74.4742 119.083 74.6426 119.105 74.7817 119.179C74.9209 119.252 75.0307 119.376 75.0893 119.523C75.287 119.296 75.5359 119.105 75.8215 118.959C76.7734 118.615 77.7326 118.337 78.7137 118.022C79.1896 117.853 79.6656 117.685 80.1415 117.473C80.8444 117.165 81.5474 116.85 82.1917 116.499C82.7262 116.272 83.1729 115.95 83.5683 115.525C83.9344 115.122 84.3517 114.756 84.8057 114.456C85.677 113.702 86.8559 113.182 87.0243 111.82C87.0243 111.688 87.0536 111.285 87.4416 111.454C87.7785 110.824 88.5326 110.458 88.5912 109.638C88.5912 109.506 88.8182 109.396 88.8987 109.25C89.404 108.349 90.1069 107.492 90.3558 106.526C90.6927 105.076 90.9196 103.612 91.0588 102.133C91.088 101.854 91.0295 101.569 90.9196 101.313C90.5023 100.449 90.0483 99.5993 89.6017 98.7426C89.3454 98.2447 89.0964 97.7614 88.8182 97.2855C88.2544 96.4508 87.5588 95.6893 87.0755 94.8106C86.4019 93.5659 85.5892 92.431 84.8277 91.2448C83.8172 89.6779 83.2022 87.8913 83.0045 86.0315C82.9752 85.9363 82.9459 85.8411 82.8653 85.7752C82.221 85.2114 82.221 84.406 82.1331 83.6737C81.9647 82.5461 81.9647 81.3966 81.767 80.2763C81.5986 79.156 81.2325 78.1309 81.4009 76.996C81.4888 76.3443 81.5107 75.6853 81.5986 75.0556C81.7084 74.6529 81.767 74.2429 81.8256 73.8255C81.767 72.4709 82.3015 71.3287 82.8946 70.1645C83.063 69.7837 83.2022 69.3957 83.3413 69.0003C83.4511 68.4584 83.6488 67.9386 83.8758 67.4333C84.4396 66.4375 85.1645 65.5296 85.6697 64.5265C86.0065 63.9041 86.5703 63.4355 87.2147 63.1939C87.8883 62.9522 88.5912 62.9742 89.2648 63.2451C89.9092 63.4794 90.473 63.9261 91.1979 63.9846C91.4761 64.0066 91.6445 64.6583 92.0106 64.1897C92.2083 63.9041 92.3767 63.5819 92.4866 63.2451C92.5744 62.9888 92.655 62.7326 92.6843 62.4616C92.7428 62.1907 92.8527 61.9271 92.9625 61.6855C93.5483 60.7776 94.3098 60.0087 95.2324 59.423C95.7962 59.0862 96.3819 58.6395 97.1434 59.0642C97.4216 59.2253 97.5608 59.0642 97.5388 58.7054C97.4802 58.3686 97.5388 58.0245 97.6486 57.7096C97.7292 57.5339 97.7585 57.3435 97.7585 57.1531C97.7585 56.9628 97.7292 56.7724 97.6486 56.5966C97.0336 55.0883 96.6382 53.4994 96.4991 51.8739C96.36 50.8927 96.3014 49.8969 96.3599 48.9011C96.4478 48.0152 96.4185 47.1219 96.2794 46.2359C96.1696 45.3572 95.9719 44.4932 95.9719 43.6146C95.9426 42.3918 96.0597 41.191 95.7742 39.9535C95.7156 39.6094 95.7156 39.2579 95.7742 38.9138C95.8328 37.6398 96.5576 36.9002 97.7072 36.4096C98.6591 35.9923 99.7281 36.0875 100.68 35.7287C101.127 35.553 101.581 35.4138 102.057 35.3113C103.316 35.0624 104.583 34.8281 105.842 34.6157C106.098 34.5645 106.406 34.3961 106.626 34.4546C107.834 34.7036 109.042 34.8061 110.243 34.7402C110.411 34.7182 110.609 34.7402 110.748 34.7988C111.334 35.0184 111.956 35.1649 112.571 35.2528C113.977 35.5383 115.295 36.0728 116.496 36.827C117.675 37.6544 118.626 38.8845 119.527 40.0487C120.062 40.8542 120.537 41.7182 120.904 42.6115C121.35 43.4828 121.687 44.398 122.222 45.2401C122.588 45.8039 122.588 46.5654 123.064 47.1145C123.173 47.2317 123.122 47.5099 123.151 47.715C123.151 47.8394 123.064 48.0518 123.122 48.0884C123.686 48.4984 123.54 49.2379 123.906 49.7578C124.272 50.3802 124.469 51.1051 124.469 51.8373C124.528 53.2505 124.638 54.6563 124.718 56.0621C124.748 56.4575 124.916 56.7431 125.363 56.7065C126.651 56.5966 127.94 56.4649 129.207 56.3477C129.712 56.3038 129.822 56.0182 129.91 55.5862C130.049 54.7808 130.217 53.99 130.444 53.1992C130.554 52.8331 130.723 52.489 130.92 52.1595C131.089 51.8373 131.089 51.4932 130.781 51.3467C130.364 51.1051 129.88 50.966 129.405 50.9513C127.918 51.0685 126.681 50.4681 125.502 49.7139C124.433 49.0915 123.649 48.0737 123.342 46.8802C123.261 46.4043 123.064 45.9576 122.756 45.5915C122.617 45.4378 122.507 45.2401 122.478 45.0424C122.229 43.8196 121.973 42.5968 121.724 41.3667C121.694 41.2349 121.724 41.0152 121.782 40.9713C122.346 40.6125 122.2 39.9755 122.427 39.4849C122.763 38.6941 123.1 37.8887 123.518 37.1199C123.657 36.805 123.935 36.5634 124.25 36.4243C125.568 36.0435 126.688 35.282 127.867 34.6523C128.599 34.2716 129.324 33.8908 130.056 33.4735C130.788 33.0561 130.898 32.6461 130.364 32.0164C129.58 31.0938 128.709 30.2371 127.838 29.3878C126.856 28.4139 125.875 27.3669 124.557 26.7298C124.418 26.6639 124.33 26.4662 124.191 26.3637C123.459 25.7487 122.763 25.119 121.973 24.5332C121.387 24.1012 120.764 23.7424 120.179 23.3544C119.11 22.5636 117.96 21.8753 116.781 21.2822C116.415 21.1724 116.078 21.0113 115.742 20.7989C114.731 19.8251 113.413 19.4224 112.205 18.8586C111.224 18.4046 110.213 18.0019 109.232 17.5772C108.756 17.3649 108.251 17.094 107.717 16.9402C107.182 16.7938 106.706 16.7645 106.259 16.5887C105.337 16.2373 104.407 15.8346 103.514 15.4172C103.206 15.2634 103.148 15.3586 103.008 15.6149C102.781 15.981 102.503 15.9224 102.254 15.6149C102.115 15.4099 101.947 15.1097 101.72 15.0511C100.768 14.8022 99.7867 14.6264 98.8275 14.4214C98.2637 14.3116 97.7365 14.1725 97.202 14.0846C96.2208 13.9235 95.3202 13.6013 94.3098 13.7331C93.5263 13.8063 92.7135 13.6965 91.9813 13.4036C91.2784 13.1474 90.4071 13.3231 89.6236 13.3011C89.5943 13.3011 89.5651 13.3011 89.5431 13.2718C89.1257 13.2133 88.701 13.1766 88.3056 13.162C87.0462 13.1913 85.7795 13.3524 84.5494 13.3304C82.1331 13.2792 79.8047 13.7844 77.4543 14.2603C76.1656 14.5166 74.8769 14.8168 73.5809 15.0804C72.7682 15.1609 72.0067 15.4392 71.333 15.8858C71.0255 16.0542 70.718 16.1494 70.3519 16.1567C69.6782 16.1934 69.0046 16.3984 68.3896 16.7352C67.8551 16.9841 67.3205 17.1818 66.7348 17.321C66.2588 17.4967 65.7829 17.7017 65.3289 17.9287C64.9921 18.1557 64.626 18.368 64.2599 18.5511C62.7735 19.0636 61.6239 20.2059 60.1083 20.6671C60.0204 20.6891 59.9106 20.7404 59.852 20.8136C59.2662 21.663 58.307 21.8533 57.465 22.2414C57.0696 22.3805 56.7328 22.6295 56.4838 22.9516C56.1763 23.3104 55.7809 23.6106 55.3929 23.8596C54.4117 24.5771 53.4012 25.2581 52.4713 26.0342C51.7684 26.6347 51.1534 27.3669 50.5383 28.0405C49.6963 28.9118 48.8542 29.7758 48.0122 30.6472C47.4777 31.1963 46.9432 31.7674 46.416 32.2946C45.8522 32.8145 45.1566 33.1733 44.7612 34.0007C44.2852 34.9745 43.3846 35.736 42.711 36.622C42.462 37.0174 42.2058 37.4421 42.0081 37.8741C41.7811 38.3866 41.5321 38.8772 41.1953 39.3312C40.2947 40.2977 39.7382 41.5278 39.0646 42.6334C38.2811 43.8709 37.915 45.3499 36.9631 46.5141C36.8533 46.6679 36.7947 46.829 36.7362 46.9974C36.3993 47.9712 36.0332 48.9377 35.6964 49.9043C35.6378 50.0287 35.5573 50.1532 35.4987 50.263C34.913 51.2955 34.4883 52.4011 34.21 53.5433C34.0123 54.173 33.8146 54.7954 33.5657 55.4031C33.4559 55.6594 33.368 55.9303 33.3167 56.2013C33.1776 57.1165 33.0898 58.0537 32.9214 58.9617C32.8628 59.4157 32.7529 59.8477 32.526 60.2504C32.1086 61.0558 31.8816 61.9418 31.823 62.8424C31.823 63.1206 31.7938 63.3916 31.7425 63.6698C31.2373 65.3246 31.0103 67.0526 31.0982 68.7879C31.1274 69.3078 31.0689 69.8203 30.9297 70.3256C30.4245 71.9584 30.5636 73.6278 30.5636 75.2753C30.5636 77.0033 30.7613 78.7313 30.8712 80.4593C31.0396 82.4363 31.1787 84.4133 31.3764 86.3902C31.3764 86.4927 31.4057 86.5953 31.435 86.6978C31.8011 88.499 32.1379 90.3076 32.526 92.1088C32.7822 93.2364 33.0019 94.3493 33.3094 95.4623C33.5071 96.1945 33.8146 96.9121 34.0123 97.637C34.2393 98.3545 34.4077 99.0428 34.6567 99.7311C34.9349 100.588 35.2717 101.43 35.5573 102.279C36.3115 104.454 37.2707 106.563 38.3617 108.583L38.5301 108.847C38.5594 108.767 38.5887 108.686 38.6179 108.598C38.7058 108.093 38.7571 107.58 38.8449 107.068C39.0426 105.655 39.0133 104.22 39.46 102.828C39.7675 101.679 40.1629 100.544 40.5803 99.4309C40.9976 98.4937 41.3344 97.4905 41.7884 96.5826C42.1838 95.7772 42.6304 95.001 43.1064 94.2468C43.5823 93.4048 44.2852 92.7385 45.1566 92.3358C45.1859 92.2845 45.2151 92.2406 45.2444 92.182C45.2444 92.1234 45.2444 92.0649 45.2151 92.0136C44.9369 91.7134 45.1273 91.5011 45.325 91.318C45.552 91.1423 45.7716 90.9812 45.9986 90.8347C46.0865 90.7981 46.167 90.7762 46.2768 90.7762C46.2768 90.8714 46.3354 90.9812 46.3061 91.0544C46.0279 91.7207 45.7423 92.3797 45.4348 93.024C45.2078 93.4927 44.9882 93.9466 44.7026 94.3786C44.3951 94.7008 44.2267 95.1328 44.1974 95.5795C44.1681 95.7552 44.1095 95.9163 43.9997 96.0627C43.7727 96.3556 43.5823 96.6778 43.4139 97.0073C43.3553 97.3587 43.3553 97.7102 43.3553 98.0616C43.3553 98.1715 43.326 98.2667 43.2455 98.3545C42.6012 99.1453 42.7696 100.295 42.1545 101.093C42.1252 101.13 42.0959 101.174 42.0959 101.225C42.0959 101.276 42.1252 101.32 42.1545 101.357C42.4035 101.576 42.2131 101.781 42.1838 102.016C41.9568 103.407 41.371 104.769 41.7371 106.233C41.2026 107.302 41.7371 108.378 41.7371 109.447C41.7371 110.37 41.6273 111.337 42.1033 112.208C42.1325 112.281 42.1618 112.369 42.1618 112.45C42.2204 113.248 42.2717 114.046 42.3595 114.851C42.3888 115.173 42.3888 115.62 42.5865 115.796C43.1723 116.279 43.2601 116.916 43.4578 117.582C43.7361 118.505 43.9045 119.552 44.7758 120.189C44.8856 120.804 45.508 121.221 45.5593 121.763C45.6984 122.891 46.5697 123.528 47.0457 124.428C47.4411 125.044 47.917 125.607 48.4515 126.091C49.462 127.138 50.531 128.104 51.6805 128.997C52.5226 129.671 53.2255 130.528 54.3458 130.828C54.4337 130.865 54.5142 130.931 54.5728 131.018C54.8291 131.604 55.4148 131.699 55.8907 131.941C56.0884 132.029 56.2861 132.087 56.4546 132.19C57.0989 132.585 57.714 133.01 58.3876 133.391C58.783 133.61 59.1711 133.801 59.5957 133.955C60.0131 134.116 60.4378 134.218 60.8551 134.357C61.3604 134.584 61.8949 134.753 62.4513 134.87C63.0371 134.943 63.4032 135.419 64.0256 135.441C64.9775 135.507 65.9074 135.668 66.83 135.924C68.0894 136.254 69.4073 136.356 70.7033 136.224C71.0694 136.239 71.4355 136.305 71.7943 136.422C72.2117 136.51 72.695 136.752 73.0537 136.649C73.6688 136.444 74.3424 136.415 74.9648 136.576C75.0746 136.59 75.2211 136.554 75.3016 136.473C75.47 136.349 75.6677 136.268 75.8654 136.224C76.0631 136.18 76.2828 136.173 76.4805 136.21C76.8978 136.268 77.3225 136.276 77.7179 136.239C79.4606 135.961 81.1666 135.639 82.9093 135.338C83.4438 135.243 83.3852 135.177 84.0881 134.745C84.6226 134.504 85.1571 134.321 85.7136 134.203C86.3873 134.687 86.8632 134.138 87.3977 133.903C87.7052 133.764 88.0421 133.647 88.3789 133.523C89.6676 133.105 90.9343 132.512 92.0838 131.758C92.6476 131.348 93.2334 131.011 93.8485 130.747C94.5807 130.381 95.2543 129.927 95.8987 129.4C96.3746 129.063 96.77 128.646 97.2459 128.309C97.861 127.848 98.5639 127.467 99.179 126.984C99.7647 126.501 100.219 125.966 100.753 125.498C101.427 124.963 102.013 124.319 102.467 123.586C102.716 123.22 103.052 122.898 103.418 122.62C103.785 122.261 104.29 121.968 104.509 121.536C105.044 120.584 105.688 119.684 106.391 118.856C106.669 118.461 106.926 118.051 107.145 117.612C107.621 116.645 108.097 115.642 108.602 114.654C109.166 113.467 109.811 112.31 109.92 110.949C109.979 110.026 110.147 109.103 110.257 108.188C110.287 107.983 110.257 107.705 110.367 107.595C111.041 107.046 111.209 106.277 111.458 105.516C111.546 105.237 111.685 104.966 112.022 105.032C112.388 105.098 112.439 105.398 112.417 105.677C112.329 106.189 112.051 106.702 112.447 107.2C112.139 108.056 112.505 108.891 112.674 109.689C113.01 111.256 112.761 112.904 111.971 114.295C111.912 114.375 111.883 114.463 111.861 114.558C111.802 114.932 111.919 115.532 111.751 115.62C111.356 115.832 111.524 116.418 111.019 116.477C110.931 116.477 110.792 116.711 110.821 116.799C111.048 117.582 110.455 118.066 110.206 118.681C109.759 119.706 108.859 120.416 108.463 121.529C108.097 122.452 107.541 123.308 106.889 124.055C106.274 124.86 105.571 125.585 104.788 126.23C104.312 126.603 104.282 127.204 103.836 127.518C103.331 127.914 102.855 128.346 102.408 128.814C100.951 130.14 99.4352 131.37 97.8317 132.512C97.6633 132.637 97.4949 132.754 97.2972 132.856L94.6319 134.372C94.5734 134.409 94.4928 134.423 94.4342 134.474C93.5117 135.756 91.9374 136.005 90.6487 136.693C89.7261 137.176 88.5985 137.206 87.6759 137.777C87.4783 137.879 87.2806 137.93 87.0609 137.93C86.5557 137.967 86.0504 138.143 85.6331 138.443C84.7618 138.89 83.8099 139.139 82.8287 139.153C82.6017 139.153 82.3528 139.197 82.1258 139.27C81.3423 139.629 80.5003 139.827 79.6583 139.856C78.6185 139.907 77.5788 140.127 76.5757 140.252C75.9606 140.317 75.3382 140.347 74.7232 140.383C74.5255 140.383 74.3278 140.347 74.1081 140.361C73.1855 140.413 72.2556 140.486 71.333 140.544C71.2232 140.537 71.0768 140.522 70.9376 140.493C70.6008 140.449 70.264 140.413 69.9272 140.369C69.5904 140.259 69.2536 140.208 68.8875 140.215C68.3822 140.332 68.3237 139.805 68.0454 139.761C67.7965 139.71 67.4304 139.966 67.0936 140.09C67.035 140.098 67.0057 140.098 66.9837 140.09C66.0026 139.885 65.0214 139.695 64.0402 139.468C63.2568 139.278 62.4953 139.029 61.7411 138.816C61.6825 138.816 61.5727 138.875 61.4922 138.912C61.5214 138.97 61.58 139.021 61.602 139.073C61.602 139.095 61.6606 139.102 61.6899 139.124C62.5026 139.878 63.6009 140.376 63.9377 141.584C63.9963 141.848 64.3551 142.287 64.4722 142.258C65.285 142.031 65.2045 142.741 65.4534 143.1C66.0685 143.905 66.7421 144.703 67.3645 145.523C68.1186 146.409 68.7923 147.361 69.3854 148.357C69.832 149.331 70.3958 150.239 71.0694 151.081C71.377 151.403 71.5454 151.835 71.5454 152.289C71.604 152.736 71.7431 153.16 71.9408 153.563C72.3069 154.603 72.673 155.65 73.0611 156.682C73.3686 157.415 73.5663 158.183 73.8445 158.901C74.1228 159.567 74.3205 160.27 74.4303 160.988C74.628 162.262 74.8476 163.536 74.9941 164.817C75.1918 166.875 75.7483 168.932 75.2504 171.026C74.9428 172.264 75.082 173.589 74.5767 174.797C74.4083 175.207 74.2692 175.647 74.0715 176.049C73.5077 177.126 73.7933 178.312 73.6541 179.447C73.4272 180.955 73.0903 182.441 72.673 183.906C72.1092 186.073 71.355 188.189 70.7912 190.364C70.513 191.543 70.901 192.539 71.377 193.571C71.6845 194.252 72.3581 194.281 72.9219 194.508C73.3173 194.677 73.7054 194.933 74.1008 195.145C74.2985 195.24 74.4669 195.321 74.6646 195.387C75.1405 195.533 75.5872 195.68 76.0411 195.812C76.4073 195.958 76.7734 196.046 77.1614 196.09C78.538 196.053 79.9072 196.126 81.2838 196.309C81.4522 196.331 81.6499 196.412 81.789 196.353C82.6603 196.002 83.4438 196.544 84.3151 196.507C85.2377 196.514 86.1969 196.58 87.1195 196.69C87.1488 196.69 87.178 196.676 87.2293 196.668C87.4563 196.595 87.6759 196.558 87.9322 196.58C88.1885 196.602 88.4082 196.668 88.6059 196.785C89.0818 196.925 89.5577 196.976 90.0337 196.939C90.4803 196.939 90.9562 196.888 91.4102 196.881C92.2815 196.881 93.1748 196.917 94.0462 196.881C95.0859 196.851 96.0964 196.749 97.1068 196.698C98.1465 196.646 99.0398 196.654 100.028 196.602C100.9 196.558 101.742 196.441 102.613 196.397C103.316 196.361 103.99 196.397 104.692 196.346C105.059 196.273 105.425 196.156 105.783 195.973C106.091 195.834 106.567 196.317 106.823 195.738C108.061 195.79 109.181 195.255 110.36 194.999C111.143 194.838 111.985 194.75 112.659 194.149C114.233 192.868 115.551 191.33 116.584 189.602C117.199 188.489 117.762 187.325 118.268 186.161C118.377 185.839 118.377 185.487 118.297 185.158C117.989 183.664 116.781 182.844 115.829 181.826C115.412 181.402 115.017 181.592 114.621 181.46C113.75 181.167 112.857 180.955 111.927 180.838C110.719 180.684 109.51 181.109 108.339 180.765C108.28 180.75 108.229 180.75 108.2 180.765C108.141 180.779 108.09 180.794 108.031 180.823C107.526 181.241 106.962 181.109 106.377 181.028C106.098 181.006 105.813 181.028 105.564 181.101C104.356 181.409 103.126 181.541 101.947 182.017C101.361 182.258 100.709 182.397 100.094 182.603C98.7762 183.027 97.4583 183.408 96.1696 183.92C95.2983 184.279 94.4855 184.843 93.6142 185.282C92.0985 186.059 90.5828 186.871 89.0379 187.552C87.7785 188.101 86.4312 188.438 85.2523 189.17C84.9155 189.324 84.608 189.456 84.2712 189.573C84.2126 189.61 84.1321 189.632 84.0735 189.639C83.9929 189.646 83.9344 189.639 83.8758 189.617C83.7879 189.595 83.7367 189.559 83.6781 189.507C83.6195 189.456 83.5902 189.397 83.5683 189.332C83.539 189.222 83.539 189.112 83.539 189.002C83.5683 188.892 83.5975 188.782 83.6488 188.687C84.9961 187.215 86.3946 185.839 87.9395 184.579C88.2764 184.345 88.6425 184.155 89.0305 184.008C89.1184 183.95 89.2282 183.877 89.3381 183.811C89.6749 183.591 90.0117 183.357 90.3485 183.144C90.7952 182.947 91.2198 182.705 91.6079 182.434C92.8161 181.446 94.2146 180.699 95.701 180.252C96.316 180.04 96.9604 179.827 97.5535 179.571C97.7512 179.491 98.0001 179.278 98.0587 179.11C98.1685 177.968 98.2857 176.825 98.3076 175.683C98.3076 174.9 98.1099 174.102 98.1392 173.318C98.1978 172.344 98.2491 171.378 98.2271 170.411C98.1978 169.035 98.315 167.651 97.9781 166.289C97.9488 166.12 97.9488 165.945 97.9488 165.769C97.9781 164.349 98.088 162.935 97.6999 161.537C97.5022 160.922 97.6413 160.248 97.3631 159.596C97.3338 159.362 97.3338 159.121 97.3631 158.886C97.3631 158.776 97.4436 158.645 97.3924 158.557C97.1434 157.81 96.997 157.012 97.0555 156.214C96.9457 155.599 96.7773 154.998 96.5503 154.42C96.521 154.361 96.4917 154.31 96.4405 154.273C96.3819 154.237 96.3307 154.207 96.2721 154.193C96.0451 154.229 95.8254 154.317 95.657 154.456C95.4886 154.596 95.3495 154.779 95.2616 154.984C95.0639 155.584 95.0054 156.206 95.0347 156.829C95.1445 157.685 95.1445 158.549 95.0347 159.406C94.9468 160.336 94.7857 161.259 94.5001 162.145C94.4123 162.291 94.361 162.459 94.361 162.628C94.361 162.796 94.4196 162.965 94.5001 163.111C94.5807 163.28 94.6685 163.47 94.8077 163.631C94.8955 163.741 94.9175 163.865 94.9468 163.997C94.9468 164.129 94.9175 164.261 94.837 164.378C94.5587 165.066 94.3903 165.791 94.3317 166.531C94.2732 167.292 94.1047 168.039 93.7972 168.742C93.6581 169.159 93.5409 169.591 93.4604 170.03C93.3506 170.55 93.3213 171.099 93.1822 171.605C92.5671 173.626 91.9447 175.639 91.3297 177.653C91.2418 177.872 91.1027 178.085 90.9636 178.268C90.7146 178.575 90.4583 178.898 90.2314 179.234C89.9531 179.762 89.4772 180.157 88.8841 180.333C88.2983 180.538 87.8736 180.333 87.8151 179.71C87.7272 178.956 87.7565 178.187 87.9029 177.433C88.3789 175.778 88.6864 174.08 88.8548 172.366C88.8841 172.198 88.9134 172.037 88.9646 171.883C89.5284 170.543 89.8872 169.13 90.0556 167.68C90.1142 167.299 90.1947 166.926 90.3119 166.56C90.678 165.242 91.2125 163.953 90.7293 162.547C90.7 162.481 90.7878 162.379 90.8171 162.298C90.927 161.471 91.0441 160.644 91.1247 159.802C91.1832 159.047 91.3809 158.242 91.1832 157.546C90.9343 156.367 90.905 155.145 91.0954 153.951C91.1247 153.717 91.1247 153.483 91.0954 153.248C90.9855 152.641 90.8171 152.047 90.7293 151.432C90.6194 150.825 90.224 150.378 89.6895 150.62C88.8475 151.008 88.1153 150.583 87.3904 150.341C86.3799 149.961 85.3109 149.638 84.2785 149.368C83.5243 149.214 82.8214 148.95 82.1478 148.584C81.5034 148.181 80.9103 147.72 80.3831 147.193C80.244 147.068 80.1342 146.9 80.0756 146.71C80.017 146.519 80.017 146.322 80.1049 146.138C80.2147 145.758 80.5808 145.882 80.8884 145.816C81.6206 145.655 82.2356 146.3 82.9678 146.117C83.3339 146.073 83.722 146.095 84.0881 146.175C85.0107 146.3 85.9699 146.622 86.8925 146.08C86.9804 146.029 87.1488 146.117 87.2879 146.131C87.9908 146.212 88.6644 146.351 89.3674 146.365C90.0703 146.38 90.9123 146.27 91.6665 146.234C92.5891 146.19 93.5483 146.146 94.4708 146.124C94.8882 146.102 95.2836 146.124 95.679 146.204C96.748 146.461 97.8097 146.541 98.908 146.439C100.314 146.19 101.742 146.16 103.148 146.358C103.565 146.439 104.07 146.168 104.524 146.043C105 145.919 105.366 145.743 105.783 145.67C108.083 145.384 110.36 144.85 112.542 144.096C113.047 143.905 113.523 143.525 114.028 143.378C115.771 142.88 117.426 142.185 118.993 141.291C119.864 140.867 120.706 140.383 121.519 139.834C122.61 139.029 123.767 138.326 124.967 137.733C125.612 137.396 126.344 137.206 126.593 136.393C126.622 136.298 126.703 136.21 126.791 136.151L128.811 134.877C129.09 134.701 129.397 134.533 129.683 134.343C129.961 134.152 130.356 133.859 130.635 133.596C130.884 133.398 131.081 133.164 131.308 132.951C131.535 132.732 131.755 132.424 132.011 132.183C133.08 131.106 134.427 130.308 135.152 128.91C135.182 128.88 135.211 128.851 135.24 128.829C135.994 128.177 136.668 127.416 137.203 126.552C137.649 125.937 138.154 125.395 138.608 124.773C138.945 124.326 139.223 123.887 139.59 123.462C140.124 122.869 140.571 122.225 140.966 121.544C141.471 120.577 141.918 119.53 142.731 118.739C142.899 118.52 143.038 118.285 143.148 118.036C143.683 117.114 143.712 115.884 144.774 115.254C144.913 115.173 144.913 114.888 145.001 114.705C145.308 113.826 145.674 112.969 146.121 112.157C146.655 111.41 146.934 110.538 146.992 109.638C146.992 109.469 146.992 109.242 147.08 109.155C147.695 108.532 147.754 107.668 148.091 106.921C148.457 106.292 148.706 105.603 148.845 104.893C148.874 104.322 149.013 103.766 149.291 103.26C149.43 102.814 149.548 102.345 149.57 101.876C149.203 102.125 148.867 102.404 148.53 102.697C147.827 103.421 147.073 104.154 146.062 104.329C145.081 104.512 144.21 104.944 143.141 104.761C141.625 104.52 140.219 103.861 139.048 102.865C137.759 101.737 136.8 100.295 136.243 98.6694C136.073 98.2008 135.736 98.0397 135.233 98.1861C135.094 98.2374 134.955 98.2593 134.816 98.2447C133.893 97.9298 132.963 98.2154 132.04 98.1861C130.862 98.1568 129.683 98.2154 128.504 98.3765C127.999 98.4497 127.493 98.5888 126.988 98.6474C126.234 98.7426 125.473 98.8158 124.718 98.8671C124.155 98.9183 123.598 98.9183 123.034 98.8671C122.471 98.8085 121.885 98.5156 121.321 98.5449C120.706 98.6254 120.113 98.7865 119.556 99.0282C119.249 99.1087 118.941 99.1233 118.634 99.0721C118.326 99.0208 118.048 98.8964 117.762 98.7133C117.704 98.6767 117.704 98.479 117.733 98.3985C117.762 98.3179 117.931 98.2154 118.011 98.1275C117.872 98.1056 117.704 98.0836 117.535 98.0763C117.059 98.0763 116.723 97.7761 116.833 97.3807C116.862 97.0512 117.001 96.7363 117.199 96.4654C117.396 96.1945 117.645 95.9822 117.953 95.8357C119.022 95.455 120.054 95.0157 121.262 95.1475C121.826 95.2719 122.441 95.3378 123.027 95.3525C124.118 95.2646 125.158 94.7667 126.307 94.9644C126.366 94.9644 126.417 94.8912 126.476 94.8765C127.376 94.6349 128.24 94.2834 129.2 94.3567C129.478 94.3347 129.763 94.2761 130.012 94.1736C130.239 94.0857 130.488 94.0345 130.715 94.0125C132.341 94.0931 133.944 94.2102 135.57 94.3127C136.639 94.4226 137.73 94.4665 138.799 94.4445C139.919 94.3713 141.047 94.1663 142.196 94.1956C143.602 94.159 145.001 94.0491 146.377 93.8734L146.311 93.8222ZM190.361 126.508C190.361 126.171 190.361 125.834 190.302 125.498C189.885 123.389 189.043 121.383 187.864 119.589C187.388 118.783 186.795 118.066 186.121 117.451C185.367 116.835 184.547 116.301 183.793 115.701C183.01 114.954 182.028 114.463 180.959 114.28C180.791 114.258 180.623 114.2 180.483 114.112C179.444 113.555 178.265 113.24 177.086 113.189C176.522 113.145 175.966 112.933 175.373 112.838C173.916 112.596 172.451 112.384 170.994 112.157C170.965 112.149 170.935 112.149 170.913 112.157C169.844 112.515 168.753 112.611 167.802 113.306C166.85 114.002 165.612 114.61 164.631 115.437C164.155 115.832 163.511 116.001 163.057 116.403C161.819 117.641 160.45 118.754 158.986 119.728C158.957 119.757 158.876 119.845 158.876 119.867C159.213 120.431 158.539 120.526 158.4 120.87C158.232 121.251 158.122 121.653 158.005 122.056C157.946 122.356 158.063 122.539 158.4 122.657C159.828 123.14 161.204 122.803 162.61 122.547C162.669 122.525 162.72 122.495 162.779 122.459L166.484 120.767C166.623 120.672 166.791 120.614 166.96 120.577C168.278 120.548 169.544 120.094 170.833 119.867C171.17 119.816 171.477 119.735 171.646 120.021C171.843 120.306 171.448 120.504 171.25 120.636C170.438 121.199 169.566 121.719 168.724 122.268C166.645 123.63 164.631 125.109 162.186 125.776C161.483 125.959 161.263 126.574 161.57 127.255C161.71 127.57 161.849 127.892 161.988 128.229C162.435 129.071 162.859 129.298 163.672 128.873C164.206 128.639 164.763 128.5 165.356 128.478C165.583 128.478 165.773 128.441 165.971 128.36C166.923 127.863 167.933 127.467 168.973 127.189C169.925 126.896 170.855 126.552 171.807 126.252C171.946 126.2 172.144 126.252 172.312 126.252C172.48 126.23 172.62 126.178 172.759 126.098C172.847 126.017 172.986 125.959 173.095 125.922C173.235 125.893 173.374 125.886 173.491 125.915C173.63 125.944 173.747 125.995 173.857 126.076C173.967 126.157 174.055 126.259 174.113 126.369C174.172 126.442 174.194 126.523 174.194 126.603C174.194 126.684 174.194 126.772 174.164 126.852C173.579 127.745 173.044 128.697 171.975 129.144C171.609 129.312 171.272 129.525 170.965 129.788C170.262 130.257 169.559 130.645 168.775 130.952C167.904 131.363 166.923 131.465 166.11 132.087C165.942 132.197 165.803 132.358 165.715 132.541C165.605 132.724 165.546 132.929 165.576 133.142C165.576 133.383 165.664 133.625 165.825 133.815C165.964 134.013 166.161 134.167 166.388 134.247C166.615 134.328 166.864 134.379 167.121 134.401C167.706 134.445 168.299 134.467 168.885 134.489C169.471 134.54 170.093 134.54 170.708 134.489C171.748 134.335 172.759 134.006 173.791 133.874C174.267 133.808 174.714 133.654 175.109 133.42C176.2 132.82 177.357 133.032 178.477 133.23C179.012 133.318 179.092 133.713 178.755 134.152C177.972 135.089 177.013 135.858 175.951 136.407C174.494 137.154 172.92 137.652 171.294 137.886C170.203 138.07 169.076 138.487 167.926 138.15C167.787 138.15 167.648 138.15 167.509 138.179C167.143 138.209 166.776 138.194 166.418 138.143C164.961 137.828 163.892 136.898 162.91 135.822C162.376 135.126 162.068 134.299 161.988 133.427C161.849 132.688 161.592 132.087 160.868 131.802C159.996 131.458 159.608 130.652 159.044 130.001C158.817 129.722 158.737 129.305 158.51 129.005C158.261 128.69 158.092 128.317 158.034 127.921C157.953 127.526 157.975 127.116 158.092 126.735C158.202 126.376 158.459 125.951 158.341 125.666C158.232 125.388 157.756 125.219 157.441 125.022C157.302 124.948 157.133 124.89 156.994 124.839C156.577 124.67 156.24 124.377 155.984 124.004C155.786 123.667 155.618 123.286 155.566 122.884C155.537 122.488 155.566 122.078 155.676 121.697C155.954 120.606 156.042 119.398 156.994 118.593C157.192 117.809 157.866 117.443 158.422 116.989C159.323 116.286 160.216 115.561 161.087 114.815C161.563 114.412 161.505 114.39 161.087 113.987C160.553 113.497 160.047 112.977 159.572 112.428C158.422 111.073 157.353 109.674 156.233 108.305C155.896 107.8 155.479 107.346 154.995 106.936C154.6 106.621 154.461 105.97 154.153 105.53C153.816 105.098 153.707 104.637 153.143 104.564C153.004 104.974 152.806 105.376 152.667 105.786C152.301 106.826 152.301 107.99 151.429 108.84C151.261 109.089 151.151 109.396 151.18 109.711C151.122 110.685 150.785 111.629 150.229 112.428C149.972 112.845 149.782 113.277 149.614 113.731C149.365 114.339 149.167 114.968 148.859 115.547C148.464 116.301 147.937 116.997 147.571 117.758C147.007 118.908 146.67 120.182 145.689 121.097C145.579 121.258 145.462 121.441 145.381 121.631C144.796 122.569 144.4 123.616 143.587 124.428C143.251 124.721 143.053 125.124 142.972 125.563C142.972 125.886 143.448 126.208 143.675 126.537C143.763 126.647 143.785 126.801 143.902 126.889C144.378 127.372 144.913 127.819 145.447 128.229C146.201 128.712 147.043 129.071 147.776 129.583C148.588 130.169 149.489 130.652 150.412 131.04C150.946 131.231 151.481 131.392 152.037 131.524C152.938 131.78 153.831 132.043 154.732 132.292C155.376 132.468 156.02 132.578 156.665 132.776C156.833 132.812 156.972 132.893 157.082 133.01C157.221 133.127 157.309 133.274 157.331 133.427C157.39 133.588 157.39 133.757 157.36 133.918C157.302 134.079 157.221 134.225 157.111 134.343C156.914 134.592 156.665 134.789 156.379 134.914C156.101 135.046 155.764 135.104 155.457 135.089H153.912C153.04 135.038 152.169 134.98 151.305 134.877C150.997 134.855 150.719 134.745 150.463 134.577C149.958 134.196 149.313 134.02 148.698 134.094C148.449 134.116 148.164 134.094 147.944 134.013C147.695 133.94 147.468 133.808 147.27 133.647C146.685 133.215 146.033 132.856 145.359 132.585C144.517 132.168 143.763 131.648 143.031 131.055C142.13 130.447 141.347 129.671 140.732 128.763C140.703 128.705 140.644 128.624 140.593 128.624C140.541 128.624 140.256 128.624 140.256 128.683C140.029 129.613 139.216 130.14 138.74 130.857C138.294 131.553 137.73 132.197 137.144 132.761C135.885 133.903 134.559 134.972 133.271 136.078C133.131 136.217 132.992 136.378 132.824 136.525C132.765 136.561 132.743 136.62 132.685 136.678C132.656 136.737 132.626 136.803 132.626 136.876C132.626 136.949 132.626 137.015 132.656 137.081C132.685 137.147 132.714 137.206 132.765 137.257C133.131 137.791 133.498 138.333 133.886 138.838C134.054 139.007 134.252 139.153 134.471 139.256C134.698 139.409 134.918 139.563 135.116 139.739C135.68 140.171 136.185 140.61 136.741 141.035C137.159 141.372 137.642 141.657 138.059 142.031C138.535 142.47 139.099 142.814 139.714 143.049C140.161 143.239 140.585 143.473 140.951 143.766C141.764 144.432 142.694 144.923 143.675 145.223C144.181 145.333 144.715 145.304 145.052 145.575C145.835 146.226 146.795 146.248 147.659 146.497C147.827 146.549 147.995 146.614 148.164 146.658C148.698 146.812 149.233 146.973 149.76 147.112C150.434 147.259 151.078 147.435 151.752 147.654C152.652 148.079 153.663 148.299 154.644 148.277C155.903 148.277 157.141 148.145 158.261 148.906C158.319 148.943 158.371 148.965 158.459 148.958H161.461C161.856 148.899 162.273 148.906 162.698 148.979C163.569 149.302 164.411 149.067 165.253 148.979C165.729 148.928 166.235 149.111 166.659 149.009C167.78 148.745 168.929 148.782 170.028 148.408C170.87 148.211 171.712 148.072 172.554 147.984C172.949 147.896 173.308 147.61 173.703 147.544C175.16 147.31 176.537 146.783 177.774 145.992C178.843 145.406 179.854 144.777 180.835 144.088C181.904 143.327 182.885 142.455 183.756 141.496C184.064 141.079 184.401 140.676 184.767 140.317C185.946 139.322 186.561 137.938 187.403 136.722C187.879 135.968 188.274 135.155 188.523 134.299C188.86 133.361 189.394 132.512 189.673 131.538C190.09 129.869 190.346 128.163 190.376 126.442L190.361 126.508ZM175.409 87.2323H175.38C175.409 87.6057 175.439 88.0011 175.49 88.3745C175.49 88.5795 175.57 88.7846 175.687 88.9603C175.797 89.136 175.966 89.2751 176.134 89.3777C176.332 89.4728 176.53 89.5241 176.749 89.5168C176.947 89.5094 177.167 89.4509 177.335 89.341C177.979 89.0189 178.682 88.8212 179.414 88.7699C180.315 88.6747 181.208 88.7699 182.109 88.7699C182.446 88.7626 182.812 88.7113 183.119 88.6308C183.793 88.477 183.874 88.3672 183.852 87.7229C183.822 86.7856 183.683 85.8484 183.654 84.9112C183.625 83.7689 183.654 82.634 183.654 81.4918V80.9719C183.595 80.4593 183.515 79.9468 183.456 79.4416C183.398 78.929 183.595 78.3213 183.149 77.8454C183.09 77.7795 183.119 77.5818 183.149 77.4646C183.456 76.542 183.486 75.5462 183.178 74.6163C183.119 74.4186 183.09 74.2136 183.09 74.0013C183.032 72.9396 182.951 71.8779 182.892 70.8088C182.863 69.7398 182.834 68.5317 182.812 67.4114C182.841 66.9647 182.841 66.5254 182.783 66.0788C182.556 65.0756 182.783 64.0505 182.556 63.0401C182.446 62.5422 182.475 62.015 182.665 61.5391C182.914 60.9533 182.387 60.3529 181.714 60.3236C181.208 60.3236 180.732 60.3895 180.256 60.3968C179.048 60.3968 177.818 60.4481 176.639 60.3602C175.629 60.287 175.263 60.5066 175.234 61.5025C175.234 61.7075 175.263 61.9198 175.292 62.1248C175.402 62.9449 175.658 63.7723 175.124 64.5484C175.065 64.6436 175.124 64.8194 175.124 64.9585C175.182 66.3863 175.234 67.8068 175.292 69.2273V71.0065C175.292 71.5996 175.234 72.0975 175.182 72.654C175.124 73.2031 175.072 73.7596 175.014 74.3088V74.7115C175.182 75.4584 175.241 76.2272 175.153 76.9887C175.094 77.7428 175.094 78.5043 175.124 79.2658C175.292 80.4667 175.292 81.6748 175.182 82.8756C175.153 83.2271 175.153 83.5712 175.212 83.9154L175.409 87.2176V87.2323ZM171.624 66.9208H171.704C171.675 66.2618 171.646 65.5955 171.565 64.9438C171.536 64.6729 171.426 64.4166 171.287 64.1823C171.228 64.0871 171.009 64.0432 170.892 64.0652C170.079 64.1897 169.266 64.3288 168.453 64.4679C167.641 64.5997 166.828 64.4679 166.015 64.6436C165.649 64.6802 165.312 64.812 165.005 65.0244C164.726 65.2367 164.47 65.5223 164.331 65.8518C164.192 66.1666 163.936 66.4375 163.826 66.7524C163.43 67.6384 163.093 68.5463 162.815 69.4689C162.588 70.4134 162.42 71.3653 162.339 72.3318C162.251 72.8151 162.229 73.2983 162.2 73.7816V75.2387C162.259 76.4468 162.259 77.6623 162.398 78.8558C162.566 80.0493 162.845 81.2282 163.181 82.3851C163.547 83.6518 163.577 85.1162 164.946 85.8997C165.005 85.9289 165.005 86.0168 165.027 86.0827C165.561 87.0053 166.403 87.181 167.355 87.0785C167.772 87.0346 168.197 86.998 168.592 86.9687C169.347 86.9101 170.108 86.8881 170.862 86.7856C171.734 86.6612 171.734 86.6245 171.763 85.7679V84.6183C171.704 83.3369 171.624 82.0556 171.624 80.7669C171.624 79.3537 171.682 77.9332 171.682 76.5201C171.712 75.0996 171.624 73.6132 171.624 72.1561C171.594 70.3622 171.624 68.6342 171.624 66.8988V66.9208V66.9208ZM158.693 57.9146C158.078 57.9366 157.455 57.9952 156.84 58.083C156.057 58.2368 155.94 58.4052 156.167 59.1667C156.277 59.4523 156.335 59.7598 156.335 60.0746C156.335 60.3895 156.277 60.697 156.167 60.9826C156.079 61.1144 156.079 61.2608 156.108 61.3926C156.247 62.3884 156.247 63.3915 156.137 64.3874C156.079 65.5589 156.137 66.7304 156.247 67.8946C156.277 68.4438 156.445 68.9929 156.445 69.5494C156.445 70.904 156.386 72.2586 156.386 73.6132C156.386 74.5358 156.474 75.451 156.496 76.3736C156.496 76.8862 156.555 77.406 156.555 77.9186C156.555 79.0242 156.277 80.1957 156.555 81.2208C156.782 82.3338 156.782 83.4907 156.584 84.6183C156.496 85.6361 156.555 86.6612 156.694 87.6716C156.862 89.1653 156.972 90.6663 156.943 92.1747C156.914 92.6872 157.031 92.8703 157.558 92.9069C158.232 92.9435 158.935 92.9435 159.608 92.9069C161.373 92.8044 163.145 92.6579 164.88 92.5335C167.128 92.3797 169.398 92.8264 171.638 92.3577C171.719 92.3504 171.836 92.3504 171.946 92.3577C172.51 92.3577 172.532 92.3577 172.48 91.7939C172.451 91.6182 172.422 91.4498 172.371 91.2814C172.202 90.3588 172.202 90.3368 171.221 90.4247C169.456 90.5712 167.684 90.7542 165.92 90.908C165.078 90.9885 164.236 91.0032 163.65 90.2783C162.808 89.3044 161.966 88.3379 161.212 87.2982C160.033 85.6287 159.806 83.5566 159.052 81.6968C158.913 81.2648 158.825 80.8181 158.854 80.3642C158.913 79.6539 158.825 78.929 158.546 78.2627C158.407 77.9479 158.349 77.5891 158.437 77.2449C158.576 76.4102 158.664 75.5682 158.634 74.7188C158.605 73.518 158.437 72.2952 159 71.131C159.03 71.0431 159 70.926 159 70.8235C159.081 69.9595 159.14 69.0955 159.249 68.2388C159.308 68.0045 159.389 67.7775 159.528 67.5725C159.696 67.199 159.864 66.8256 160.033 66.4595C160.231 65.9396 160.45 65.4417 160.736 64.9658C161.439 63.948 162.164 62.9522 162.954 62.0004C163.291 61.6269 163.709 61.3121 164.163 61.0778C164.975 60.5945 165.905 60.719 166.769 60.697C168.175 60.6604 169.574 60.6238 170.979 60.5506C171.565 60.5213 171.594 60.4334 171.514 59.8257C171.426 59.3424 171.375 58.8592 171.375 58.3759C171.375 57.7535 171.294 57.5558 170.76 57.7389C170.145 57.8927 169.522 57.8927 168.907 57.7389C168.007 57.5485 167.113 57.5339 166.213 57.7023C166.015 57.7389 165.795 57.7243 165.598 57.673C164.529 57.5119 163.467 57.468 162.398 57.5558C161.981 57.5192 161.556 57.5485 161.16 57.651C160.377 57.9878 159.535 58.083 158.693 57.9293V57.9512V57.9146ZM107.885 58.0684L107.914 58.2441L109.847 57.9659C110.492 57.8707 111.136 57.7462 111.78 57.6876C112.593 57.6071 112.681 57.5339 112.564 56.7651C112.534 56.5966 112.505 56.4209 112.454 56.2525C111.978 54.8247 111.553 53.3676 111.216 51.8885C111.048 50.9513 110.85 50.2338 110.067 49.5601C109.364 48.9524 108.976 47.9859 108.441 47.1731C108.302 46.8656 108.134 46.5727 107.907 46.3238C106.816 45.4817 105.996 44.3102 104.707 43.7683C104.121 43.4681 103.558 43.1313 103.052 42.7433C102.152 42.2087 101.229 41.7767 100.307 41.2935C100.028 41.147 99.8306 41.3301 99.8013 41.6156C99.7428 41.8573 99.7428 42.0989 99.8306 42.3332C100.109 42.9702 100.167 43.6951 99.9697 44.3688C99.8819 44.7056 99.9112 45.0644 100.058 45.3792C100.255 45.8844 100.336 46.4409 100.255 46.9827C100.145 48.1836 99.9478 49.3771 100.453 50.5486C100.534 50.7317 100.424 51.0319 100.394 51.2442C100.394 51.398 100.307 51.5664 100.365 51.6908C100.475 51.9398 100.534 52.2107 100.475 52.4816C100.446 52.7526 100.336 53.0088 100.167 53.2212C100.138 53.3017 100.109 53.3896 100.087 53.4774C100.167 53.4774 100.285 53.4408 100.365 53.4189C100.453 53.3969 100.643 53.3164 100.812 53.2651C100.812 53.4335 100.922 53.6312 100.87 53.7484C100.761 53.9753 100.731 54.217 100.761 54.4659C100.79 54.7076 100.87 54.9419 100.988 55.1469C101.097 55.3592 101.185 55.5789 101.266 55.8132C101.463 56.8822 101.771 57.219 102.811 57.0653C103.287 56.9554 103.763 56.9774 104.239 57.1238C104.685 57.2703 105.11 57.5339 105.447 57.8927C105.703 58.127 106.01 58.2588 106.347 58.2734C106.882 58.2368 107.387 58.1636 107.892 58.0537V58.0757L107.885 58.0684ZM115.434 52.5915C115.434 52.7452 115.434 52.8843 115.463 53.0235C115.602 54.0779 115.742 55.1249 115.91 56.1793C115.91 56.3257 115.969 56.4722 116.049 56.5966C116.108 56.7284 116.217 56.8383 116.327 56.9261C116.466 57.014 116.584 57.0726 116.745 57.1019C116.884 57.1312 117.023 57.1312 117.162 57.1019C117.748 56.9408 118.341 56.9554 118.905 57.1531C119.044 57.1751 119.183 57.1678 119.322 57.1238C119.886 57.036 120.472 56.9481 121.035 56.8383C121.401 56.7724 121.68 56.6699 121.57 56.15C121.489 55.6667 121.431 55.1835 121.431 54.6929C121.343 53.4481 121.204 52.2107 120.955 50.9952C120.618 49.6919 120.113 48.4325 119.498 47.2463C119.132 46.7484 118.853 46.2066 118.626 45.6282C118.37 44.8008 117.953 44.0173 117.448 43.3217C117.111 42.6481 116.664 42.0257 116.188 41.4472C115.434 40.7077 114.841 39.8144 113.86 39.2872C112.988 38.804 112.264 37.918 111.136 38.804C111.107 38.8406 111.048 38.8625 110.997 38.8772C110.938 38.8918 110.909 38.8918 110.858 38.8772C110.294 38.7454 109.679 38.782 109.144 38.987C108.559 39.1481 107.936 39.2653 107.35 39.4263C107.321 39.463 107.292 39.5069 107.292 39.5581C107.263 39.6094 107.263 39.6607 107.263 39.7119C107.68 40.1073 108.134 40.4807 108.551 40.8761C109.642 41.9232 110.938 42.7506 111.692 44.1418C112.198 44.9618 112.761 45.7453 113.347 46.5068C113.823 47.1804 113.933 48.0298 114.497 48.6522C114.577 48.7986 114.636 48.967 114.665 49.1354C114.804 49.9043 114.914 50.6804 115.061 51.4565C115.061 51.5591 115.119 51.6542 115.17 51.7201C115.251 51.7567 115.31 51.808 115.368 51.8739C115.427 51.9325 115.478 52.013 115.478 52.0936C115.507 52.1741 115.507 52.2546 115.507 52.3352C115.507 52.4157 115.449 52.4963 115.419 52.5695V52.5915H115.434ZM194.212 72.6979C194.271 69.9448 193.934 67.1917 193.261 64.5191C192.982 63.2158 192.448 61.993 191.635 60.924C191.357 60.4993 190.991 60.1552 190.544 59.9136C190.097 59.6719 189.592 59.5548 189.087 59.5548C187.491 59.5914 185.609 61.8978 185.807 63.4941C185.807 63.6259 185.836 63.7577 185.916 63.8748C185.975 63.992 186.085 64.0798 186.195 64.1311C186.334 64.1823 186.473 64.197 186.59 64.1677C186.729 64.1384 186.839 64.0725 186.956 63.9773C187.125 63.8089 187.293 63.6259 187.432 63.4135C187.659 63.1133 187.849 62.7765 188.106 62.4909C188.919 61.5757 189.534 61.5903 190.185 62.6081C190.998 63.7869 191.591 65.0976 191.928 66.4888C192.88 70.4574 193.136 74.5577 192.682 78.6142C192.543 80.4593 192.038 82.2606 191.225 83.9227C190.976 84.4133 190.639 84.8453 190.185 85.1967C190.046 85.3139 189.878 85.4018 189.709 85.4457C189.541 85.4969 189.343 85.5043 189.145 85.475C188.977 85.4457 188.809 85.3798 188.64 85.2846C188.501 85.1894 188.362 85.0576 188.245 84.9039C188.047 84.589 187.849 84.2668 187.659 83.93C187.549 83.725 187.461 83.4468 187.293 83.3223C187.183 83.2491 187.066 83.1905 186.927 83.1685C186.788 83.1392 186.678 83.1392 186.531 83.1685C186.305 83.3223 186.165 83.5493 186.114 83.8129C186.085 84.0179 186.143 84.2302 186.253 84.3986C186.729 85.0869 187.264 85.7386 187.828 86.339C188.135 86.6612 188.53 86.8662 188.977 86.9394C189.424 87.0053 189.878 86.9321 190.266 86.7197C190.771 86.3902 191.218 85.9363 191.554 85.4091C192.397 84.0911 193.012 82.6194 193.319 81.0744C193.963 78.3213 194.242 75.495 194.22 72.6686V72.6906L194.212 72.6979ZM144.861 55.1322V55.2201C144.92 55.2421 144.971 55.2494 145.059 55.2567C145.733 55.2567 145.901 54.9126 145.645 54.2902C145.418 53.8216 145.279 53.3237 145.169 52.8111C145.081 52.2254 144.803 52.1302 144.327 52.1741L143.712 52.2254C142.621 52.3718 141.493 52.3425 140.432 52.1302C139.985 52.0277 139.56 51.786 139.143 52.1814C138.945 52.2766 138.726 52.2986 138.528 52.2473C137.913 52.1375 137.32 52.013 136.705 51.8739C136.199 51.7494 136.031 51.808 135.892 52.3205C135.694 52.9136 135.555 53.5214 135.357 54.1071C135.189 54.5904 134.962 55.0517 134.794 55.5349C134.684 55.8791 134.852 56.0621 135.211 56.0182C135.885 55.9084 136.558 55.7693 137.232 55.696C137.569 55.696 137.905 55.7107 138.242 55.7473C138.66 55.7912 139.055 55.7912 139.48 55.7473C140.066 55.6375 140.659 55.3372 141.244 55.286C142.453 55.1835 143.661 55.1835 144.861 55.1322V55.1322ZM153.106 96.7363H151.986C151.759 96.7363 151.569 96.8974 151.788 97.1537C152.206 97.637 152.66 98.1275 153.077 98.6108C153.78 99.4089 154.483 100.2 155.178 101.012C155.654 101.598 156.079 102.257 156.606 102.792C157.477 103.736 158.261 104.725 158.993 105.764C159.528 106.431 159.974 107.163 160.538 107.822C161.153 108.598 161.915 109.279 162.53 110.077C163.064 110.612 163.511 111.227 163.848 111.893C164.155 112.625 164.382 112.618 165.166 112.288C165.224 112.259 165.305 112.245 165.363 112.223C165.59 112.113 165.671 111.959 165.502 111.739C165.195 111.285 164.887 110.809 164.551 110.377C164.104 109.836 163.482 109.411 163.203 108.796C162.53 107.295 161.241 106.233 160.399 104.82C159.498 103.29 158.239 101.972 157.119 100.573C156.306 99.548 155.405 98.5669 154.622 97.5198C154.204 96.9707 153.838 96.4581 153.106 96.751V96.7363ZM140.93 97.4978L140.534 97.5344C140 97.6003 139.919 97.7175 140.117 98.1861C140.344 98.7206 140.622 99.2332 140.959 99.7091C141.772 100.771 143.822 101.415 145.001 100.866C145.982 100.434 146.934 99.9434 147.527 98.9549C147.666 98.7865 147.783 98.6035 147.864 98.4131C147.922 98.2886 147.951 98.1495 147.922 98.0104C147.922 97.8713 147.864 97.7395 147.783 97.6296C147.695 97.5198 147.585 97.4319 147.446 97.3807C147.336 97.3294 147.19 97.3148 147.051 97.3368H145.477C144.744 97.2416 144.049 97.2269 143.317 97.2855C142.533 97.5052 141.742 97.5784 140.93 97.4905V97.4978ZM101.537 61.6709C101.427 61.5171 101.339 61.3853 101.258 61.334C101.061 61.2462 100.863 61.1949 100.643 61.1876C100.336 61.2022 99.999 61.2389 99.6622 61.2974C99.7501 61.5464 99.8599 61.7807 99.9112 62.037C99.9405 62.242 99.9697 62.447 100.021 62.652C100.109 62.7472 100.189 62.8204 100.329 62.8424C100.724 62.469 101.112 62.0882 101.537 61.6782V61.6709ZM86.3214 43.8782V45.5989C86.2628 46.4482 86.0724 47.2829 85.7356 48.0664C85.1205 49.6773 84.586 51.3247 83.9929 52.9136C83.6561 53.741 83.29 54.5465 82.8727 55.3372C82.3381 56.355 81.7817 57.3508 81.2472 58.3613C81.1373 58.5663 81.108 58.8079 80.9982 59.0276C80.8884 59.2399 80.8005 59.5548 80.6028 59.606C80.017 59.7818 79.7901 60.2723 79.424 60.6824C79.0871 60.9972 78.7503 61.2755 78.3549 61.5098C78.2963 61.5464 78.2451 61.5757 78.1865 61.5903C78.1279 61.605 78.0474 61.6123 77.9888 61.5976C77.3152 61.3633 76.6416 61.5464 75.9679 61.5025C74.8769 61.4292 74.423 60.6677 74.0569 59.8037C73.8885 59.4303 73.9983 58.947 73.5223 58.742C73.4931 58.7201 73.4638 58.6908 73.4638 58.6615C73.4345 58.6322 73.4345 58.5956 73.4345 58.559C73.5223 57.2922 72.7023 56.1939 72.7316 54.9638C72.7901 53.8143 72.3947 52.7745 72.1678 51.6908C72.0799 51.4639 72.0799 51.2149 72.1385 50.9806C72.4167 50.102 72.4167 49.1501 72.1385 48.2714C72.0506 47.9639 72.1092 47.6491 72.2483 47.3708C72.4167 47.1292 72.6437 46.9168 72.8634 46.7411C73.0318 46.9388 73.2588 47.1145 73.3393 47.3415C73.7054 48.4325 74.0129 49.5308 74.3205 50.6438C74.7378 52.2034 75.1039 53.7776 75.5286 55.3372C75.6384 55.718 75.9752 56.1573 75.8654 56.4502C75.6677 57.0287 75.9752 57.0872 76.3706 57.2776C76.4512 57.3289 76.5391 57.3728 76.6489 57.3874C76.7587 57.4021 76.8759 57.4021 76.9564 57.3728C77.0662 57.3435 77.1541 57.2996 77.2346 57.2337C77.3225 57.1678 77.3738 57.0872 77.4323 56.992C77.879 56.4868 78.1865 55.8937 78.3549 55.2494C78.494 54.6343 78.4648 53.9021 79.197 53.5433C79.2775 53.4921 79.2775 53.2431 79.3361 53.104C79.8706 52.1448 80.2367 51.0831 80.3758 49.9921C80.4857 49.5162 80.7419 49.0842 81.0787 48.74C81.4741 48.3007 81.7524 47.7589 81.8329 47.1731C81.9427 46.1553 82.448 45.2108 83.2388 44.5445C83.3486 44.4639 83.4877 44.3907 83.5463 44.2882C83.8245 43.6292 84.3298 43.0801 84.9521 42.6993C85.1791 42.5309 85.6258 42.2673 85.7063 42.3405C86.0138 42.6115 86.2408 42.9409 86.3799 43.3144C86.4092 43.4974 86.2921 43.7391 86.2921 43.8782H86.3214ZM139.304 69.2932H133.886C133.688 69.3224 133.49 69.2932 133.3 69.2126C133.19 69.1247 133.051 69.0662 132.883 69.0588C132.743 69.0515 132.604 69.0881 132.487 69.1614C131.872 69.4176 131.367 68.9051 130.832 68.6781C130.664 68.6122 130.466 68.4877 130.298 68.517C129.99 68.5829 129.653 68.5756 129.346 68.4804C129.038 68.3852 128.731 68.2168 128.504 67.9898C127.889 67.47 127.435 66.7744 127.245 65.9909C127.135 65.5955 127.186 65.1855 127.384 64.8267C127.581 64.4752 127.918 64.2116 128.284 64.0945C128.929 63.9187 129.544 63.7723 130.195 63.6625C130.928 63.5673 131.652 63.5233 132.355 63.516C133.644 63.516 134.991 63.743 136.258 63.0328C136.624 62.9083 136.99 62.8131 137.349 62.7545C137.744 62.6227 137.913 62.7252 138.023 63.1206C138.162 63.516 138.162 63.516 138.667 63.1206C139.282 62.6374 139.904 62.0736 140.856 62.3665C141.501 62.4836 142.145 62.5495 142.789 62.5642C143.375 62.652 143.91 62.879 144.364 63.2305C144.81 63.5819 145.176 64.0432 145.403 64.5704C145.513 64.7608 145.601 64.9878 145.235 65.0171C145.008 65.0171 144.869 65.1049 145.147 65.2514C145.396 65.3832 145.594 65.5955 145.711 65.8591C145.791 66.1227 145.821 66.4083 145.711 66.6792C145.572 67.4626 145.293 68.2241 144.503 68.517C143.719 68.7806 142.906 68.971 142.086 69.0881C141.61 69.1687 141.105 69.2199 140.629 69.2346C140.183 69.2565 139.729 69.2346 139.282 69.2346L139.311 69.2785L139.304 69.2932ZM133.864 65.1488H133.358C132.099 65.0903 130.862 65.2294 129.653 65.5589C129.514 65.6321 129.405 65.72 129.287 65.8298C129.375 65.9616 129.485 66.0861 129.595 66.1959C129.683 66.2618 129.763 66.3057 129.873 66.3204C131.22 66.5767 132.619 66.7451 133.995 66.8329C135.401 66.8329 136.8 66.562 138.206 66.9281C138.345 66.9428 138.484 66.9428 138.623 66.9281C139.604 66.9281 140.615 66.9281 141.596 66.8769C141.764 66.8622 141.933 66.8036 142.072 66.7231C142.211 66.6352 142.35 66.5254 142.438 66.3863C142.665 65.9982 142.16 65.903 141.933 65.7566C141.684 65.6468 141.427 65.6028 141.178 65.6248C140.842 65.6248 140.446 65.7346 140.168 65.6248C139.465 65.3246 138.791 64.9804 137.979 65.3026C136.631 64.8413 135.226 65.1122 133.856 65.1415L133.864 65.1488ZM63.3886 73.4887C63.4984 73.108 63.5277 72.5149 63.784 72.3904C64.2013 72.1561 64.4869 72.6979 64.7358 72.9981C65.468 73.9061 66.3906 74.6602 66.786 75.8098C67.7672 76.4688 67.9942 77.6184 68.6385 78.4897C69.2829 79.361 69.9272 80.0859 70.6301 80.8474C70.8571 81.089 71.1646 81.2867 71.4722 81.4332C72.1751 81.792 72.3435 82.407 71.809 83.0148C71.6991 83.2051 71.5014 83.3516 71.3038 83.4321C71.0768 83.5127 70.8571 83.5419 70.6301 83.498C69.3121 83.2344 68.104 82.5535 67.1814 81.5577C66.2808 80.5179 65.4973 79.3757 64.853 78.1602C64.0988 76.7251 63.3666 75.2167 63.3959 73.4887H63.3886ZM63.8938 84.7135C62.7735 84.589 61.6752 83.9666 61.5654 82.7292C61.5361 82.4143 61.4555 82.1141 61.2578 81.8652C60.7233 81.3087 60.7819 80.5838 60.5842 79.9248C60.3865 79.2732 60.8917 78.8924 61.5361 79.0755C61.8143 79.1487 62.1511 79.1853 62.3196 79.3757C63.103 80.3934 64.3404 81.0231 64.6773 82.451C64.7871 82.9928 65.0141 83.4248 64.8164 84.0032C64.6187 84.5817 64.421 84.7281 63.8938 84.7208V84.7135Z" fill="#802A00"/>
</svg>
