<svg width="162" height="201" viewBox="0 0 162 201" fill="none" xmlns="http://www.w3.org/2000/svg">
<path d="M71 12.6484L90 14.6484L104 22.1484L119 37.1484L130.5 56.6484L135.5 89.1484H139L141 95.1484L142.5 96.1484L149 88.1484L156 84.6484L160.5 88.1484L151.5 99.1484L157.5 101.648L160 109.148L150.5 122.148L147.5 124.148L143 133.648L129.5 139.148L122 134.148L116 139.148L123 144.648L126.5 155.648L125.5 165.648L132.5 155.648L141.5 149.148L148 150.648L148.5 161.648L130 178.648C128 178.648 123.9 178.548 123.5 178.148C123.1 177.748 120.667 172.982 119.5 170.648L108.5 154.148L103 149.648L94.5 150.648L89 180.148L84.5 184.148L106.5 183.648L111.5 191.648C110.167 193.315 106.7 197.048 103.5 198.648C100.3 200.248 78.8333 193.315 68.5 189.648L68 182.148L73 173.648L77 161.648L76 152.148L68 149.648L49 139.148L34.5 133.648L30.5 123.148V110.648L28 102.148L25 90.6484L9.5 95.6484L2 94.6484L3 84.1484L8 63.6484L19.5 44.6484L34 31.6484L42 27.1484L45.5 23.6484L40 13.6484V9.14844L41 4.64844L45.5 2.64844H53.5V5.64844L55.5 15.6484L57 16.6484L71 12.6484Z" fill="#FF9966"/>
<path d="M97.1049 181.141C95.6661 181.13 94.228 181.21 92.7994 181.382C91.8153 181.549 90.7574 181.534 89.847 182.095C89.6589 182.199 89.4465 182.25 89.232 182.243C88.2921 182.296 87.3661 182.493 86.4864 182.828C85.6597 183.133 84.8666 183.522 84.1195 183.99C84.0605 184.019 84.0753 184.349 84.1491 184.408C84.3239 184.527 84.5283 184.595 84.7395 184.605C85.4432 184.649 86.1518 184.679 86.8554 184.679C87.8402 184.723 88.827 184.695 89.8078 184.595C90.4861 184.546 91.1679 184.574 91.8399 184.679C92.5386 184.723 93.2423 184.792 93.941 184.782C94.6397 184.772 95.24 184.669 95.8846 184.615C96.0861 184.575 96.2933 184.575 96.4948 184.615C97.6631 185.09 98.9141 185.329 100.175 185.318C100.884 185.274 101.612 185.589 102.326 185.756C103.738 186.081 104.894 187.016 106.311 187.36C107.049 187.542 107.419 188.315 107.827 188.915C108.362 189.739 108.637 190.704 108.619 191.686C108.629 191.861 108.609 192.038 108.56 192.207C108.165 193.447 107.492 194.58 106.592 195.519C105.942 196.097 105.142 196.479 104.284 196.621C102.641 196.936 101.027 196.557 99.4029 196.577C98.5861 196.577 97.7644 196.203 96.9426 196.021C94.9104 195.573 92.8683 195.189 90.8558 194.687C90.0095 194.48 89.1828 194.195 88.3316 193.998C86.7964 193.619 85.3202 193.014 83.7751 192.679C82.6249 192.413 81.4898 192.084 80.3749 191.695C79.3908 191.38 78.3033 191.317 77.2749 191.085C76.8128 190.935 76.3594 190.759 75.9168 190.559C75.3854 190.377 74.8442 190.209 74.298 190.067C73.5107 189.865 72.7136 189.713 71.9312 189.516C70.7453 189.211 70.1204 188.231 69.4364 187.346C69.3333 187.119 69.3125 186.863 69.3774 186.622C69.5792 185.377 69.7759 184.132 70.0416 182.897C70.177 182.571 70.3799 182.278 70.637 182.036C71.1039 181.552 71.4187 180.941 71.5425 180.28C71.5813 179.998 71.7009 179.733 71.8869 179.517C72.871 178.484 73.0285 177.14 73.3631 175.866C73.3975 175.728 73.3631 175.541 73.4369 175.457C74.6622 174.178 74.854 172.471 75.3756 170.891C75.7988 169.597 76.3056 168.332 76.7386 167.038C77.0522 166.145 77.3102 165.233 77.5112 164.307C77.7031 163.377 77.6833 162.408 77.89 161.488C78.1908 159.865 78.326 158.217 78.2935 156.567C78.2743 155.579 78.1905 154.592 78.0425 153.615C77.9195 152.458 77.8015 151.302 77.6194 150.17C77.2011 147.71 76.223 145.378 74.7605 143.356C74.362 142.79 74.1652 142.091 73.7764 141.505C73.2499 140.674 72.6545 139.882 72.0641 139.094C71.7491 138.671 71.3653 138.302 71.0307 137.894C70.1893 136.865 68.9395 136.472 67.8422 135.852C67.7634 135.807 67.4879 135.989 67.4043 136.127C67.37 136.209 67.3524 136.297 67.3524 136.386C67.3524 136.474 67.37 136.562 67.4043 136.644C67.7389 137.544 67.665 138.612 68.472 139.34C68.7279 139.572 68.7377 140.049 68.9197 140.384C69.4118 141.279 69.9433 142.15 70.4304 143.045C70.701 143.537 70.8733 144.084 71.1783 144.551C71.6113 145.23 72.2953 145.796 72.5611 146.519C72.8268 147.243 72.8907 148.094 73.2647 148.827C73.3291 148.953 73.3867 149.083 73.4369 149.216C73.5747 149.585 73.3631 149.708 73.0728 149.61C72.4283 149.47 71.795 149.282 71.1783 149.049C70.1649 148.587 69.0967 148.256 67.9997 148.064C67.2063 147.885 66.4525 147.561 65.7755 147.11C65.2127 146.679 64.5574 146.384 63.8614 146.249C63.318 146.098 62.8041 145.857 62.341 145.535C61.3568 145.043 60.3481 144.551 59.3886 143.975C58.8959 143.702 58.4368 143.371 58.0207 142.991C57.2104 142.284 56.3222 141.672 55.3733 141.166C55.0004 140.91 54.6484 140.626 54.3204 140.315C53.9204 139.979 53.5014 139.667 53.0656 139.38C52.4653 139.011 52.426 138.843 52.9968 138.479C53.7693 137.987 54.5566 137.495 55.334 137.037C55.6145 136.865 55.8261 136.703 55.4177 136.432C55.3922 136.395 55.3767 136.352 55.3724 136.307C55.3681 136.263 55.3751 136.217 55.393 136.176C55.4297 136.141 55.4743 136.115 55.5231 136.101C55.5719 136.086 55.6235 136.083 55.6735 136.093C56.3821 136.491 56.8348 135.975 57.253 135.601C58.1245 134.887 58.8454 134.007 59.3738 133.012C59.4034 132.948 59.4131 132.83 59.4427 132.825C60.6335 132.599 60.5991 131.177 61.5193 130.695C61.5193 129.952 62.4001 129.711 62.5034 128.953C62.5723 128.461 63.1971 128.038 63.5465 127.565C63.7127 127.337 63.8468 127.087 63.9451 126.822C63.9584 126.758 63.9553 126.692 63.9364 126.629C63.9175 126.566 63.8834 126.509 63.8368 126.463C63.7805 126.434 63.718 126.419 63.6547 126.419C63.5914 126.419 63.5291 126.434 63.4727 126.463C63.3221 126.552 63.2025 126.685 63.1304 126.845C63.0582 127.004 63.0368 127.182 63.0692 127.354C63.1135 127.846 63.0298 127.807 62.4541 127.885C62.1559 127.944 61.8808 128.088 61.6619 128.298C60.3038 129.583 59.0244 130.951 57.6073 132.161C56.7719 132.967 55.8052 133.624 54.7485 134.105C53.5479 134.567 52.5046 135.404 51.3335 135.955C50.2756 136.447 49.1734 136.939 47.9285 136.55C47.7166 136.462 47.487 136.425 47.2581 136.441C47.0291 136.457 46.8072 136.527 46.6098 136.644C46.4988 136.685 46.3765 136.685 46.2654 136.644C45.0595 136.429 43.8681 136.14 42.698 135.778C40.8774 135.113 39.101 134.302 37.7084 132.88C37.1206 132.233 36.4945 131.621 35.8337 131.049C35.2904 130.554 34.8852 129.927 34.6577 129.229C34.5888 129.066 34.6035 128.85 34.4953 128.736C33.7621 127.934 33.5752 126.862 33.0782 125.942C32.778 125.424 32.5996 124.845 32.5566 124.249C32.4913 123.767 32.3926 123.29 32.2613 122.822C32.2376 122.659 32.2376 122.493 32.2613 122.33C32.3475 121.863 32.3032 121.381 32.1334 120.937C31.9865 120.311 31.9352 119.665 31.9809 119.023C32.099 117.217 32.286 115.416 32.473 113.61C32.5025 113.305 32.6205 113.01 32.6648 112.705C32.7583 112.09 32.7977 111.465 32.9256 110.855C33.0536 110.245 33.2602 109.748 33.4177 109.192C33.8113 107.898 34.1312 106.569 34.6232 105.309C35.1153 104.05 35.7943 102.849 36.3651 101.604C36.5752 101.159 36.7401 100.694 36.8572 100.216C36.9055 100.049 36.9169 99.8731 36.8903 99.7009C36.8638 99.5286 36.8001 99.3643 36.7037 99.2192C36.6072 99.074 36.4802 98.9516 36.3317 98.8605C36.1832 98.7693 36.0166 98.7116 35.8435 98.6913C35.2653 98.629 34.6811 98.7258 34.1539 98.9712C33.6266 99.2166 33.1765 99.6014 32.8519 100.084C32.4683 100.663 32.1199 101.264 31.8086 101.885C31.5823 102.377 31.5184 102.957 31.3412 103.484C31.1934 103.919 31.0124 104.342 30.7999 104.749C30.6805 104.914 30.5362 105.06 30.3719 105.182C30.2497 105.03 30.1456 104.865 30.0618 104.689C29.9585 104.394 29.9142 104.079 29.8306 103.779C29.1072 101.245 28.4134 98.7011 27.636 96.1818C27.4215 95.4643 27.3644 94.709 27.4686 93.9675C27.4655 93.5224 27.3631 93.0837 27.1686 92.6833C26.8798 91.9035 26.7299 91.079 26.7256 90.2475C26.7256 89.6324 26.9372 89.3323 27.3456 89.1995C28.0148 88.983 28.4282 88.4711 28.9596 88.0873C30.1996 87.177 31.4789 86.3111 32.7386 85.4254C32.7976 85.386 32.8469 85.3319 32.901 85.2925L34.1164 84.4903C34.2394 85.0119 34.3969 85.5238 34.4903 86.0503C34.5852 86.9463 34.7365 87.8352 34.9431 88.7122C35.2475 89.5235 35.6367 90.3003 36.1043 91.0298C36.2421 91.266 36.6407 91.3694 36.7391 91.6105C37.3163 92.8014 38.2298 93.7969 39.3667 94.4742C39.9523 94.794 40.4837 95.1976 41.0692 95.5174C41.3207 95.6178 41.5911 95.6616 41.8614 95.6455C41.9352 95.6455 42.0829 95.4633 42.0829 95.3649C42.1066 94.9149 42.0751 94.4638 41.9893 94.0215C41.8689 93.5068 41.6591 93.0171 41.3693 92.5749C40.6205 91.6045 40.0233 90.5261 39.598 89.3765C39.4437 89.0701 39.259 88.7801 39.0468 88.5106C38.4947 87.4779 38.257 86.3062 38.3629 85.14C38.4082 84.3033 38.2826 83.4662 37.9939 82.6797C37.8007 82.3126 37.7313 81.8931 37.796 81.4834C37.8607 81.0737 38.0562 80.6959 38.3531 80.4063C39.1453 79.5895 39.7062 78.5415 40.5329 77.7689C41.1925 77.071 41.7703 76.3 42.2551 75.471C42.8154 74.538 43.4753 73.6685 44.2233 72.8779C45.2419 71.8938 46.3391 70.9096 46.6393 69.3941C46.694 69.2391 46.7977 69.1061 46.9346 69.0152C47.2632 68.8107 47.542 68.5354 47.7506 68.2093C47.9592 67.8833 48.0922 67.5146 48.1401 67.1305C48.1576 66.9181 48.248 66.7182 48.396 66.5647C49.525 65.5829 50.391 64.3347 50.9154 62.9334C51.2089 62.2689 51.5718 61.6371 51.9979 61.0487C52.0274 60.9995 52.1455 60.9453 52.1603 60.9601C52.175 60.9749 52.3176 61.1226 52.3078 61.1915C52.2537 61.531 52.1504 61.8655 52.0963 62.2099C51.8059 63.942 50.9941 65.5363 50.8022 67.3028C50.65 68.0508 50.4461 68.7874 50.192 69.5072C50.0838 69.9353 50.0542 70.3831 49.9754 70.821C49.9537 71.0592 49.8974 71.293 49.8082 71.5149C49.4047 72.3506 49.1007 73.2306 48.9028 74.1373C48.6961 74.9886 48.6125 75.9089 48.4354 76.7947C48.3812 77.0604 48.3369 77.3357 48.2729 77.6015C48.0458 78.3943 47.8812 79.204 47.7809 80.0226C47.6176 81.087 47.3473 82.1321 46.974 83.1422C46.492 84.6122 46.2365 86.1469 46.2162 87.6937C46.2533 87.8839 46.325 88.0657 46.4277 88.23C46.6062 88.1434 46.7718 88.0325 46.9198 87.9004C47.1904 87.5904 47.4118 87.2459 47.6628 86.9162C47.8301 86.6899 47.9629 86.4832 47.5053 86.4881C47.5791 86.2667 47.5891 85.9666 47.7416 85.8485C48.003 85.6672 48.2165 85.425 48.3639 85.1431C48.5113 84.8611 48.5882 84.5478 48.5879 84.2296C48.5869 84.0462 48.6575 83.8696 48.7847 83.7375C49.4391 83.2012 49.5277 82.404 49.7688 81.6807C50.3396 80.0569 50.9005 78.4234 51.4664 76.7947C51.5665 76.5691 51.6345 76.3306 51.6682 76.0861C51.7125 75.102 52.2046 74.2211 52.1603 73.232C52.1603 73.1533 52.2537 73.0647 52.3226 72.9958C52.8758 72.3119 53.1872 71.4642 53.2083 70.5848C53.3654 69.5469 53.7106 68.5464 54.2269 67.6324C54.5128 66.8923 54.7254 66.126 54.8617 65.3444C55.2061 64.0995 55.4816 62.8398 55.7867 61.585C55.8457 61.3439 55.9344 61.093 55.9737 60.8666C56.2444 59.1641 56.4657 57.4567 56.7807 55.7591C56.9184 54.9275 57.1498 54.1107 57.3269 53.2988C57.4794 52.5902 57.6073 51.8718 57.7451 51.1583C58.1092 49.2737 58.3651 47.3595 59.2213 45.6077C59.3251 45.3452 59.3866 45.0679 59.4034 44.786C59.4526 44.4071 59.6395 43.9052 59.4673 43.6691C59.0392 43.0687 59.8511 43.177 59.8413 42.8276C59.8507 42.4404 59.8969 42.0549 59.9791 41.6763C59.9918 41.4362 60.0451 41.2 60.1365 40.9776C60.2745 40.7995 60.3741 40.5947 60.4292 40.3762C60.4842 40.1578 60.4934 39.9303 60.4563 39.7081C60.4121 39.5112 60.5941 39.2455 60.7171 39.0437C60.7762 38.9453 60.9435 38.9109 61.0616 38.847C61.1345 38.9555 61.1894 39.075 61.224 39.2011C61.2535 39.6144 61.224 40.0327 61.2634 40.451C61.3126 41.1448 61.4404 41.8436 61.4257 42.5374C61.347 43.1706 61.4638 43.8126 61.7604 44.3776C61.8489 44.5203 61.9522 44.7516 61.898 44.8696C61.4503 45.8538 61.9424 46.7789 61.9374 47.7285C61.9325 48.6782 61.8588 49.6968 61.8637 50.6809C61.8637 51.3009 61.8145 51.9407 61.8637 52.5312C61.9818 53.8696 61.7898 55.1982 61.9079 56.5267C61.9307 56.8248 61.8801 57.1239 61.7604 57.3977C61.4454 58.0817 61.1059 58.7113 61.3716 59.538C61.4389 60.0219 61.4155 60.5143 61.3027 60.9896C61.1792 62.7583 60.8591 64.5078 60.3481 66.2055C60.2625 66.4723 60.2079 66.748 60.1857 67.0272C60.099 68.7031 59.7812 70.359 59.241 71.9478C59.2041 72.0468 59.1889 72.1524 59.1966 72.2578C59.2506 72.6779 59.2201 73.1045 59.1069 73.5127C58.9937 73.9208 58.8001 74.3022 58.5374 74.6344C58.4693 74.7188 58.4282 74.8217 58.4193 74.9297C58.3252 76.0747 58.011 77.1906 57.4941 78.2165C57.4941 78.2411 57.5237 78.2954 57.4941 78.315C56.7167 79.3927 56.5691 80.7065 56.1066 81.9022C55.5404 83.3964 54.842 84.8373 54.0202 86.2077C53.5475 87.1397 53.1526 88.1091 52.8393 89.106C52.8054 89.2354 52.754 89.3595 52.6867 89.475C51.6091 90.7741 51.4811 92.5455 50.4577 93.9036C50.0623 94.5138 49.7543 95.1763 49.5425 95.8718C49.5129 95.9853 49.4556 96.0896 49.3757 96.1755C49.2959 96.2614 49.1959 96.3261 49.0849 96.3639C49.016 96.3885 48.9667 96.5902 48.9765 96.7034C48.9864 96.8165 49.1291 96.8412 49.2226 96.8658C49.2709 96.8858 49.3228 96.8961 49.3751 96.8961C49.4275 96.8961 49.4794 96.8858 49.5277 96.8658C50.1428 96.3737 51.0039 96.1767 51.4565 95.4386C51.859 94.8691 52.2945 94.3237 52.7606 93.8051C52.8554 93.7024 52.9395 93.5902 53.0115 93.4704C53.9957 91.6547 55.4718 90.154 56.1705 88.1759C56.4805 87.305 57.1546 86.5718 57.6467 85.7697C58.0034 85.2863 58.3055 84.765 58.5472 84.215C59.177 82.35 60.3137 80.7359 61.1157 78.9546C61.2495 78.6659 61.3407 78.3594 61.3864 78.0445C61.5695 76.8604 61.9556 75.7167 62.5279 74.664C62.6165 74.4869 63.0988 74.0982 62.3754 74.108C62.4099 73.9899 62.4148 73.7979 62.4837 73.7733C62.774 73.6651 62.8331 73.5027 62.8675 73.178C62.9758 72.2726 63.2218 71.3818 63.3596 70.4764C63.5958 68.9215 63.9599 67.3963 64.3191 65.866C64.5159 65.0148 64.5257 64.1191 64.6536 63.2481C64.8111 62.1705 65.0178 61.0978 65.1802 60.0202C65.2294 59.7053 65.1801 59.3856 65.2244 59.0707C65.3179 58.1948 65.4606 57.3238 65.5147 56.4479C65.5812 55.5388 65.5812 54.626 65.5147 53.7169C65.4253 53.0208 65.4469 52.3149 65.5788 51.6256C65.8846 50.4979 65.8846 49.309 65.5788 48.1812C65.2688 47.138 65.4704 46.0507 65.4016 44.9879C65.3483 43.2358 65.1989 41.4879 64.9538 39.7523C64.7285 38.8498 64.582 37.9296 64.5158 37.0017C64.5158 35.3829 63.8762 33.9657 63.33 32.5141C63.0692 31.8105 62.838 31.0922 62.5034 30.418C62.2229 29.8325 62.1983 29.0845 61.5193 28.74C61.4504 28.7056 61.4455 28.5481 61.3962 28.4546C60.7172 27.1851 59.9889 25.9354 59.3591 24.6363C58.99 23.8786 58.7341 23.0666 58.1191 22.4466C58.0952 22.42 58.0784 22.3879 58.0699 22.3531C57.9008 21.4265 57.5887 20.5317 57.1448 19.7008C56.943 19.2088 57.2087 18.8891 57.6073 18.6382C58.4538 18.0415 59.3797 17.5661 60.358 17.2259C60.6286 17.1472 60.9139 17.1324 61.1846 17.0635C61.4552 16.9946 61.7062 16.8912 61.9719 16.8076C62.7297 16.5665 63.4776 16.2908 64.2501 16.1039C65.6279 15.7693 67.0156 15.479 68.4032 15.1887C69.2756 14.9224 70.1931 14.8371 71.0996 14.9379C71.6266 14.9452 72.1487 14.8376 72.6299 14.6229C73.0088 14.5097 73.3483 14.3473 73.7124 14.6229C73.8053 14.6748 73.9113 14.6988 74.0175 14.6918C75.3855 14.6918 76.7534 14.7803 78.1213 14.736C79.2501 14.7004 80.377 14.8499 81.4574 15.1789C82.1051 15.3385 82.7626 15.4552 83.4256 15.5282C83.6914 15.5725 83.9621 15.6021 84.2327 15.6464C84.5342 15.7267 84.842 15.781 85.1528 15.8088C86.3355 15.8458 87.502 16.094 88.5972 16.5419C90.0734 17.1028 91.5152 17.7327 92.9717 18.333C93.0061 18.333 93.0455 18.3329 93.0701 18.3674C93.3997 18.5888 93.8869 18.1806 94.192 18.771C94.3642 19.1007 94.9743 19.2038 95.3926 19.3957C95.8108 19.5876 96.3422 19.6566 96.6276 19.9666C97.2968 20.6899 98.1482 20.9508 99.029 21.1821C99.1314 21.2099 99.2247 21.2641 99.2995 21.3394C100.726 22.6582 102.508 23.4406 104.073 24.5575C104.565 24.902 104.968 25.3251 105.421 25.7089C107.276 27.2293 109.041 28.8576 110.706 30.5853C111.901 31.8695 113.097 33.1587 114.268 34.4626C114.872 35.0866 115.424 35.7599 115.916 36.4753C116.321 37.1937 116.869 37.8217 117.525 38.3205C117.656 38.441 117.762 38.5844 117.84 38.7437C118.825 40.3838 119.82 42.024 120.827 43.6642C121.063 44.0579 121.26 44.4711 121.482 44.8696C121.703 45.2682 122.018 45.5832 122.057 45.9621C122.116 46.5132 123.096 46.0655 122.884 46.8922C122.795 47.2317 123.179 47.699 123.376 48.0976C124.139 49.6181 124.931 51.1287 125.674 52.659C125.949 53.2199 126.102 53.84 126.338 54.4206C126.88 55.7344 127.44 57.0384 127.977 58.3571C128.067 58.6377 128.139 58.9237 128.193 59.2134C128.454 60.2418 128.685 61.2751 128.985 62.2986C129.236 63.1843 129.551 64.0552 129.832 64.936C130.024 65.5314 129.94 66.2349 130.225 66.7564C130.56 67.3617 130.417 67.9573 130.54 68.5428C130.663 69.1284 131.033 69.645 131.126 70.2158C131.392 72.2972 131.953 74.3245 131.992 76.4552C132.064 77.8798 132.229 79.2982 132.484 80.7016C132.546 80.9742 132.564 81.2548 132.538 81.5331C132.44 81.9404 132.46 82.3673 132.597 82.7633C132.72 83.0831 132.509 83.516 132.548 83.8851C132.632 84.6822 132.833 85.4746 132.883 86.2767C132.905 87.0041 132.88 87.732 132.809 88.4563C132.855 89.0839 132.777 89.7145 132.578 90.3114C132.415 90.6608 132.578 91.1872 132.681 91.6252C132.897 92.6732 132.189 93.6969 132.612 94.7647C132.676 94.9418 132.494 95.2073 132.45 95.4386C132.317 96.1177 132.194 96.8067 132.071 97.4907L131.938 98.2041C131.894 98.4452 131.751 98.7207 131.825 98.9126C131.959 99.4239 131.947 99.9627 131.79 100.468C131.662 101.191 131.628 101.944 131.485 102.647C131.254 103.794 130.959 104.926 130.703 106.067C130.652 106.33 130.621 106.597 130.609 106.864C130.609 106.968 130.668 107.081 130.639 107.174C130.408 108.04 130.147 108.901 129.92 109.767C129.827 110.112 129.428 110.432 129.827 110.835C129.861 110.875 129.788 111.096 129.704 111.16C129.064 111.652 128.577 112.223 128.72 113.128C128.11 114.024 128.631 115.338 127.618 116.081C127.618 117.065 126.633 117.69 126.722 118.728C126.751 118.989 126.422 119.274 126.284 119.555C125.536 121.1 124.808 122.65 124.04 124.195C123.969 124.353 123.859 124.49 123.72 124.593C122.996 125.112 122.481 125.873 122.269 126.739C121.954 127.757 121.25 128.48 120.655 129.287C120.378 129.601 120.145 129.95 119.961 130.326C119.469 131.679 118.485 132.663 117.501 133.677C116.586 134.616 115.395 135.36 115.04 136.796C114.952 137.151 114.42 137.436 114.056 137.677C113.482 138.08 112.961 138.555 112.506 139.089C112.003 139.757 111.321 140.269 110.538 140.565C110.327 140.629 110.046 140.743 110.243 141.057C109.692 141.161 109.569 141.791 108.988 141.973C108.408 142.155 107.881 142.799 107.286 143.159C106.454 143.651 105.573 144.084 104.722 144.551C104.47 144.676 104.235 144.833 104.023 145.019C103.046 145.932 101.849 146.576 100.549 146.888C100.057 147.016 99.6981 147.38 99.1765 147.513C98.2509 147.839 97.3566 148.247 96.5046 148.734C96.0126 148.975 95.3533 148.734 94.9596 149.25C94.8366 149.162 94.6348 149.088 94.6151 148.98C94.5431 148.599 94.5101 148.211 94.5167 147.823C94.5167 147.006 94.5659 146.224 94.0246 145.506C93.8573 145.279 94.0247 144.827 93.9459 144.522C93.6359 143.262 93.3112 142.002 92.9618 140.757C92.6117 139.433 92.1167 138.15 91.4856 136.934C91.2641 136.579 91.0157 136.242 90.7426 135.925C90.3982 135.478 90.0587 135.025 89.6847 134.602C89.2912 134.152 88.8705 133.726 88.425 133.327C88.3512 133.258 88.0019 133.327 87.933 133.455C87.8071 133.667 87.7487 133.913 87.7656 134.159C87.9133 135.734 88.0412 137.313 88.2577 138.878C88.3618 139.54 88.5906 140.176 88.9319 140.753C89.1535 141.148 89.2512 141.6 89.2123 142.051C89.165 142.8 89.3846 143.541 89.8323 144.143C90.0503 144.463 90.148 144.85 90.1079 145.235C90.0773 145.691 90.1548 146.148 90.3342 146.569C90.5925 147.064 90.7116 147.62 90.6786 148.178C90.7339 149.559 90.8736 150.936 91.0969 152.301C91.373 154.138 91.416 156.003 91.2248 157.852C91.2211 158.062 91.2343 158.273 91.2642 158.481C91.2642 159.593 91.4955 160.755 91.2642 161.798C91.0059 163.07 90.812 164.354 90.6835 165.646C90.6031 166.299 90.4749 166.945 90.2998 167.58C90.2112 167.987 90.1601 168.403 90.1473 168.82C90.1602 169.031 90.1452 169.242 90.1029 169.449C89.6109 170.743 89.6355 172.131 89.4141 173.469C89.0893 175.438 88.4742 177.371 88.1199 179.345C88.0219 179.831 87.9724 180.325 87.9723 180.821C87.9723 181.352 88.1986 181.397 88.7104 181.219C88.9728 181.122 89.2089 180.964 89.3994 180.759C89.59 180.554 89.7299 180.307 89.8078 180.039C90.167 179.202 90.7131 178.444 91.0821 177.613C91.9285 175.713 92.9274 173.878 93.2079 171.767C93.3161 170.94 93.6064 170.143 93.7638 169.307C94.0689 167.747 94.3297 166.182 94.6348 164.622C94.7135 164.214 94.9448 163.825 94.994 163.417C95.2563 161.544 95.3322 159.65 95.2204 157.763C95.122 156.434 95.2794 155.091 95.2696 153.758C95.2601 153.642 95.2778 153.526 95.3212 153.419C95.3646 153.311 95.4325 153.215 95.5195 153.139C95.6066 153.062 95.7102 153.007 95.8223 152.978C95.9344 152.949 96.0518 152.946 96.1651 152.97C97.0558 153.064 97.5675 152.168 98.409 152.237C98.4271 152.237 98.4452 152.234 98.4621 152.227C98.4789 152.221 98.4944 152.21 98.5073 152.198C99.2848 151.159 100.643 151.593 101.607 150.997C101.74 150.913 102.163 151.091 102.306 151.268C102.746 151.921 103.35 152.447 104.058 152.793C104.137 152.832 104.245 152.867 104.269 152.931C104.633 153.738 105.44 154.132 105.967 154.766C106.573 155.575 107.29 156.294 108.098 156.902C108.464 157.183 108.75 157.554 108.929 157.979C109.312 158.83 109.917 159.561 110.681 160.095C110.755 160.145 110.858 160.268 110.838 160.317C110.607 160.873 111.006 161.242 111.33 161.522C112.364 162.506 112.944 163.766 113.633 164.967C113.928 165.459 114.253 165.975 114.543 166.487C114.701 166.763 114.863 167.319 114.957 167.304C115.759 167.186 115.055 167.796 115.277 167.914C115.306 167.914 115.311 167.978 115.336 168.003C116.158 168.726 116.32 169.838 116.871 170.719C117.422 171.6 117.619 172.579 117.973 173.524C118.03 173.725 118.1 173.923 118.185 174.114C118.829 175.266 119.42 176.451 120.153 177.559C120.807 178.543 121.418 179.61 122.554 180.152C123.08 180.422 123.635 180.631 124.208 180.777C125.19 181.009 126.188 181.163 127.194 181.239C127.928 181.32 128.668 181.157 129.3 180.777C130.437 180.119 131.524 179.379 132.553 178.562C133.537 177.657 134.797 177.15 135.751 176.21C136.288 175.679 136.952 175.28 137.523 174.783C138.556 173.888 139.604 173.007 140.569 172.038C141.617 170.99 142.906 170.237 143.929 169.189C144.761 168.337 145.848 167.742 146.463 166.669C146.618 166.48 146.809 166.323 147.024 166.207C147.533 165.838 147.965 165.376 148.299 164.844C148.624 164.352 148.835 163.732 149.381 163.368C149.588 163.22 149.563 162.787 149.721 162.531C150.345 161.537 150.7 160.397 150.749 159.224C150.743 159.081 150.776 158.938 150.843 158.811C151.335 158.073 150.946 157.276 150.995 156.508C150.582 156.267 150.833 155.893 150.794 155.568C150.81 155.048 150.718 154.53 150.523 154.048C150.294 153.468 150.179 152.85 150.183 152.227C150.119 151.573 149.623 151.12 149.45 150.485C149.372 150.157 149.219 149.851 149.004 149.591C148.79 149.331 148.518 149.124 148.21 148.985C148.11 148.942 148.029 148.863 147.984 148.763C147.635 147.818 146.773 147.695 145.957 147.454C145.452 147.292 144.958 147.095 144.48 146.864C143.97 146.628 143.392 146.585 142.852 146.741C141.809 146.992 140.829 147.445 139.752 147.612C139.139 147.779 138.569 148.074 138.079 148.478C136.785 149.368 135.505 150.284 134.265 151.238C133.517 151.814 132.833 152.478 132.144 153.123C131.652 153.615 131.16 154.107 130.668 154.599C130.339 154.953 130.063 155.352 129.748 155.721C128.168 157.568 126.903 159.663 126.004 161.921C125.748 162.561 125.334 163.151 125.138 163.806C125.006 164.386 124.952 164.982 124.975 165.577C124.975 165.695 125.177 165.852 125.32 165.926C125.369 165.956 125.551 165.813 125.62 165.71C126.21 164.829 126.801 163.953 127.372 163.062C128.221 161.647 129.268 160.359 130.481 159.239C130.616 159.127 130.735 158.998 130.836 158.855C131.903 157.281 133.414 156.208 134.93 155.13C135.82 154.501 136.637 153.762 137.533 153.162C138.432 152.495 139.386 151.908 140.386 151.406C141.224 150.967 142.153 150.732 143.098 150.722C143.674 150.736 144.236 150.902 144.728 151.201C145.22 151.501 145.625 151.924 145.903 152.429C146.193 152.975 146.463 153.536 146.729 154.102C146.795 154.259 146.834 154.425 146.847 154.594C146.951 155.322 147.044 156.07 147.142 156.779C147.142 156.848 147.231 156.931 147.206 156.976C146.714 157.96 147.206 158.983 146.965 159.972C146.925 160.277 146.933 160.586 146.99 160.888C147.01 160.959 147.043 161.026 147.088 161.084C146.267 161.202 146.596 162.069 146.208 162.467C145.977 162.809 145.775 163.17 145.602 163.545C145.343 164.001 145.046 164.435 144.717 164.844C143.619 166.099 142.566 167.412 141.203 168.406C140.711 168.775 140.145 169.09 139.619 169.44C139.159 169.693 138.755 170.038 138.433 170.453C138.217 170.773 137.66 170.842 137.311 171.103C136.962 171.363 137.026 171.866 136.514 172.028C135.732 172.274 135.269 173.15 134.364 173.204C133.611 174.326 132.105 174.488 131.328 175.585C131.21 175.748 130.934 175.792 130.732 175.886C130.531 175.979 130.422 175.954 130.358 176.053C129.773 176.924 128.71 176.948 127.898 177.45C127.789 177.533 127.662 177.586 127.527 177.607C127.392 177.628 127.254 177.614 127.125 177.568C126.402 177.357 125.62 177.568 124.892 177.145C124.317 176.819 123.813 176.382 123.408 175.86C123.002 175.338 122.704 174.742 122.53 174.104C122.185 173.002 121.801 171.914 121.428 170.827C121.378 170.619 121.272 170.429 121.122 170.276C120.217 169.597 119.877 168.519 119.238 167.663C119.154 167.55 119.016 167.437 119.002 167.319C118.874 165.902 117.801 164.903 117.378 163.604C117.116 162.796 116.634 162.076 115.985 161.527C115.827 161.35 115.698 161.149 115.601 160.932C115.336 160.523 115.075 160.115 114.794 159.717C114.681 159.554 114.499 159.446 114.386 159.283C113.402 157.871 112.482 156.425 111.434 155.052C111.015 154.632 110.54 154.272 110.021 153.984C109.913 153.9 109.716 153.851 109.692 153.753C109.416 152.719 108.398 152.532 107.679 152.06C106.981 151.495 106.117 151.172 105.219 151.14C105.08 151.152 104.941 151.117 104.825 151.04C104.709 150.963 104.622 150.849 104.579 150.717C104.503 150.562 104.401 150.421 104.279 150.298C104.122 150.151 103.935 150.033 103.787 149.9L104.333 149.6L104.786 149.324L108.157 147.4C108.436 147.252 108.697 147.072 108.934 146.864C109.126 146.677 109.643 146.795 109.505 146.278C109.505 146.249 109.662 146.121 109.741 146.126C110.396 146.15 110.725 145.634 111.148 145.299C111.695 144.866 112.28 144.482 112.831 144.059C113.609 143.459 114.381 142.858 115.134 142.234C115.405 142.007 115.542 141.845 115.971 142.076C116.409 142.278 116.797 142.573 117.107 142.942C117.504 143.439 117.969 143.876 118.49 144.241C119.877 145.225 120.798 146.554 121.669 147.951C121.92 148.355 122.161 148.758 122.426 149.157C122.757 149.598 123.029 150.081 123.233 150.594C123.623 151.495 124.092 152.359 124.636 153.177C125.295 153.344 124.793 153.846 124.911 154.161C125.187 154.958 125.403 155.785 125.61 156.621C125.743 157.114 125.925 157.605 126.515 157.664C127.007 157.723 127.746 157.055 127.878 156.528C128.198 155.298 128.075 154.038 128.144 152.788C128.146 152.619 128.111 152.451 128.041 152.296C127.219 150.466 126.811 148.443 125.472 146.884C125.356 146.754 125.263 146.606 125.197 146.446C125.155 146.177 125.082 145.915 124.98 145.663C124.69 145.252 124.373 144.861 124.03 144.492C123.194 143.508 122.356 142.535 121.516 141.574C121.324 141.369 121.12 141.176 120.906 140.994C120.581 140.693 119.878 140.94 119.804 140.546C119.705 139.995 119.312 139.818 119.011 139.493C118.608 139.025 118.549 138.932 118.908 138.459C119.395 137.819 119.97 137.251 120.616 136.772C120.926 136.545 121.108 136.516 121.413 136.831C122.433 137.842 123.573 138.724 124.808 139.458C125.117 139.627 125.448 139.75 125.792 139.822C126.697 140.088 127.49 140.684 128.469 140.743C128.711 140.794 128.959 140.818 129.207 140.816C130.644 140.58 132.159 140.885 133.547 140.246C133.64 140.195 133.749 140.181 133.852 140.206C134.654 140.516 135.289 140.231 135.899 139.714C136.129 139.548 136.387 139.426 136.662 139.355C138.176 138.807 139.633 138.112 141.011 137.279C141.07 137.244 141.154 137.279 141.213 137.219C141.671 136.959 142.296 137.146 142.616 136.422C142.798 136.009 143.462 135.778 143.747 135.251C143.959 134.97 144.213 134.723 144.5 134.518C145.317 133.765 145.681 132.732 146.188 131.782C147.118 130.021 147.379 128.042 147.989 126.182C148.135 125.496 148.154 124.789 148.043 124.096C148.016 123.968 147.957 123.848 147.871 123.749C147.785 123.65 147.674 123.575 147.551 123.53C147.418 123.549 147.292 123.598 147.181 123.673C147.07 123.748 146.978 123.847 146.911 123.963C146.419 124.839 146.001 125.755 145.519 126.635C145.23 127.162 144.901 127.665 144.535 128.141C144.254 128.495 143.836 128.746 143.934 129.307C143.934 129.386 143.737 129.524 143.614 129.602C142.913 130.066 142.301 130.653 141.809 131.334C141.085 132.378 140.094 133.208 138.94 133.736C138.708 133.828 138.5 133.971 138.33 134.154C137.609 134.873 136.716 135.396 135.737 135.674C134.462 136.117 133.183 136.56 131.903 136.993C131.774 137.038 131.636 137.052 131.5 137.033C130.117 136.85 128.744 136.614 127.357 136.496C126.594 136.427 126.25 135.783 125.644 135.512C124.96 135.127 124.318 134.67 123.73 134.149C123.641 134.095 123.564 134.022 123.504 133.936C123.444 133.85 123.403 133.752 123.384 133.649C123.364 133.546 123.367 133.44 123.391 133.338C123.415 133.236 123.46 133.14 123.524 133.057C124.114 131.925 124.572 130.715 125.556 129.824C125.67 129.695 125.754 129.542 125.802 129.376C125.825 129.237 125.856 129.099 125.895 128.963C126.245 128.279 126.328 127.457 127.544 127.56C128.587 127.654 129.684 127.29 130.747 127.068C131.129 126.991 131.487 126.822 131.79 126.576C133.213 125.42 134.448 124.051 135.451 122.517C135.943 121.749 135.899 120.878 136.135 120.056C136.184 119.884 135.953 119.623 135.82 119.422C135.781 119.392 135.735 119.372 135.686 119.364C135.637 119.355 135.587 119.358 135.54 119.372C135.304 119.707 135.102 120.081 134.6 119.756C134.285 120.032 133.98 120.307 133.655 120.573C132.705 121.346 131.741 122.113 130.791 122.891C130.604 123.038 130.462 123.24 130.27 123.383C130.078 123.525 129.999 123.762 129.778 123.471C129.556 123.181 129.148 123.752 128.961 123.284C128.774 122.817 129.31 122.856 129.419 122.556C129.783 121.607 130.24 120.691 130.658 119.761C130.988 119.028 131.362 118.315 131.643 117.557C131.864 116.917 131.957 116.228 132.135 115.589C132.188 115.439 132.254 115.294 132.332 115.156C132.504 115.244 132.72 115.288 132.824 115.426C133.084 115.751 133.271 116.144 133.542 116.464C133.916 116.902 134.329 117.301 135.018 116.956C135.092 116.917 135.22 116.991 135.328 117.011C135.205 117.439 135.51 117.478 135.82 117.503C136.033 117.524 136.247 117.495 136.446 117.42C136.646 117.345 136.826 117.225 136.972 117.07C137.202 116.823 137.331 116.497 137.331 116.159C137.331 115.821 137.202 115.496 136.972 115.249C136.577 114.8 136.277 114.277 136.091 113.709C135.855 113.094 135.515 112.513 135.23 111.918C135.108 111.705 135.017 111.477 134.959 111.239C134.876 110.648 134.895 110.043 134.782 109.462C134.607 108.421 134.673 107.354 134.974 106.343C135.308 105.073 135.363 103.73 135.678 102.45C135.976 101.351 136.105 100.213 136.061 99.075C135.957 98.2442 136.143 97.4029 136.588 96.6935C136.757 96.4627 136.855 96.1877 136.871 95.9021C136.887 95.6164 136.819 95.3324 136.676 95.0845C136.613 94.9817 136.573 94.8663 136.56 94.7464C136.546 94.6265 136.559 94.5049 136.598 94.3906C137.011 93.6869 136.844 92.9488 136.785 92.2304C136.755 91.881 136.711 91.5858 137.06 91.4087C137.142 91.3716 137.231 91.3521 137.322 91.3513C137.412 91.3505 137.501 91.3685 137.584 91.4041C137.667 91.4398 137.741 91.4923 137.803 91.5584C137.864 91.6244 137.911 91.7024 137.941 91.7876C138.354 92.5847 138.974 93.2638 139.107 94.2479C139.265 95.4288 139.707 96.5654 139.658 97.7858C139.66 97.9625 139.693 98.1376 139.757 98.3026C140.242 99.6055 140.242 101.039 139.757 102.342C139.348 103.43 139.471 104.571 139.338 105.683C139.351 106.037 139.465 106.378 139.668 106.668C140.061 107.413 140.602 108.071 141.257 108.601C141.577 108.814 141.833 109.108 142 109.452C142.055 109.799 142.018 110.154 141.892 110.481C141.73 111.195 141.543 111.903 141.356 112.612C141.282 112.897 141.021 113.173 141.395 113.443C141.769 113.714 142.197 114.038 142.625 113.655C143.349 113.01 144.269 112.498 144.485 111.431C144.613 110.806 144.835 110.348 145.592 110.446C145.661 110.446 145.765 110.447 145.799 110.417C146.454 109.659 146.783 110.323 147.251 110.683C147.752 111.068 148.334 111.334 148.953 111.46C150.826 111.814 152.764 111.528 154.454 110.648C155.001 110.421 155.474 110.049 155.822 109.571C156.132 108.98 156.511 108.306 156.314 107.548C156.292 107.397 156.236 107.253 156.151 107.127C156.065 107 155.952 106.895 155.821 106.817C155.689 106.74 155.541 106.694 155.389 106.682C155.237 106.669 155.084 106.691 154.942 106.746C154.12 107.002 153.308 107.209 152.634 107.922C151.96 108.636 150.862 108.759 149.864 108.532C149.416 108.434 148.766 108.508 148.594 107.942C148.383 107.228 147.92 106.569 148.186 105.728C148.377 105.139 148.692 104.597 149.109 104.14C149.527 103.682 150.037 103.319 150.607 103.075C151.297 102.666 152.064 102.404 152.86 102.303C153.569 102.241 154.278 102.414 154.878 102.795C155.106 102.964 155.365 103.086 155.64 103.154C156.939 103.381 157.343 104.404 157.697 105.442C158.056 106.516 158.211 107.648 158.155 108.779C158.13 109.448 158.056 110.107 157.348 110.476C157.2 110.555 157.121 110.816 157.077 111.007C156.954 111.568 156.846 112.125 156.285 112.439C155.793 113.812 154.479 114.54 153.825 115.815C153.288 116.853 152.348 117.685 151.625 118.625C151.3 119.038 150.828 119.363 150.739 119.938C150.728 119.975 150.708 120.008 150.681 120.037C150.655 120.065 150.623 120.087 150.587 120.101C150.488 120.13 150.361 120.076 150.277 120.101C149.293 120.593 148.771 121.577 148.24 122.413C147.802 123.112 148.269 123.589 149.116 123.835C149.431 123.933 149.769 123.932 150.083 123.832C150.398 123.733 150.675 123.54 150.877 123.279C151.202 122.955 151.571 122.679 151.92 122.379C152.683 121.72 153.397 121.016 154.228 120.411C154.865 119.919 155.44 119.353 155.941 118.723C156.142 118.477 156.433 118.231 156.496 117.96C156.527 117.789 156.603 117.63 156.715 117.498C156.827 117.365 156.973 117.265 157.136 117.207C157.256 117.134 157.361 117.039 157.446 116.927C157.938 116.317 158.484 115.717 158.962 115.082C159.178 114.733 159.372 114.372 159.542 113.999C159.641 113.817 159.779 113.655 159.887 113.473C160.113 113.089 160.487 112.71 160.527 112.302C160.622 111.688 160.849 111.103 161.191 110.584C161.548 109.817 161.661 108.958 161.516 108.124C161.43 107.636 161.374 107.143 161.348 106.648C161.372 105.64 161.049 104.655 160.433 103.858C159.892 103.13 159.488 102.318 158.932 101.585C158.622 101.158 158.222 100.805 157.76 100.55C157.299 100.294 156.787 100.144 156.26 100.108C155.552 100.049 154.956 99.7147 154.292 99.6163C154.048 99.5871 153.806 99.5409 153.569 99.4784C153.377 99.4292 153.195 99.3506 153.008 99.2867C153.086 99.1374 153.179 98.9955 153.283 98.8633C153.45 98.6373 153.655 98.4425 153.889 98.2877C154.307 98.1273 154.684 97.8767 154.994 97.5534C155.303 97.2302 155.537 96.8424 155.68 96.4179C155.703 96.3776 155.737 96.3444 155.778 96.3218C155.818 96.2993 155.864 96.2881 155.911 96.2899C156.487 96.467 156.748 96.0538 157.043 95.7094C157.499 95.0618 158.065 94.499 158.716 94.0463C159.21 93.696 159.589 93.2058 159.803 92.6388C160.229 91.8027 160.723 91.0029 161.279 90.2475C161.988 89.1502 162.347 87.9495 161.535 86.6849C161.274 86.2764 161.142 85.7796 160.91 85.3466C160.497 84.5642 159.975 84.2444 158.996 84.0131C158.775 83.9639 158.607 83.6587 158.386 83.6095C157.348 83.3831 156.344 83.0586 155.232 83.4178C154.424 83.6042 153.6 83.7161 152.772 83.7522C152.191 83.946 151.634 84.2069 151.113 84.5297C150.011 85.071 149.273 86.0601 148.294 86.7293C147.477 87.2903 147.079 88.176 146.39 88.8206C146.076 89.1494 145.805 89.5162 145.583 89.9128C145.323 90.2857 145.101 90.6829 144.918 91.0987C144.81 91.3694 144.918 91.7089 144.402 91.5514C144.264 91.5071 143.949 92.0189 143.732 92.2895C143.334 92.7815 142.714 93.1801 142.842 93.9723C142.842 94.0461 142.724 94.1299 142.684 94.2234C142.528 94.566 142.401 94.9217 142.306 95.2863C142.217 95.7784 142.207 96.3393 142.694 96.6296C143.181 96.9199 143.742 96.6295 144.136 96.2654C144.899 95.542 145.612 94.7892 146.365 94.0215C146.562 93.8198 146.754 93.5294 146.995 93.4802C147.556 93.3572 147.802 92.9341 148.077 92.5454C148.515 91.9036 149.055 91.3384 149.677 90.8724C150.042 90.5485 150.357 90.1721 150.611 89.7554C151.211 88.9455 151.978 88.2742 152.86 87.7872C154.371 86.931 155.911 87.0097 157.486 87.2951C158.44 87.4821 158.573 87.9102 158.066 88.7319C157.719 89.1678 157.488 89.684 157.392 90.2328C157.353 90.6314 156.9 91.0248 156.546 91.3594C154.97 92.8232 153.49 94.388 152.117 96.0438C151.802 96.4473 151.625 96.9641 151.33 97.3823C151.039 97.7783 150.868 98.2497 150.838 98.7403C150.838 98.819 150.71 98.8882 150.646 98.9669L150.508 98.7209C150.171 98.1907 149.642 97.8114 149.032 97.6627C147.664 97.0916 146.126 97.0829 144.751 97.6382C144.658 97.6825 144.53 97.7466 144.456 97.717C143.698 97.3824 143.186 97.8005 142.665 98.2581C142.557 98.3565 142.36 98.3517 142.207 98.396C142.162 98.2685 142.131 98.1364 142.114 98.0022C142.114 97.5889 142.114 97.1757 142.114 96.7574C142.114 96.0587 142.035 95.355 142.045 94.6563C142.082 93.1718 141.772 91.6992 141.139 90.3558C140.987 90.036 140.854 89.7062 140.677 89.4061C140.5 89.1059 140.382 88.8502 140.185 88.7665C139.304 88.4319 138.556 87.7184 137.533 87.7824C137.213 87.807 137.09 87.6789 137.085 87.3787C137.119 86.3626 137.09 85.3453 136.996 84.3329C136.716 82.4188 137.036 80.4652 136.504 78.5757C136.439 78.2338 136.416 77.8851 136.435 77.5375C136.376 75.7366 135.791 74.0145 135.623 72.2431C135.491 70.826 135.013 69.4925 134.875 68.0901C134.802 67.3619 134.359 66.6876 134.295 66.0184C134.093 63.9812 133.015 62.2099 132.71 60.222C132.643 59.8712 132.507 59.5369 132.312 59.2379C131.947 58.7209 131.773 58.0929 131.82 57.4616C131.82 57.3927 131.864 57.3091 131.82 57.255C131.259 56.0642 130.688 54.8734 130.117 53.6876C130.04 53.5671 129.972 53.4404 129.916 53.3087C129.738 52.669 129.773 52.0341 129.241 51.4288C128.71 50.8236 128.626 49.8887 128.292 49.1211C128.006 48.4568 127.642 47.827 127.308 47.1529C127.086 46.6608 126.904 46.1687 126.678 45.7209C126.531 45.2876 126.302 44.8867 126.004 44.54C125.398 43.9987 125.226 43.1671 124.572 42.6455C124.37 42.4881 124.385 41.9616 124.129 41.6074C123.115 40.2148 122.161 38.7731 121.231 37.3314C120.507 36.2193 119.823 35.0827 119.11 33.9658C118.849 33.5574 118.667 33.0652 118.126 32.9028C118.059 32.8769 118.003 32.8282 117.968 32.7652C117.137 31.4465 115.872 30.5164 114.873 29.3453C114.066 28.3857 113.397 27.2393 112.157 26.7276C112.034 26.6735 112.005 26.4223 111.896 26.2944C111.645 25.9992 111.404 25.5171 111.114 25.4777C110.012 25.335 109.692 24.3214 108.998 23.7457C108.426 23.176 107.76 22.7083 107.03 22.363C106.961 22.3384 106.867 22.3384 106.833 22.2892C106.164 21.3051 105.13 20.8622 104.087 20.4243C103.879 20.3113 103.708 20.1404 103.595 19.9322C103.053 19.1022 102.257 18.4691 101.327 18.1264C100.343 17.6835 99.1913 17.457 98.4188 16.5762C97.292 16.3499 96.5538 15.1593 95.2597 15.3168C95.058 15.3414 94.8268 15.1396 94.6103 15.051C94.2904 14.9182 93.9657 14.7901 93.6262 14.6671C93.4208 14.6246 93.2209 14.5586 93.0307 14.4703C91.5545 13.4567 89.8324 13.186 88.2135 12.6054C87.9921 12.5267 87.8051 12.3643 87.5886 12.2757C87.3721 12.1872 87.1899 12.079 87.0276 12.1282C86.39 12.2571 85.7272 12.1448 85.1676 11.8132C84.3701 11.4555 83.4812 11.3539 82.6236 11.5228C82.3186 11.5818 81.9495 11.8133 81.733 11.3507C80.7161 11.0777 79.6661 10.9484 78.6134 10.9668C77.9196 11.0258 77.216 10.9669 76.5172 10.9423C75.6118 10.9423 74.7064 10.9029 73.8011 10.9423C73.245 10.9423 72.6889 11.0407 72.128 11.0653C71.4691 11.0639 70.8111 11.1132 70.1597 11.2128C69.4905 11.3457 68.723 11.0701 68.098 11.2767C67.4918 11.5328 66.855 11.7099 66.2036 11.8034C65.3425 11.8624 64.3879 11.7591 63.7433 12.5316C63.0741 12.3397 62.5771 12.9696 61.9571 12.9401C60.6483 12.8761 59.5854 13.56 58.5127 14.121C57.8238 14.4802 57.0365 14.49 56.387 14.8788C56.3329 14.9132 56.0081 14.6869 55.9884 14.559C55.7079 12.7137 55.1422 10.9029 55.3537 9.0036C55.4374 8.23599 55.5308 7.46829 55.6194 6.70067C55.6194 6.66623 55.6194 6.627 55.6194 6.59256C55.5026 5.41348 55.6713 4.22348 56.1114 3.12339C56.2984 2.63133 55.7769 2.01632 55.3439 1.71617C54.8026 1.34712 54.281 1.41103 53.6757 1.41103C52.7096 1.41649 51.7475 1.28742 50.817 1.02733C50.0297 0.805906 49.1636 1.19954 48.4501 0.648438C48.4501 0.648438 48.3862 0.648438 48.3517 0.648438C47.1364 0.978117 45.8619 0.850153 44.6367 1.11094C43.997 1.24872 43.2834 1.26341 42.9685 2.01626C42.1812 1.79975 41.9844 2.65595 41.3792 2.89706C40.2032 3.38912 39.0075 4.01407 38.4268 5.2639C38.1746 5.79867 38.0516 6.38521 38.0676 6.97626C38.1119 7.8718 38.3777 8.75255 38.4909 9.64318C38.5548 10.1352 38.4564 10.6766 38.4909 11.1883C38.5667 12.3121 38.7046 13.4308 38.9041 14.5393C39.0911 15.4545 39.5144 16.3156 39.7407 17.2259C39.9197 17.9798 40.2204 18.6995 40.6312 19.3566C40.831 19.7241 40.9958 20.1095 41.1233 20.5079C41.3236 21.2177 41.6725 21.877 42.1468 22.4418C42.4406 22.8047 42.6931 23.1989 42.8997 23.6176C42.9125 23.648 42.9191 23.6808 42.9191 23.7137C42.9191 23.7467 42.9125 23.7792 42.8997 23.8096C42.4814 24.4886 42.196 25.2858 41.2857 25.522C40.9886 25.6103 40.699 25.7222 40.4197 25.8566C39.5291 26.2454 38.6385 26.6439 37.7528 27.0375C37.3461 27.147 36.9638 27.3322 36.6259 27.5837C35.9174 28.3956 34.9234 28.804 34.1213 29.4781C33.5267 29.8904 32.896 30.2477 32.2368 30.5459C31.976 30.6498 31.7359 30.7998 31.5281 30.9887C30.9869 31.6579 30.2291 32.0418 29.5599 32.5634C29.1557 32.9437 28.681 33.2412 28.1625 33.4391C27.977 33.5138 27.8104 33.6292 27.675 33.7764C27.5397 33.9237 27.4389 34.0992 27.3801 34.2904C27.3598 34.4784 27.2802 34.6551 27.1528 34.7949C27.0254 34.9347 26.8569 35.0303 26.6716 35.0679C26.4002 35.1344 26.1468 35.2596 25.9292 35.4347C25.7115 35.6099 25.5349 35.8307 25.4119 36.0815C25.2763 36.3309 25.0734 36.5372 24.8263 36.6769C24.2695 37.0368 23.7976 37.5138 23.4436 38.0745C23.1718 38.574 22.7302 38.9597 22.1987 39.1619C22.1314 39.1869 22.0732 39.2314 22.0315 39.2898C20.9834 40.5937 19.7778 41.7502 18.8035 43.128C18.4345 43.62 18.1048 44.176 17.6964 44.6484C16.9198 45.4445 16.3048 46.3837 15.8855 47.4138C15.7133 47.9059 15.1573 48.2306 14.7932 48.6439C14.4866 48.9745 14.2038 49.3262 13.9469 49.6968C13.4548 50.4595 12.9628 51.2369 12.5298 52.0242C12.0033 52.9591 11.2996 53.7612 10.8764 54.7798C10.409 55.8968 9.62165 56.8759 9.02626 57.9486C8.5342 58.8343 8.12086 59.7645 7.66325 60.6699C7.58038 60.8083 7.48668 60.9399 7.38286 61.0634C7.22748 61.2491 7.0891 61.4483 6.96948 61.6588C6.73002 62.1574 6.50854 62.6644 6.30516 63.1794C6.15813 63.731 5.87765 64.238 5.48838 64.6556C5.34877 64.8618 5.29247 65.1131 5.33089 65.3591C5.3283 66.1351 5.09358 66.8925 4.65683 67.5339C4.4992 67.9125 4.37569 68.3046 4.28778 68.7052C4.15001 69.1333 3.99248 69.5514 3.84486 69.9745C3.49058 71.0226 3.45125 72.184 3.02316 73.1681C2.62742 74.1894 2.32758 75.2454 2.12758 76.3223C1.91763 77.2474 1.72412 78.1773 1.54698 79.1122C1.50269 79.373 1.49283 79.6043 1.15331 79.6043C1.25664 79.8208 1.36495 80.0372 1.45352 80.2636C1.49103 80.3625 1.49959 80.4699 1.47814 80.5735C1.27897 81.1254 1.25655 81.7257 1.41411 82.2909C1.54205 82.6698 1.15329 83.2259 1.01059 83.7032C0.828181 84.0747 0.725984 84.4804 0.710501 84.8939C0.966372 86.316 0.671137 87.7184 0.710501 89.1257C0.78641 90.2125 0.937634 91.2926 1.16316 92.3584C1.28125 93.0867 1.40431 93.8346 1.58146 94.5333C1.62574 94.7252 1.86187 94.8679 2.01441 95.0254C2.16203 94.8925 2.37367 94.7842 2.44256 94.6169C2.68329 94.0727 2.87428 93.5079 3.01331 92.9293C3.21505 91.9452 3.70226 91.0299 3.57925 89.9474C3.5202 89.4553 3.90401 88.9336 4.07131 88.4169C4.19187 88.1646 4.25724 87.8897 4.26316 87.6101C4.08602 86.1733 4.7011 84.8693 4.89301 83.5014C4.97666 82.8765 5.06034 82.2516 5.16859 81.6316C5.30145 80.9083 5.46377 80.1946 5.60647 79.4762C5.63671 79.3809 5.64844 79.2807 5.64095 79.181C5.31619 77.9852 5.94596 77.0013 6.31501 75.9533C6.68405 74.9052 6.95468 73.9505 7.29913 72.9516C7.52055 72.2874 7.93391 71.628 7.94375 70.9834C7.94375 70.2355 8.47518 69.6843 8.43581 68.9167C8.43581 68.4246 8.92786 67.9325 9.16405 67.4405C9.32733 67.0579 9.43351 66.6534 9.47904 66.2399C9.5594 65.5131 9.87763 64.8332 10.3843 64.306C10.6697 63.996 10.7928 63.5877 11.152 63.2875C11.3146 63.1245 11.4421 62.93 11.5267 62.7159C11.6113 62.5018 11.6513 62.2728 11.6441 62.0427C11.6135 61.746 11.6488 61.4461 11.7475 61.1646C11.8461 60.883 12.0057 60.6267 12.2148 60.414C13.1645 59.5726 13.1694 58.2489 13.9863 57.3682C14.1664 57.1485 14.2806 56.8824 14.3159 56.6005C14.3711 56.2108 14.5759 55.8579 14.8868 55.6164C15.2373 55.2995 15.5375 54.9311 15.7773 54.5239C16.2989 53.6727 17.0124 52.964 17.3913 51.9947C17.7547 51.3041 18.1761 50.6456 18.651 50.0264C18.8822 49.6475 19.0495 49.2293 19.2562 48.8357C19.3153 48.7241 19.4016 48.6293 19.5072 48.5601C20.1321 48.1172 20.8751 47.7877 20.9833 46.8922C21.7805 46.2525 22.0167 45.1304 22.9516 44.6236C23.1382 44.5172 23.3047 44.3792 23.4436 44.2154C24.2244 43.462 24.9344 42.6384 25.5644 41.7551C26.2582 40.5988 27.6851 40.1706 28.187 38.8864C28.9251 38.6699 29.058 37.7349 29.8355 37.5135C30.1258 37.4299 30.2931 36.9969 30.5686 36.7951C32.2023 35.5896 33.6539 34.1576 35.3613 33.0456C35.5039 32.9472 35.6596 32.8692 35.8238 32.8142C36.2364 32.6403 36.6134 32.3918 36.9359 32.0811C37.7428 31.4513 38.4121 30.669 39.4454 30.2655C40.4829 29.8869 41.4631 29.3669 42.3584 28.7203C42.869 28.3555 43.4186 28.0486 43.997 27.8052C45.2763 27.2196 45.8569 27.3771 46.5557 28.563C46.9576 29.362 47.616 30.003 48.4255 30.3834C48.9176 30.595 49.2226 31.1954 49.6064 31.6234C49.9363 31.9921 50.3649 32.2585 50.8415 32.3911C51.2539 32.5644 51.6479 32.7789 52.0176 33.0309C52.362 33.2179 52.3226 33.4049 52.0176 33.523C51.1466 33.8871 50.2609 34.2166 49.385 34.5758C47.9679 35.1564 46.5016 35.6534 45.237 36.544C44.4644 37.0853 43.7608 37.7102 42.9931 38.2662C42.2255 38.8223 41.5515 39.2504 40.8429 39.7424C40.4148 40.0475 40.0064 40.3821 39.598 40.7265C38.8353 41.3465 38.1217 42.0256 37.3148 42.5915C36.8575 42.9479 36.4459 43.3595 36.0895 43.8168C35.4449 44.5598 34.7118 45.2241 34.0081 45.9179C33.9097 46.0163 33.772 46.0852 33.6834 46.1935C33.1617 46.9751 32.4595 47.6197 31.6364 48.0731C31.5035 48.137 31.4445 48.3584 31.3461 48.506C30.9704 49.0983 30.5631 49.6699 30.1258 50.2184C29.4862 50.9466 28.817 51.6502 28.1576 52.3736C27.4982 53.0969 26.8142 53.9483 26.1253 54.7159C25.3626 55.5671 24.7033 56.502 23.9406 57.3631C23.1779 58.2242 22.7696 59.3313 22.1348 60.3155C21.7533 60.813 21.332 61.2787 20.8751 61.708C20.7718 61.8163 20.6241 61.8951 20.5601 62.023C20.2796 62.584 20.0386 63.1695 19.7483 63.7255C19.5465 64.1192 19.4038 64.5521 18.9216 64.7637C18.7002 64.867 18.5821 65.2016 18.4296 65.423C18.0901 65.8609 17.721 66.2794 17.406 66.737C17.1846 67.0568 16.7713 67.3273 17.0518 67.8489C17.1108 67.9621 16.9386 68.2179 16.8452 68.395C16.0825 69.7925 15.3098 71.185 14.5472 72.5874C14.3941 72.943 14.2149 73.2869 14.0109 73.616C13.7301 74.0201 13.545 74.4829 13.4696 74.9691C13.3344 75.4766 13.1308 75.9632 12.8643 76.4158C12.5705 76.814 12.3995 77.2894 12.3723 77.7836C12.3656 77.9247 12.3233 78.0618 12.2493 78.1822C11.5275 79.7831 11.0753 81.4921 10.9109 83.2404C10.7731 84.2836 10.6156 85.3268 10.4926 86.3749C10.5055 86.5453 10.5489 86.7119 10.6205 86.867C10.7878 86.7686 11.0339 86.7047 11.1126 86.557C11.7523 85.3663 12.5888 84.2937 13.0169 82.9848C13.2313 82.5644 13.4781 82.1613 13.755 81.7792C14.6702 80.0028 15.5559 78.2067 16.4663 76.4304C16.6582 76.0564 16.9189 75.7171 17.1354 75.3579C17.2633 75.1463 17.4947 74.9001 17.4602 74.7082C17.3372 73.9996 17.8933 73.7241 18.2131 73.232C18.601 72.6709 18.9558 72.0877 19.2759 71.4853C19.6597 70.762 20.009 70.0091 20.3387 69.271C20.6394 68.4776 21.1019 67.7553 21.6968 67.1502C21.8389 66.9506 21.9486 66.7297 22.0216 66.4958C22.0758 66.3826 22.1151 66.2006 22.2086 66.1661C22.8827 65.9004 23.0943 65.3099 23.3403 64.6899C23.4847 64.4512 23.6582 64.2313 23.857 64.0355C24.1719 63.632 24.6098 63.312 24.6344 62.7167C24.6344 62.5395 24.8362 62.3624 24.9641 62.2246C25.2971 61.7739 25.6604 61.3467 26.0516 60.9454C27.0947 59.9613 27.4637 58.4851 28.7037 57.624C29.0038 57.3547 29.2729 57.0526 29.5058 56.7235C29.7403 56.3733 29.9428 56.0028 30.1111 55.6164C30.236 55.4096 30.3846 55.2179 30.5539 55.0455C31.2231 54.337 31.9169 53.653 32.5714 52.9346C33.4029 52.0243 34.1952 51.0844 35.0317 50.1691C35.4548 49.6968 35.8927 49.2391 36.3454 48.7963C37.8216 47.3201 39.2978 45.903 40.774 44.4465C41.389 43.8321 42.0688 43.286 42.8013 42.8178C43.7259 42.1831 44.5877 41.4615 45.3748 40.6626C46.4573 39.649 47.771 38.9995 49.011 38.2319C49.8721 37.6955 50.9793 37.4298 51.6387 36.7557C52.2291 36.1357 52.9721 36.2981 53.5527 35.8946C54.1357 35.5068 54.7554 35.1772 55.4029 34.9105C56.2443 34.5513 57.1202 34.8416 57.9813 34.9105C58.0698 34.9105 58.2322 35.0039 58.2322 35.058C58.2322 35.5944 58.4242 36.2292 58.1979 36.6425C57.9058 37.1424 57.7261 37.6998 57.6713 38.2761C57.6074 39.1421 57.4548 39.9393 56.5937 40.4363C56.3117 40.6471 56.1032 40.9416 55.9982 41.2777C55.449 42.8485 55.1341 44.4916 55.0634 46.1541C55.0264 46.9365 54.6899 47.6747 54.1236 48.2158C53.7469 48.565 53.472 49.0098 53.3282 49.5029C53.1844 49.9959 53.1769 50.5187 53.3067 51.0156C53.4346 51.5667 53.3412 51.793 52.8984 51.9997C52.6277 52.1326 52.2144 52.2458 52.6523 52.6542C52.5835 52.7132 52.5194 52.8117 52.4357 52.8363C52.1542 52.9429 51.9014 53.1134 51.6973 53.3346C51.4932 53.5558 51.3434 53.8215 51.2598 54.1107C51.0876 54.524 50.8661 54.9224 50.6545 55.3161C50.5758 55.4735 50.4331 55.5966 50.3543 55.7541C49.8623 56.7874 49.3703 57.8404 48.8241 58.8491C48.4168 59.6143 47.9477 60.3449 47.4217 61.0339C46.6688 62.018 45.6405 62.8594 45.5224 64.2224C45.0303 64.7686 45.0647 65.6199 44.243 66.0234C43.7509 66.2498 43.4458 66.9042 43.1948 67.4357C42.696 68.3919 42.0831 69.2841 41.3693 70.0927C40.7887 70.8112 40.2769 71.569 39.7504 72.3366C39.6865 72.4251 39.7111 72.5726 39.7062 72.6907C39.7084 72.7621 39.7183 72.8331 39.7358 72.9024C39.2142 72.8286 39.1501 73.3207 38.8893 73.5766C37.5755 74.8904 36.6013 76.4846 35.3317 77.8328C34.6468 78.5282 33.924 79.1853 33.1667 79.8011C32.6337 80.1815 32.1652 80.645 31.7791 81.1739C31.5921 81.479 31.1935 81.6659 30.8934 81.8971C30.3521 82.3351 29.8109 82.7732 29.2746 83.221C28.8219 83.5999 28.379 83.9934 27.9313 84.3822C27.8821 84.4265 27.823 84.5198 27.7886 84.51C26.8044 84.2738 26.4649 85.066 25.9433 85.5876C25.8081 85.7525 25.6407 85.8881 25.4513 85.9862C24.3392 86.3897 23.5372 87.2458 22.6416 87.9544C21.4951 88.845 20.2304 89.5487 19.0889 90.4147C18.0309 91.2315 16.7418 91.6697 15.6986 92.4569C14.7686 93.1606 13.5975 93.2737 12.697 94.0167C12.2738 94.3661 11.5998 94.4054 11.0487 94.6121C10.4976 94.8188 9.8284 95.1041 9.23301 95.3649C9.07063 95.4387 8.85401 95.6649 8.87369 95.788C8.89985 95.8871 8.94983 95.9785 9.01929 96.0539C9.08875 96.1294 9.17562 96.1869 9.27229 96.2212C9.76435 96.3294 10.3008 96.3538 10.8174 96.4129C11.1077 95.8569 11.3882 96.7573 11.7769 96.4129C12.0131 96.1964 12.5052 96.2261 12.889 96.2015C13.8358 96.1613 14.772 95.9856 15.6691 95.6798C16.7713 95.2714 17.9129 94.986 18.9954 94.5432C19.9795 94.1397 20.9194 93.6034 21.874 93.1162C22.12 92.9932 22.366 92.8259 22.6022 92.7078C22.8384 92.5897 23.2615 92.4075 23.3009 92.4666C23.5125 92.7618 23.8324 93.2046 23.734 93.4507C23.3846 94.3265 23.734 95.173 23.6946 96.0292C23.6675 96.3115 23.724 96.5956 23.857 96.8461C24.7181 98.2731 24.7476 99.9311 25.2003 101.466C25.4759 102.396 25.407 103.435 26.0614 104.266C26.2287 104.478 26.1548 104.872 26.2286 105.172C26.455 106.112 26.7208 107.051 26.9422 107.986C26.9717 108.126 27.0322 108.257 27.1193 108.37C28.0247 109.389 28.1034 110.747 28.5955 111.942C28.6458 112.036 28.6744 112.141 28.6791 112.247C28.638 113.214 28.5395 114.176 28.3839 115.131C28.1969 116.046 28.443 116.947 28.2855 117.847C28.2216 118.221 28.3298 118.654 28.1724 118.974C28.0961 119.125 28.051 119.29 28.04 119.459C28.029 119.629 28.0523 119.798 28.1083 119.958C28.1526 120.086 28.2019 120.303 28.1379 120.362C27.577 120.888 27.9903 121.346 28.1822 121.838C28.2663 122.202 28.2663 122.581 28.1822 122.945C28.0721 123.467 28.1672 124.011 28.4478 124.465C28.685 124.771 28.8225 125.142 28.8415 125.528C28.7874 126.404 29.2204 127.083 29.5599 127.811C29.6793 128.024 29.764 128.255 29.8109 128.495C29.8601 129.096 30.485 129.361 30.5637 129.971C30.6631 130.589 30.9746 131.153 31.4445 131.566C31.9946 132.151 32.4361 132.829 32.7484 133.568C32.9097 133.872 33.1287 134.141 33.3931 134.361C34.3915 135.24 35.4398 136.062 36.5325 136.821C38.1169 137.844 39.6078 139.07 41.6154 139.281C42.8012 139.409 43.9576 139.773 45.1337 139.98C45.8549 140.104 46.5891 140.136 47.3184 140.073C47.8695 140.014 48.1402 140.324 48.4797 140.59C48.6125 140.693 48.6568 140.954 48.7896 140.999C49.9853 141.397 50.5709 142.568 51.619 143.168C52.6671 143.769 53.6807 144.645 54.7288 145.344C55.6588 145.968 56.6282 146.529 57.5779 147.13C57.7796 147.258 57.9518 147.435 58.1486 147.577C58.8152 148.152 59.6047 148.566 60.4563 148.788C60.6543 148.843 60.8387 148.938 60.9977 149.068C62.5556 150.103 64.275 150.872 66.0855 151.342C66.2236 151.369 66.3657 151.369 66.5038 151.342C66.7006 151.312 66.7892 151.342 66.6563 151.553C66.4595 151.834 66.4103 151.853 66.8531 151.912C67.8806 152.087 68.8962 152.325 69.894 152.626C71.3111 153.02 72.7283 153.428 74.1307 153.886C74.2719 153.943 74.3984 154.031 74.5014 154.143C74.6044 154.256 74.6811 154.389 74.7261 154.535C75.0711 155.827 75.3227 157.143 75.4789 158.471C75.6142 160.015 75.6142 161.568 75.4789 163.112C75.4195 164.26 75.1649 165.39 74.7261 166.453C74.4308 167.097 74.3226 167.835 74.0323 168.515C73.801 169.061 73.7075 169.641 73.1614 170.03C72.9793 170.163 72.93 170.522 72.8808 170.793C72.7856 171.353 72.5485 171.88 72.192 172.323C71.935 172.658 71.7078 173.016 71.5129 173.391C71.2434 173.993 70.8833 174.551 70.4452 175.044C70.2781 175.269 70.1423 175.516 70.0416 175.777C69.9436 176.039 69.8094 176.286 69.6431 176.51C68.2112 177.957 67.5863 179.822 66.9073 181.662C66.8833 181.767 66.8381 181.866 66.7744 181.953C65.874 182.888 66.1298 184.044 66.1544 185.156C66.192 185.542 66.2003 185.93 66.1791 186.317C66.0708 187.031 65.9821 187.71 66.4447 188.349C66.4881 188.423 66.5162 188.504 66.5272 188.589C66.5382 188.673 66.5319 188.759 66.5087 188.842C66.3168 189.299 66.5973 189.481 66.9171 189.678C67.0648 189.771 67.2517 189.87 67.3156 190.013C67.8913 191.336 69.1806 191.621 70.3172 192.128C70.765 192.33 71.1931 192.561 71.6359 192.773C71.849 192.891 72.0776 192.979 72.315 193.034C73.6973 193.26 75.0572 193.605 76.3794 194.067C77.5407 194.471 78.7758 194.687 79.9715 194.992C81.305 195.327 82.6138 195.77 83.967 195.976C85.2217 196.168 86.378 196.67 87.6229 196.877C88.559 197.087 89.4581 197.437 90.29 197.915C90.9313 198.178 91.5887 198.4 92.2582 198.579C92.5288 198.656 92.7871 198.77 93.0257 198.919C93.5178 199.278 94.0444 199.563 94.689 199.268C94.7544 199.246 94.8252 199.246 94.8907 199.268C95.8059 199.509 96.7113 199.76 97.6265 200.001C98.3054 200.18 98.996 200.309 99.6932 200.39C100.52 200.464 101.386 200.311 102.188 200.483C102.971 200.683 103.788 200.702 104.579 200.538C104.787 200.537 104.994 200.55 105.199 200.577C105.792 200.595 106.375 200.422 106.863 200.085C107.748 199.401 108.737 198.855 109.682 198.255C110.067 198.006 110.372 197.653 110.563 197.236C110.868 196.616 111.291 196.06 111.626 195.46C112.005 194.823 112.191 194.089 112.162 193.349C112.154 192.654 112.211 191.961 112.334 191.277C112.497 190.121 111.926 189.083 111.842 187.971C111.286 187.656 111.306 186.986 110.858 186.519C110.41 186.051 109.648 185.638 109.505 184.826C109.48 184.688 109.269 184.575 109.126 184.472C108.093 183.744 107.099 182.912 105.878 182.528C104.952 182.246 103.999 182.061 103.034 181.977C102.272 181.894 101.52 181.741 100.786 181.52C99.8279 181.306 98.853 181.179 97.8726 181.141C97.6258 181.136 97.379 181.151 97.1345 181.185L97.1049 181.141ZM40.6706 11.764C40.6706 11.1046 40.6707 11.0947 41.3202 11.1636C42.6832 11.3161 44.0314 11.6557 45.4337 11.3949C46.5999 11.1735 47.8006 11.1391 48.957 10.9029C49.7706 10.6819 50.564 10.3923 51.3286 10.037C51.7764 9.85491 51.8207 9.90389 51.8207 10.4156C51.8207 10.9274 52.3128 11.3999 51.988 11.9757C51.9536 12.0347 52.0618 12.1626 52.0765 12.2659C52.17 12.9253 52.2586 13.5797 52.3423 14.2341C52.3423 14.4014 52.2931 14.6819 52.3423 14.7262C53.1001 15.1494 52.8344 15.981 53.1198 16.5911C53.376 17.118 53.5519 17.6803 53.6414 18.2593C53.7284 18.8454 53.9218 19.4106 54.2121 19.9272C54.4139 20.3405 54.6107 20.749 54.8174 21.1624L55.8015 23.1306C56.1115 23.7654 56.0918 24.6066 56.9135 24.9314C56.948 24.9314 56.9136 25.0694 56.9628 25.1284C57.4548 25.9305 57.8731 26.7668 58.4094 27.5245C58.9458 28.2823 59.5214 28.8828 60.0873 29.5569C60.3087 29.8226 60.5253 30.0931 60.7467 30.3637C60.4304 30.516 60.126 30.6922 59.8363 30.8904C59.3787 31.2398 58.685 30.8902 58.3061 31.4512C58.3061 31.4512 58.1978 31.3971 58.1338 31.3774C57.8268 31.2401 57.5071 31.133 57.1793 31.0576C55.7907 30.8453 54.4797 30.2812 53.3707 29.419C53.2083 29.2911 52.9869 29.0746 52.8442 29.1091C52.2931 29.2469 52.0864 28.6907 51.9929 28.4988C51.8064 28.1653 51.5369 27.8857 51.2105 27.687C50.4478 27.0817 49.5523 26.5701 48.9765 25.8172C48.0908 24.656 46.8213 23.785 46.2801 22.3728C46.2259 22.2252 46.0194 22.1414 45.8964 22.0184C45.7094 21.8697 45.5438 21.6959 45.4043 21.5019C44.6219 20.1733 43.8985 18.8104 43.0768 17.5015C41.9844 15.7645 41.4874 13.7766 40.6165 11.956C40.6115 11.892 40.646 11.823 40.6706 11.764ZM50.4626 4.4076V4.53061C50.8858 4.53061 51.3139 4.50601 51.7321 4.53061C51.8502 4.53061 52.0471 4.73746 52.0422 4.84079C52.0077 5.43619 51.9634 6.10027 51.3335 6.35614C50.1723 6.82359 49.0505 7.45846 47.7416 7.45846C47.5336 7.45202 47.3282 7.50668 47.151 7.61584C46.7131 7.89529 46.1882 8.00569 45.6748 7.92602C44.6022 7.82761 43.5295 7.73391 42.4617 7.59614C42.3645 7.56619 42.276 7.51363 42.2033 7.44261C42.1305 7.37158 42.0758 7.28434 42.0435 7.18793C42.0362 7.08808 42.0509 6.98785 42.0866 6.89433C42.1223 6.8008 42.1782 6.71621 42.2501 6.64661C42.5368 6.41116 42.8431 6.20033 43.1654 6.01664C43.7756 5.623 44.3611 4.99809 45.0156 4.91936C45.7495 4.81618 46.4692 4.62969 47.1609 4.36339C47.1904 4.36339 47.2297 4.39294 47.2642 4.39294L50.4626 4.4076ZM145.479 105.595C145.509 106.461 145.406 106.579 144.663 106.579C143.92 106.579 143.368 106.161 142.778 105.757C142.315 105.437 142.468 105.014 142.409 104.626C142.305 104.156 142.315 103.667 142.437 103.202C142.56 102.737 142.791 102.307 143.113 101.949C143.426 101.545 143.816 101.206 144.26 100.953C144.704 100.7 145.194 100.536 145.701 100.472C145.905 100.421 146.105 100.357 146.301 100.281C146.774 100.107 147.274 100.019 147.777 100.02C148.407 100.123 148.934 100.177 149.436 99.7196C149.503 99.6922 149.577 99.6828 149.649 99.6922C149.722 99.7017 149.79 99.7298 149.849 99.7737C149.977 99.9213 150.09 100.128 149.809 100.295C149.56 100.491 149.297 100.668 149.022 100.827C148.241 101.057 147.582 101.588 147.192 102.303C147.128 102.436 146.906 102.49 146.773 102.603C146.542 102.805 146.311 103.012 146.099 103.233C145.479 103.942 145.642 104.837 145.479 105.595Z" fill="#802A00"/>
<path d="M94.596 88.3186C93.7595 88.3186 92.9181 88.2891 92.0816 88.3186C91.6492 88.3694 91.2203 88.4465 90.7974 88.5498C89.8674 88.7171 88.9324 88.845 88.0171 89.0418C87.4923 89.1439 86.9915 89.3444 86.541 89.6324C86.3429 89.8108 86.108 89.9435 85.8529 90.0209C85.5977 90.0983 85.3286 90.1185 85.0648 90.0802C84.7794 90.0113 84.3907 90.2375 84.0807 90.395C82.7324 91.0888 81.399 91.8024 80.0655 92.5208C79.7014 92.7176 79.539 92.6535 79.5488 92.2303C79.5488 92.0926 79.5734 91.9499 79.5488 91.8072C79.4553 89.6176 78.3629 88.1317 76.3209 87.4969C76.0094 87.371 75.6728 87.3197 75.3378 87.347C75.0029 87.3743 74.679 87.4795 74.392 87.6543C73.8729 87.9271 73.3969 88.2754 72.9798 88.6877C72.197 89.6525 71.6495 90.7862 71.3806 91.9992C71.3311 92.4123 71.3213 92.8291 71.3512 93.244C71.1431 95.1625 70.6781 97.0443 69.9684 98.8388C69.9438 98.9028 69.9684 98.9914 69.9143 99.0406C68.9301 100.286 68.507 101.875 67.5229 103.066C66.6175 104.153 66.1107 105.526 64.9396 106.426C64.359 106.869 64.1277 107.676 63.5569 108.183C62.8137 108.859 62.138 109.605 61.5394 110.412C61.1333 110.841 60.694 111.238 60.2256 111.598C59.2415 112.533 58.2574 113.522 57.2339 114.398C56.3728 115.116 55.4822 115.962 54.4636 116.287C53.2433 116.671 52.2248 117.591 50.8175 117.532C49.6971 117.497 48.6229 117.076 47.7765 116.341C47.1433 115.736 46.5454 115.096 45.9855 114.422C45.5328 113.93 45.5968 113.315 45.6509 112.745C45.7247 111.987 46.0986 111.268 45.7935 110.461C46.3249 109.62 45.9952 108.591 46.4135 107.686C46.7607 106.766 47.2506 105.905 47.8652 105.137C48.4196 104.469 48.8997 103.744 49.297 102.972C49.4568 102.659 49.5298 102.309 49.5086 101.958C49.5232 101.773 49.492 101.587 49.4176 101.416C49.3432 101.246 49.2279 101.097 49.082 100.981C48.936 100.866 48.7638 100.788 48.5808 100.755C48.3977 100.722 48.2094 100.735 48.0324 100.792C46.8416 101.097 45.6016 101.412 44.8439 102.495C44.3761 103.227 43.9553 103.988 43.5841 104.773C43.5005 104.926 43.535 105.186 43.4219 105.265C42.4377 105.964 42.7133 107.194 42.172 108.075C42.0853 108.224 42.0394 108.394 42.0391 108.567C42.0391 110.043 41.9653 111.558 42.3737 113.02C42.4635 113.251 42.5263 113.493 42.5607 113.738C42.6451 114.425 42.9839 115.056 43.5104 115.505C44.1456 116.107 44.6746 116.813 45.0751 117.591C45.518 118.575 46.3988 118.979 47.2402 119.323C48.3484 119.851 49.5658 120.109 50.7929 120.076C51.1078 120.052 51.4194 119.996 51.7228 119.909C52.8693 119.564 54.0158 119.23 55.1426 118.831C56.3138 118.477 57.4516 118.021 58.5428 117.468C59.8449 116.701 61.0824 115.828 62.2431 114.86C63.26 114.011 64.2199 113.095 65.1167 112.12C65.7908 111.416 66.3616 110.614 66.9816 109.861C67.1216 109.659 67.287 109.475 67.4737 109.315C68.5119 108.552 69.2255 107.499 70.0078 106.505C70.2637 106.175 70.5589 105.875 70.8443 105.565C71.7054 104.645 72.5764 103.73 73.4276 102.8C73.5949 102.618 73.6883 102.377 73.8409 102.19C74.205 101.747 74.3822 101.151 74.9874 100.9C75.2065 100.784 75.3735 100.589 75.4549 100.354C75.4696 100.27 75.501 100.19 75.5474 100.118C75.5937 100.046 75.654 99.9842 75.7247 99.9361C75.7953 99.8879 75.8749 99.8542 75.9587 99.8373C76.0425 99.8204 76.1289 99.8207 76.2126 99.8378C76.3876 99.8243 76.5571 99.77 76.7075 99.6795C76.8578 99.5889 76.9849 99.4646 77.0787 99.3162C77.7626 97.7908 79.2044 97.1215 80.4641 96.2752C81.4827 95.5863 82.5995 95.0351 83.687 94.4446C83.9375 94.3481 84.1939 94.2677 84.4546 94.2036C84.8729 94.0462 85.2912 93.874 85.7094 93.7116C85.992 93.5782 86.283 93.463 86.5804 93.367C87.3578 93.1702 88.1303 92.9438 88.9029 92.7126C90.6693 92.1401 92.4951 91.7705 94.3451 91.6105C95.4219 91.453 96.5158 91.453 97.5926 91.6105C98.1929 91.7482 98.2913 91.9205 98.0847 92.4913C97.5926 93.7854 96.4019 94.0904 95.2849 94.484C94.9098 94.6069 94.5217 94.6862 94.1285 94.7202C93.1837 94.8334 92.2391 94.9072 91.2943 95.0253C91.0187 95.0673 90.7492 95.1433 90.4922 95.2517C89.3959 95.5846 88.3169 95.9721 87.2594 96.4129C86.2211 96.9049 84.9909 97.1609 84.1692 98.1106C83.6476 98.7109 83.4262 99.3652 83.81 99.8671C84.1245 100.28 84.5283 100.616 84.991 100.851C85.6259 101.161 86.3019 101.378 86.9986 101.496C88.1702 101.757 89.3021 102.172 90.3643 102.731C91.2894 103.144 91.5649 104.734 90.9646 105.551C90.6398 105.993 90.133 106.249 89.8673 106.791C89.7369 106.963 89.545 107.079 89.3315 107.113C89.118 107.148 88.8993 107.1 88.7208 106.977C87.8695 106.357 87.0084 106.884 86.1719 106.938C85.8422 106.963 85.5372 107.504 85.2371 107.829C85.2075 107.858 85.2715 108.05 85.3404 108.089C85.8718 108.424 86.4131 108.744 86.9543 109.074C87.2057 109.173 87.4411 109.309 87.653 109.477C87.8991 109.763 88.0171 110.146 88.5092 110.156C88.6175 110.156 88.7504 110.388 88.8291 110.54C89.0837 110.961 89.2837 111.412 89.4245 111.883C89.4712 112.292 89.4344 112.705 89.3163 113.099C89.208 113.615 89.0456 114.117 88.893 114.619C88.8232 114.89 88.7209 115.151 88.588 115.397C88.2731 115.889 87.9287 116.381 87.6039 116.873C87.4508 117.153 87.2218 117.384 86.9433 117.54C86.6648 117.695 86.3479 117.77 86.0292 117.754C85.7297 117.772 85.4337 117.828 85.1484 117.921C85.1652 117.578 85.213 117.237 85.2911 116.902C85.5568 116.076 85.8767 115.274 86.1621 114.442C86.4007 113.769 86.4007 113.034 86.1621 112.361C85.9702 111.795 85.5175 111.637 85.0796 112.031C84.3267 112.705 83.6427 113.453 82.9489 114.191C82.6143 114.55 82.3634 114.988 82.0091 115.328C81.025 116.253 80.3312 117.375 79.4209 118.349C78.8305 118.982 78.1082 119.478 77.305 119.801C76.5079 120.13 75.7747 120.701 74.8447 120.612C74.7397 120.621 74.6376 120.652 74.5446 120.701C73.7842 121.009 72.9583 121.121 72.1433 121.026C71.1985 120.903 70.1505 121.326 69.1909 121.626C68.7235 121.774 68.0986 122.084 68.2068 122.719C68.2713 122.974 68.4059 123.207 68.5955 123.39C68.785 123.574 69.0218 123.701 69.2795 123.757C71.3571 124.439 73.5986 124.439 75.6763 123.757C76.0143 123.649 76.3576 123.559 76.7047 123.486C77.3542 123.363 78.0382 123.329 78.4466 122.684C79.7407 122.157 80.7446 121.208 81.8025 120.357C82.013 120.19 82.2044 120 82.3732 119.791C82.9145 119.102 83.3574 119.038 83.8839 119.722C84.1162 120.007 84.4238 120.221 84.7717 120.34C85.1195 120.459 85.4938 120.479 85.8521 120.396C87.2791 120.238 88.6175 119.865 89.6853 118.826C89.9018 118.615 90.0937 118.378 90.2954 118.152C90.4501 117.963 90.6144 117.783 90.7875 117.611C91.6812 116.755 92.3867 115.723 92.8591 114.58C93.1119 113.957 93.2082 113.281 93.1396 112.612C93.0456 111.635 92.8594 110.669 92.5835 109.728C92.4949 109.413 92.4653 109.236 92.6671 108.98C93.1591 108.399 93.6513 107.824 94.2024 107.287C94.5732 106.864 94.8558 106.37 95.0339 105.836C95.2201 105.385 95.3138 104.902 95.3095 104.414C95.2809 103.902 95.1539 103.401 94.9355 102.938C94.646 102.197 94.2552 101.5 93.7742 100.866C93.2329 100.272 92.596 99.7732 91.8897 99.39C91.3154 99.1247 90.7194 98.909 90.1084 98.7453C90.0592 98.7453 90.0592 98.5683 90.0346 98.4748C90.3446 98.5142 90.4283 97.8005 90.8662 98.2237C90.9139 98.2461 90.966 98.2578 91.0188 98.2578C91.0715 98.2578 91.1236 98.2461 91.1713 98.2237C92.928 97.5742 94.7978 97.6481 96.584 97.3381C97.9273 97.1068 99.2657 96.8461 100.137 95.5323C100.501 94.9861 101.012 94.5479 101.362 93.9526C101.672 93.4227 101.797 92.8046 101.716 92.196C101.573 91.0298 101.352 89.8291 100.151 89.1845C100.058 89.1353 99.989 89.0223 99.8955 89.0026C98.1684 88.6385 96.4511 88.284 94.7092 87.9248L94.596 88.3186ZM73.9295 93.5345C74.1559 92.9243 74.4216 92.0583 74.7956 91.2907C74.9432 90.9807 75.4057 90.5377 75.5976 90.5968C75.9469 90.7001 76.2127 91.1184 76.4882 91.4283C76.5719 91.5218 76.5669 91.6942 76.5915 91.832C76.6949 92.3831 76.8081 92.934 76.8967 93.49C76.9436 93.7493 76.9158 94.0166 76.8164 94.2606C76.7171 94.5046 76.5503 94.7152 76.3357 94.868C75.7649 95.3305 75.0218 95.5764 74.5888 96.2259C74.5458 96.2814 74.4906 96.3264 74.4275 96.3571C74.3643 96.3878 74.2949 96.4034 74.2247 96.403C74.0968 96.3784 73.8754 96.172 73.8951 96.1375C74.2543 95.3551 73.9788 94.5678 73.9443 93.5345H73.9295Z" fill="#802A00"/>
<path d="M106.356 49.2455C106.444 50.2788 106.577 51.4302 106.626 52.5866C106.759 55.3913 107.438 58.1027 107.95 60.8435C108.004 61.1535 108.098 61.3846 108.442 61.4437C108.513 61.4452 108.583 61.4682 108.64 61.5097C108.698 61.5512 108.743 61.6095 108.767 61.6765C108.791 61.7434 108.795 61.8162 108.777 61.8853C108.76 61.9544 108.722 62.0166 108.668 62.0638C108.553 62.1965 108.475 62.3578 108.443 62.5308C108.411 62.7039 108.426 62.8826 108.486 63.0479C108.619 63.8401 108.826 64.6175 108.978 65.4097C109.072 65.9509 109.062 66.5218 109.18 67.0581C109.505 68.5343 109.899 70.0104 110.223 71.521C110.345 72.234 110.509 72.9389 110.715 73.632C111.063 74.5041 111.481 75.3467 111.965 76.1514C112.236 76.5134 112.621 76.7734 113.058 76.8895C113.235 76.9485 113.663 76.6681 113.781 76.4368C114.141 75.7572 114.423 75.0391 114.622 74.2963C115.031 72.2733 115.173 70.2055 115.045 68.1456C115.045 67.7224 115.021 67.2943 114.972 66.876C114.863 66.0405 114.848 65.1954 114.927 64.3566C114.971 63.4621 114.912 62.5658 114.75 61.6849C114.651 60.1994 114.412 58.7264 114.037 57.2857C114.288 56.459 113.776 55.726 113.737 54.9289C113.633 54.3908 113.495 53.86 113.323 53.3396C113.225 52.8081 113.249 52.2472 113.136 51.7207C112.996 51.1466 112.822 50.5812 112.615 50.0278C112.344 49.2356 112.005 48.4582 111.783 47.6561C111.489 46.6386 111.043 45.6713 110.46 44.7874C110.351 44.6102 110.199 44.3693 110.243 44.2069C110.415 43.6263 110.026 43.3065 109.785 42.8833C109.68 42.6405 109.493 42.4426 109.256 42.3247C109.019 42.2067 108.748 42.1763 108.491 42.2387C108.171 42.265 107.869 42.3974 107.633 42.6149C107.397 42.8324 107.24 43.1225 107.187 43.4393C107.08 43.8092 107.021 44.1911 107.01 44.576C106.991 45.4848 106.857 46.3875 106.612 47.2626C106.469 47.8727 106.439 48.4975 106.356 49.2455Z" fill="#802A00"/>
<path d="M88.2013 46.5313C88.1316 46.5164 88.0608 46.5065 87.9896 46.5018C87.2958 46.4772 87.0499 46.7035 87.227 47.3727C87.453 48.5079 87.4746 49.6743 87.2909 50.8172C87.2467 51.6209 87.2615 52.4267 87.3353 53.2282C87.3796 54.0401 87.473 54.8421 87.5468 55.6491C87.5364 55.8247 87.5547 56.0009 87.601 56.1707C88.2062 57.455 87.9946 58.8622 88.2406 60.2006C88.6145 62.2427 88.8951 64.3044 89.4265 66.312C89.7513 67.5225 90.1203 68.728 90.4992 69.9287C90.8781 71.1293 91.1832 72.4136 91.6211 73.629C91.872 74.3179 92.0787 75.0264 92.3395 75.7104C92.4527 76.0007 92.6642 76.2516 92.8069 76.5321C92.8994 76.6949 92.9612 76.8735 92.989 77.0587C93.1219 78.4611 93.7615 79.0565 95.1639 79.027C95.3278 79.0005 95.4811 78.9287 95.6067 78.8201C95.9542 78.579 96.2295 78.2477 96.4029 77.8619C96.5763 77.4761 96.6412 77.0505 96.5908 76.6306C96.517 75.5431 96.2415 74.4261 96.4236 73.3829C96.7287 71.6312 96.2513 69.9828 96.1382 68.2901C96.1216 67.3107 96.0476 66.3332 95.9168 65.3625C95.6855 64.1225 95.2771 62.9022 94.977 61.6917C94.8195 61.0471 94.7309 60.3828 94.6079 59.7235C94.5636 59.3725 94.486 59.0265 94.3766 58.6901C94.2142 58.2866 93.7074 57.8141 93.8058 57.5484C93.9928 57.0563 93.7763 56.7267 93.7025 56.3379C93.6187 55.9011 93.4952 55.4731 93.3334 55.0588C92.8414 53.8483 92.3494 52.6574 91.8868 51.4469C91.6703 50.8909 91.5521 50.2955 91.3061 49.7542C90.9764 49.0136 90.6018 48.2939 90.1843 47.5991C89.5889 46.6642 89.3872 46.5805 88.2013 46.5313ZM92.9546 66.9074C92.7706 66.6314 92.625 66.3318 92.5216 66.0167C92.5475 65.8341 92.6426 65.6686 92.7872 65.5542C93.0283 65.6329 93.4417 65.8003 93.4368 65.9184C93.4269 66.1841 93.2006 66.4448 92.9546 66.9074Z" fill="#802A00"/>
<path d="M121.177 90.1986C121.281 89.7065 121.177 88.8603 121.591 88.0927C121.758 87.7827 121.62 87.2955 121.591 86.8969C121.556 86.1539 121.287 85.4407 120.823 84.8597C120.608 84.6347 120.336 84.4732 120.036 84.3924C119.627 84.2792 119.381 84.5596 119.411 84.9827C119.44 85.4059 119.44 85.893 119.494 86.3457C119.505 86.9974 119.303 87.6347 118.919 88.1614C118.663 88.6535 118.55 88.8898 119.037 89.1998C119.111 89.2441 119.145 89.3573 119.199 89.436C119.101 89.436 118.978 89.5 118.909 89.436C118.564 89.2293 118.476 89.4901 118.377 89.7164C118.062 90.4496 117.802 91.1927 117.433 91.916C117.079 92.5133 116.691 93.0899 116.271 93.643C116.134 93.8398 115.981 94.0317 115.838 94.2285C115.199 95.0995 114.589 95.9952 113.91 96.8268C113.673 97.1121 113.457 97.5107 112.95 97.4959C112.547 97.4959 112.704 98.175 112.177 98.1701C111.987 98.1737 111.8 98.2197 111.63 98.3049C111.46 98.39 111.31 98.5121 111.193 98.6621C111.041 98.854 110.701 98.9081 110.436 98.9819C109.875 99.1394 109.299 99.2379 108.753 99.4298C108.578 99.4772 108.428 99.5913 108.336 99.7476C108.244 99.904 108.217 100.09 108.261 100.266C108.338 100.675 108.506 101.062 108.753 101.398C109.737 102.505 110.642 102.559 112.089 102.077C113.102 101.771 114.054 101.288 114.899 100.65C115.748 100.059 116.464 99.2964 117 98.4111C117.128 98.165 117.28 97.8502 117.492 97.7518C117.92 97.5599 118.072 97.1614 118.358 96.876C119.411 95.8328 119.721 94.4157 120.326 93.1462C120.675 92.3343 121.192 91.478 121.177 90.1986Z" fill="#802A00"/>
<path d="M119.707 103.387C121.139 103.358 122.201 103.023 122.688 101.704C122.757 101.522 122.949 101.389 123.057 101.212C123.348 100.745 123.633 100.268 123.904 99.7903C124.022 99.5788 124.076 99.3326 124.204 99.1308C124.35 98.9346 124.441 98.7029 124.467 98.4598C124.493 98.2166 124.453 97.971 124.352 97.7483C124.214 97.4334 124.214 97.0595 124.066 96.7642C123.956 96.4818 123.748 96.2478 123.481 96.1047C123.146 95.9965 122.846 96.2327 122.634 96.5624C122.3 97.0889 121.867 97.5465 121.567 98.1025C120.927 99.2539 119.81 100.071 119.293 101.276C119.1 101.704 118.936 102.145 118.801 102.595C118.775 102.662 118.765 102.733 118.769 102.804C118.774 102.876 118.794 102.945 118.828 103.008C118.862 103.071 118.91 103.125 118.967 103.168C119.024 103.21 119.09 103.24 119.16 103.254C119.402 103.323 119.648 103.373 119.707 103.387Z" fill="#802A00"/>
</svg>
